<svg xmlns="http://www.w3.org/2000/svg" viewBox="0 0 37.5 37.5"><g fill="#FFF"><path d="M31.1 12.8c0 .3-.2.5-.5.5s-.5-.2-.5-.5.2-.5.5-.5.5.2.5.5zm-7.2 0c0 .3-.3.5-.5.5-.3 0-.5-.3-.5-.5 0-.3.3-.5.6-.5.2 0 .4.2.4.5z"/><path d="M33 12.3c-.2-1.4-1.6-2.9-3-3.2-.4-.1-.6-.3-.7-.7.6 0 .6 0 .6-.6V7c0-.2-.1-.3-.3-.3-.4 0-.7.1-1 .4-.1 0-.2-.1-.3-.1-.3 0-.6.1-.9.2-.1 0-.1.1-.1.2s.1.2.2.2h.5c.1 0 .3.1.3.2.4 1.3.7 2.6.3 4-.1.2-.2.3-.4.3H26c-.1 0-.3-.1-.4-.2-.3-.3-.4-.7-.2-1 .2-.4.4-.8.9-.9.3 0 .4-.1.4-.4 0-.4-.3-.3-.5-.4V6c.4-.1.5-.5.2-.9H20c-.2.5-.2.8.3.9v3.1H20c-.3 0-.4.1-.4.4 0 .3.1.4.4.4h2.2v.2c-.2.1-.5.1-.7.2h-3v.5h2.9c0 .2-.1.3-.2.3h-2v.5H21c0 .2 0 .3-.1.3h-3.1v.5h3.1c.1.4.4.4.7.4.2.9.8 1.5 1.7 1.6.9 0 1.5-.6 1.8-1.6h3.8c.1.9.7 1.5 1.6 1.6.8.1 1.5-.5 1.8-1.6.7 0 .8-.1.7-.5zm-9.6 1.6c-.6 0-1.1-.5-1.1-1 0-.6.5-1 1.1-1.1.6 0 1.1.5 1.1 1 0 .6-.6 1.1-1.1 1.1zm7.2 0c-.6 0-1.1-.5-1.1-1.1 0-.5.5-1 1.1-1 .6 0 1.1.5 1.1 1 0 .6-.5 1.1-1.1 1.1z"/></g><path fill="#1993C0" d="M26.1 0h11.4v9.6H26.1z"/><path fill="#2670B8" d="M33.5 0H1l36.5 36.5V4c0-2.2-1.8-4-4-4z"/><g fill="#FFF"><path d="M34 11c-.1-.2-.4-.5-.4-.5-.6-1.1-3.2-1.6-3.2-1.6l-2.9-1.8-.1-.1-.2-.1-.2-.1h-.2c-1.4-.4-6.6-.3-6.6-.3-.8 0-1.1.5-1.1.5l-1.5 1.8c-.4.4-.3 1.7-.3 1.7.1.2-.1.2-.1.2-.2 0-.3.3-.3.3 0 1.6.8 1.5.8 1.5.1-1.9 1.7-1.6 1.7-1.6 1.5 0 1.5 1.9 1.5 1.9h8.4c.2-2.3 1.9-2 1.9-2 1.5.1 1.3 2 1.3 2l.9-.1c.8-.1.6-1.7.6-1.7zM19.4 8.8c-.1-.6.5-1.4.5-1.4.4-.6.9-.5.9-.5h2.1c.3 0 .3.2.3.2l.1 1.9-3.9-.2zm9.1.2l-4.3-.1-.4-1.8c0-.3.3-.2.3-.2 3.6 0 4.4 1.6 4.4 1.6.4.6 0 .5 0 .5z"/><path d="M31 11.2c-.7 0-1.3.6-1.3 1.3 0 .7.6 1.3 1.3 1.3.7 0 1.3-.6 1.3-1.3 0-.7-.6-1.3-1.3-1.3zm0 2c-.4 0-.6-.3-.6-.6 0-.4.3-.6.6-.6.4 0 .6.3.6.6s-.2.6-.6.6zm-11.6-2c-.7 0-1.3.6-1.3 1.3 0 .7.6 1.3 1.3 1.3.7 0 1.3-.6 1.3-1.3 0-.7-.6-1.3-1.3-1.3zm0 2c-.4 0-.6-.3-.6-.6 0-.4.3-.6.6-.6.4 0 .6.3.6.6s-.2.6-.6.6z"/></g></svg>
