<svg xmlns="http://www.w3.org/2000/svg" xmlns:xlink="http://www.w3.org/1999/xlink" width="143.8" height="231.6" viewBox="0 0 143.8 231.6"><path fill="#D73648" d="M0 0h143.8v231.6H0z"/><defs><path id="a" d="M-.1-22.1h143.9v254H-.1z"/></defs><clipPath id="b"><use xlink:href="#a" overflow="visible"/></clipPath><g clip-path="url(#b)" fill="none" stroke-width="2"><path stroke="#43B663" d="M23.9 150.7c-4.9-7.5-10.9-11.6-11.4-11.9-12.4-8.3-17.3-2.1-20.1 3.9-2.8 6-10 28.3 11.3 25.1 22-3.5 25.1-9.7 20.2-17.1z"/><path stroke="#F0C318" d="M111.2 160.4c-14.6 15.3-20.9 31.3-21.4 32.7-12.5 32.9 4.6 40.7 20 43.8 15.4 3.2 71.2 7.3 52-39.6-19.9-48.7-36-52.2-50.6-36.9z"/><path stroke="#934F9E" d="M115.7 168.7c-11 11.5-15.7 23.5-16.1 24.5-9.4 24.6 3.4 30.5 15 32.8 11.6 2.4 53.3 5.5 39-29.7-14.9-36.4-27-39.1-37.9-27.6z"/><path stroke="#F0C318" d="M143.6 89.3c-5.8-2-10.8-1.8-11.2-1.8-10.2.6-10.3 6-9.3 10.4s6.5 19.6 16.7 9c10.6-11 9.7-15.6 3.8-17.6z"/></g></svg>
