<svg width="29" height="29" viewBox="0 0 29 29" xmlns="http://www.w3.org/2000/svg"><g fill="none" fill-rule="evenodd"><rect fill="#8E8E93" width="29" height="29" rx="6"/><path d="M5 19.614h12.017c.262-.602.86-1.023 1.554-1.023.7 0 1.3.43 1.56 1.03H24v1.37h-3.874c-.263.6-.86 1.03-1.555 1.03-.69 0-1.29-.42-1.55-1.02H5m0-7.16h3.874c.263-.6.86-1.02 1.555-1.02.69 0 1.29.42 1.55 1.03H24v1.36H11.983c-.262.6-.86 1.03-1.554 1.03-.7 0-1.3-.42-1.56-1.02H5m0-7.16h12.017c.263-.61.86-1.03 1.553-1.03.696 0 1.293.42 1.556 1.02H24V9.4h-3.874c-.263.6-.86 1.02-1.555 1.02-.69 0-1.29-.428-1.55-1.03H5" fill="#FFF"/></g></svg>
