<svg width="29" height="29" viewBox="0 0 29 29" xmlns="http://www.w3.org/2000/svg"><g fill="none" fill-rule="evenodd"><rect fill="#8E8E93" width="29" height="29" rx="6"/><path d="M22.225 18.305c-.703-.723-2.702-2.076-4.012-2.076-.303 0-.568.06-.785.2-.64.41-1.15.72-1.397.72-.13 0-.27-.12-.59-.4l-.05-.05c-.88-.77-1.07-.97-1.41-1.32l-.08-.09-.17-.18c-.3-.31-.51-.53-1.28-1.4l-.03-.04c-.36-.42-.6-.69-.62-.88-.01-.2.16-.51.58-1.09.52-.71.54-1.57.07-2.58-.38-.8-1-1.56-1.55-2.23l-.05-.06C10.36 6.29 9.81 6 9.2 6c-.68 0-1.248.366-1.546.558l-.07.05c-.67.422-1.154 1.005-1.34 1.597-.272.89-.455 2.047.86 4.45 1.137 2.08 2.167 3.477 3.805 5.158 1.54 1.58 2.22 2.09 3.75 3.198 1.71 1.24 3.34 1.94 4.49 1.94 1.06 0 1.9 0 3.1-1.44 1.25-1.51.73-2.43-.02-3.21z" fill="#FFF"/></g></svg>
