<svg xmlns="http://www.w3.org/2000/svg" width="150" height="157.5" viewBox="-65 -68.3 150 157.5"><title/><path fill="#D63647" d="M10 .4C2.1.4-4.4 6.9-4.4 14.8S2.1 29.2 10 29.2s14.4-6.5 14.4-14.4S17.9.4 10 .4zm43.2 14.4C53.2-9 33.8-28.4 10-28.4S-33.2-8.9-33.2 14.8c0 15.8 8.6 29.5 21.6 37.4L-4.4 40c-8.6-5-14.4-14.4-14.4-24.5 0-15.8 13-28.8 28.8-28.8s28.8 13 28.8 28.8c0 10.8-5.8 20.2-14.4 24.5l7.2 12.2c13-7.8 21.6-21.5 21.6-37.4zM10-57.2c-39.6 0-72 32.4-72 72 0 26.7 14.4 49.7 36 62l7.2-12.2c-17.3-10.1-28.8-28.8-28.8-49.7 0-31.7 25.9-57.6 57.6-57.6s57.6 25.9 57.6 57.6c0 21.6-11.5 39.6-28.8 49.7L46 76.8c21.6-12.2 36-36 36-61.9 0-39.7-32.4-72.1-72-72.1z"/></svg>
