<svg xmlns="http://www.w3.org/2000/svg" width="512" height="512" viewBox="0 0 512 512"><path d="M256 0C114.844 0 0 114.844 0 256s114.844 256 256 256c23.188 0 46.156-3.094 70.47-10 49.25-21.78 76.124-75.53 64.218-127.97l.5-.5c7.5-7.468 10.875-21.874 7.53-31.937l-1.437-4.375c-3.37-10.063-14.5-20.563-24.75-23.375L334.69 303.5c-10.25-2.78-24.875.97-32.406 8.5l-13.688 13.688c-49.75-13.47-88.78-52.5-102.22-102.25l13.69-13.688c7.5-7.5 11.25-22.125 8.468-32.406L198.22 139.5c-2.782-10.25-13.345-21.375-23.407-24.75l-4.313-1.438c-10.094-3.375-24.5.03-32 7.563l-20.5 20.5c-3.656 3.625-6 14.03-6 14.063-.688 65.063 24.813 127.72 70.813 173.75 45.875 45.875 108.313 71.344 173.156 70.78.15 0 2.53-.53 5.34-1.374.19 31.47-17.66 60.875-45.57 73.344C296.4 477.28 276.31 480 256 480 132.5 480 32 379.5 32 256S132.5 32 256 32s224 100.5 224 224c0 36.813-8.75 72.03-26.03 104.625-4.126 7.813-1.126 17.5 6.655 21.625 7.844 4.188 17.5 1.156 21.625-6.625C501.72 338.875 512 297.5 512 256 512 114.844 397.156 0 256 0z"/></svg>
