<svg xmlns="http://www.w3.org/2000/svg" width="500" height="500" viewBox="0 0 500 500"><g fill="#FFF"><path d="M500 420.4c-95.2 0-107.7-87.9-119.9-172.9C367 155.5 354.6 68.6 250 68.6s-117 86.9-130.1 178.9C107.7 332.5 95.2 420.4 0 420.4v-27.3c66.6 0 79.5-56.5 92.8-149.5C105.7 153.5 121.7 41.3 250 41.3s144.3 112.2 157.2 202.3c13.3 93 26.2 149.5 92.8 149.5v27.3z"/><path d="M250 479.1c-40 0-72.5-32.4-72.5-72.3h27.4c0 24.8 20.2 45 45.1 45 24.9 0 45.1-20.2 45.1-45h27.4c0 39.8-32.5 72.3-72.5 72.3z"/><path d="M0 392.1h500v29.3H0zM279.4 40.3c0 16.2-13.2 22-29.4 22s-29.4-5.8-29.4-22S233.8 11 250 11c16.3 0 29.4 13.1 29.4 29.3z"/></g></svg>
