<svg xmlns="http://www.w3.org/2000/svg" width="500" height="500" viewBox="0 0 500 500"><path fill="#FFF" d="M250.6 500.4C113 500.4 1.2 388.1 1.2 250.1S113-.1 250.6-.1 500 112.1 500 250.1 388.1 500.4 250.6 500.4zm0-473c-122.4 0-222 99.9-222 222.8S128.2 473 250.6 473s222-99.9 222-222.8S373 27.4 250.6 27.4z"/><g fill="#FFF"><path d="M250.5 94.8c30.9-.1 56.3 25.1 56.4 56 .1 31.1-25 56.3-56.2 56.5-30.8.2-56.1-25.1-56.2-56.1-.3-30.8 25.1-56.3 56-56.4zm-68.6 276.6c-17.1 2.8-31.3-5.4-35.6-20.3-1.4-4.8-1.3-9.6-.1-14.4 8.2-32.8 16.5-65.6 24.8-98.4 3.1-12.1 13.1-20.1 25.7-20.4 3.8-.1 8.3-1.2 11.3.4 2.8 1.5 3.9 6 5.7 9.3 10.9 20.4 21.8 40.7 32.7 61.1.5.9.9 1.8 1.5 3.1-8.3 0-16.1-.1-23.9 0-5.6.1-11.3-.1-16.6 1.1-14.8 3.2-25.2 16.4-25.4 31.5-.2 14.6 0 29.1 0 43.7-.1 1.1-.1 2.3-.1 3.3zm140.7 0v-45.3c0-19.9-14.4-34.2-34.2-34.2h-34.2c.5-1.1.8-1.9 1.2-2.7l36.9-69c.9-1.7 1.9-2.5 3.8-2.3 2.4.2 4.7 0 7.1 0 13.6.1 24.7 8.6 28 21.9 7.7 31.1 15.2 62.3 23 93.4 1.7 7 2.6 13.7-.1 20.6-4.9 12.8-17.6 20.1-31.5 17.6z"/><path d="M201.8 367.7c0-14.8-.2-29.4.1-43.9.1-7.1 6.3-12.1 13.9-12.1h72.1c8.8.1 14.3 5.6 14.3 14.4v41.7c-33.5-.1-66.8-.1-100.4-.1zm-25.7 37.7v-17.5h149v17.5h-149z"/></g></svg>
