<svg xmlns="http://www.w3.org/2000/svg" width="500" height="500" viewBox="0 0 500 500"><path fill="#FFF" d="M250 500.5C112.5 500.5.6 388.3.6 250.3S112.5 0 250 0s249.4 112.3 249.4 250.3S387.5 500.5 250 500.5zm0-473c-122.4 0-222 99.9-222 222.8S127.6 473 250 473s222-99.9 222-222.8S372.4 27.5 250 27.5z"/><g fill="#FFF"><path d="M206.1 251.2c-7-6.9-13.6-12.8-19.4-19.4-9.4-10.5-17.6-21.9-20.8-35.9-1.4-6.1-1.5-12.5-1.7-18.8-.3-9-.1-18 0-27 0-3-1-4.3-4.1-4.1-2.1.1-4.4.2-6.5-.2-5.6-1-8.9-5.4-8.9-11 .1-5.6 3.7-9.7 9.3-10.6 1.3-.2 2.7-.2 4-.2h183.9c6.8 0 11.2 2.7 12.7 7.5 2.3 7.6-2.8 14.2-11.1 14.6-10.3.4-10.2.4-10.3 10.8 0 10 .4 20-.3 30-1.2 17.1-10.2 30.8-20.8 43.4-5.3 6.3-11.5 12-17.4 17.8-2.4 2.3-1.3 3.5.6 5.1 11.1 9.2 20.5 20 28 32.3 6.5 10.6 10.1 22 9.9 34.6-.1 10 .1 20-.1 30 0 3.4 1.1 4.9 4.6 4.6 2.3-.2 4.7-.2 7 0 6.4.7 10.4 5.2 10.2 11.4-.1 5.9-4.2 10.1-10.5 10.6-1 .1-2 0-3 0H158c-8.2 0-12.8-3.3-13.4-9.7-.6-6.5 3.2-11.4 9.7-12.3 1.1-.2 2.4-.3 3.5-.1 5.3.9 6.5-1.6 6.3-6.5-.4-6.6.4-13.4-.2-20-2-22.6 7.2-40.9 21.7-57.1 6.3-6.9 13.4-13 20.5-19.8zM250.2 146c-20.7 0-41.3.1-62-.1-3.4 0-4.7 1-4.6 4.5.2 10.2-.5 20.4.3 30.5.4 6.3 1.8 13 4.4 18.7 8 17.5 21.8 30.4 36.5 42.4 6.8 5.5 6.6 11 .3 17.1-9.5 9.1-19 18.1-27.6 28-7.9 9.1-13.8 19.7-13.8 32.4 0 10 .1 20-.1 30-.1 3.6.8 5 4.7 5 41.1-.1 82.3-.1 123.4 0 3.5 0 4.6-1.2 4.5-4.7-.2-9.7-.2-19.3 0-29 .2-9.5-2.7-18.1-7.5-26-8.5-14.2-20.1-25.6-33.3-35.5-7.3-5.5-7.2-10.9-.4-17.2 8.1-7.4 16.2-14.9 23.5-23 11.9-13.1 19.4-28.1 17.7-46.6-.7-7.1-.3-14.3 0-21.5.2-4-1.3-5.1-5.1-5-20.3.1-40.6 0-60.9 0z"/><path d="M196.1 171.7h18.8c28.2 0 56.3.1 84.5-.1 3.6 0 4.6.8 4.9 4.6.9 10.1-3.2 18.1-9.8 24.7-14 14-28.5 27.5-42.9 41.1-.9.9-3.7 1.2-4.5.6-16.4-13.4-32.6-26.9-45.2-44.3-5.7-7.9-7.1-16.5-5.8-26.6zm53.5 169.8c-17 0-34-.1-51 .1-3.6 0-4.6-1-5-4.7-.8-7.7 1.9-12.8 9-15.8 15.2-6.4 30.3-12.9 45.4-19.2.8-.3 2-.4 2.8-.1 16.3 6.8 32.6 13.3 48.6 20.6 6.4 2.9 8.7 10.3 6.3 17-.4 1.1-3.1 2-4.7 2-17 .1-34.2.1-51.4.1z"/></g></svg>
