<svg xmlns="http://www.w3.org/2000/svg" width="933" height="1000" viewBox="0 0 933 1000"><path fill="#FFF" d="M932.5 317.3L790 452.3l-3.8 3.8c31.7 35.8 47.5 76.3 47.5 121.3 0 50-17.9 92.9-53.8 128.8S701.1 760 651.1 760H510l-41.3 208.8h-52.5l-41.2-209H260c-45.8 0-85-16.3-117.5-48.8L8.8 577.3 105 481c-31.7-14.2-57.1-36-76.3-65.6C9.6 385.8 0 353.1 0 317.3c0-50 17.9-92.9 53.8-128.7s78.8-53.8 128.8-53.8H365v-26.3c0-20.8 7.5-39 22.5-54.4s33.3-23.1 55-23.1 40.2 7.7 55.6 23.1c15.4 15.4 23.1 33.5 23.1 54.4v26.3h151.3c45 0 83.8 15.4 116.3 46.3l143.7 136.2zM651.3 656c20.8 0 39-7.7 54.4-23.1s23.1-34 23.1-55.6-7.7-40-23.1-55-33.5-22.5-54.4-22.5H260c-17.5 0-32.1 5.8-43.8 17.5l-60 60 60 60c12.5 12.5 27.1 18.8 43.8 18.8h391.3zm66.2-278.7l63.8-60-63.8-60c-12.5-12.5-27.5-18.7-45-18.7h-490c-21.7 0-40.2 7.7-55.6 23.1-15.4 15.4-23.1 34-23.1 55.6 0 20.8 7.7 39 23.1 54.4 15.4 15.4 34 23.1 55.6 23.1h490c18.3 0 33.3-5.9 45-17.5z"/></svg>
