<svg height="300" viewBox="0 0 300 300" width="300" xmlns="http://www.w3.org/2000/svg"><path d="M151.123 14.8c-74.557 0-134.998 60.44-134.998 135.002 0 74.554 60.44 134.998 134.998 134.998 74.56 0 135.002-60.443 135.002-134.998 0-74.56-60.443-135.002-135.002-135.002zm0 250.914c-64.013 0-115.91-51.9-115.91-115.912 0-64.018 51.897-115.91 115.91-115.91 64.02 0 115.912 51.893 115.912 115.91 0 64.01-51.893 115.912-115.912 115.912z" fill="#D77E47"/><circle cx="151.125" cy="149.802" fill="#D77E47" r="104.431"/><path d="M139.156 93.922c3.02-2.79 6.638-4.183 10.83-4.183 4.194 0 7.784 1.39 10.792 4.18 2.996 2.8 4.496 6.16 4.496 10.09 0 3.93-1.517 7.28-4.54 10.05-3.02 2.77-6.602 4.15-10.75 4.15-4.182 0-7.8-1.38-10.828-4.15-3.024-2.77-4.536-6.12-4.536-10.05 0-3.93 1.512-7.29 4.536-10.09zm37.448 115.938h-49.046v-5.66c1.347-.1 2.663-.236 3.962-.39 1.287-.16 2.402-.412 3.33-.777 1.664-.612 2.823-1.515 3.504-2.678.666-1.163 1.01-2.7 1.01-4.616v-45.18c0-1.81-.416-3.4-1.238-4.77-.83-1.38-1.87-2.49-3.108-3.31-.926-.62-2.346-1.22-4.227-1.79-1.88-.57-3.6-.92-5.15-1.08v-5.66l38.03-2.02 1.16 1.16v61.62c0 1.81.4 3.34 1.16 4.61.78 1.27 1.89 2.21 3.34 2.83 1.04.46 2.19.88 3.42 1.24 1.25.36 2.54.61 3.89.77v5.67h-.01z" fill="#FFF"/></svg>
