<svg xmlns="http://www.w3.org/2000/svg" width="990" height="1000" viewBox="0 0 990 1000"><path fill="#D63647" d="M966.3 178.8c15.8 15.8 23.8 34.2 23.8 55s-7.9 39.2-23.8 55l-185 185v468.8c0 14.2-5.2 26.5-15.6 36.9S742.9 995 728.8 995H52.5c-14.2 0-26.5-5.2-36.9-15.6S0 956.7 0 942.5V266.3c0-14.2 5.2-26.5 15.6-36.9s22.7-15.6 36.9-15.6h468.8l185-185C722.1 12.9 740.4 5 761.3 5s39.2 7.9 55 23.8l150 150zM442.5 665L770 337.5 657.5 225 330 552.5 442.5 665zm-133.7-68.7l3.8 86.3 88.8 3.8-92.6-90.1zm368.7 295V578.8l-166.3 160c-13.3 13.3-34.4 24.6-63.1 33.8s-55.6 13.8-80.6 13.8H208.8V627.5c0-27.5 3.8-55 11.3-82.5s17.9-47.9 31.3-61.3l165-166.3H103.8v573.8h573.7zm130-590l67.5-67.5L761.3 120l-67.5 67.5 113.7 113.8z"/></svg>
