<svg xmlns="http://www.w3.org/2000/svg" xmlns:xlink="http://www.w3.org/1999/xlink" width="50" height="42.1" viewBox="0 0 50 42.1"><defs><path id="a" d="M-1808.4 3408.5c9.9-5.9 17.5-15.3 21-26.5-9.2 5.5-19.5 9.5-30.4 11.6-8.7-9.3-21.1-15.1-34.9-15.1-30.9 0-53.6 28.8-46.6 58.7-39.7-2-75-21-98.6-50-12.5 21.5-6.5 49.6 14.8 63.8-7.8-.2-15.2-2.4-21.7-6-.5 22.2 15.4 42.9 38.4 47.5-6.7 1.8-14.1 2.3-21.6.8 6.1 19 23.7 32.8 44.7 33.2-20.1 15.8-45.4 22.8-70.8 19.8 21.2 13.6 46.3 21.5 73.3 21.5 88.8 0 138.9-75 135.9-142.2 9.3-6.7 17.4-15.2 23.9-24.8-8.5 4-17.7 6.5-27.4 7.7z"/></defs><use xlink:href="#a" overflow="visible" fill-rule="evenodd" clip-rule="evenodd" fill="#FFF"/><defs><path id="b" d="M-1808.4 3408.5c9.9-5.9 17.5-15.3 21-26.5-9.2 5.5-19.5 9.5-30.4 11.6-8.7-9.3-21.1-15.1-34.9-15.1-30.9 0-53.6 28.8-46.6 58.7-39.7-2-75-21-98.6-50-12.5 21.5-6.5 49.6 14.8 63.8-7.8-.2-15.2-2.4-21.7-6-.5 22.2 15.4 42.9 38.4 47.5-6.7 1.8-14.1 2.3-21.6.8 6.1 19 23.7 32.8 44.7 33.2-20.1 15.8-45.4 22.8-70.8 19.8 21.2 13.6 46.3 21.5 73.3 21.5 88.8 0 138.9-75 135.9-142.2 9.3-6.7 17.4-15.2 23.9-24.8-8.5 4-17.7 6.5-27.4 7.7z"/></defs><use xlink:href="#b" overflow="visible" fill-rule="evenodd" clip-rule="evenodd" fill="#FFF"/><defs><path id="c" d="M42.5 7.6c2-1.2 3.5-3.2 4.2-5.5-1.8 1.1-3.9 2-6 2.4-1.7-1.9-4.2-3.1-6.9-3.1-6.1 0-10.6 6-9.2 12.1C16.7 13.1 9.7 9.2 5 3.2 2.6 7.7 3.7 13.5 8 16.4c-1.6-.1-3-.5-4.3-1.2-.1 4.6 3 8.9 7.6 9.8-1.3.4-2.8.5-4.3.2 1.2 3.9 4.7 6.8 8.8 6.9-4 3.3-9 4.7-14 4.1C6 39 11 40.6 16.3 40.6c17.6 0 27.5-15.5 26.9-29.4C45.1 9.8 46.7 8 48 6.1c-1.7.7-3.5 1.3-5.5 1.5z"/></defs><use xlink:href="#c" overflow="visible" fill-rule="evenodd" clip-rule="evenodd" fill="#FFF"/></svg>
