<?xml version="1.0" encoding="utf-8"?>
<!-- Generator: Adobe Illustrator 18.0.0, SVG Export Plug-In . SVG Version: 6.00 Build 0)  -->
<!DOCTYPE svg PUBLIC "-//W3C//DTD SVG 1.1//EN" "http://www.w3.org/Graphics/SVG/1.1/DTD/svg11.dtd" [
	<!ENTITY ns_flows "http://ns.adobe.com/Flows/1.0/">
	<!ENTITY ns_extend "http://ns.adobe.com/Extensibility/1.0/">
	<!ENTITY ns_ai "http://ns.adobe.com/AdobeIllustrator/10.0/">
	<!ENTITY ns_graphs "http://ns.adobe.com/Graphs/1.0/">
]>
<svg version="1.1" id="Layer_1" xmlns:x="&ns_extend;" xmlns:i="&ns_ai;" xmlns:graph="&ns_graphs;"
	 xmlns="http://www.w3.org/2000/svg" xmlns:xlink="http://www.w3.org/1999/xlink" xmlns:a="http://ns.adobe.com/AdobeSVGViewerExtensions/3.0/"
	 x="0px" y="0px" width="50px" height="50px" viewBox="0 0 50 50" enable-background="new 0 0 50 50" xml:space="preserve">
<g>
	<g>
		<path fill="#D1E39B" d="M9.9,18.1v19.7c0,0.5,0.3,0.9,0.8,1.1l8.4,2.8v-22l-7.7-2.6C10.7,16.8,9.9,17.4,9.9,18.1L9.9,18.1z
			 M9.9,18.1"/>
	</g>
	<path fill="#D1E39B" d="M32,27.2c-0.3,0.3-0.7,0.6-1.2,0.7v10.7l7.7,2.6c0.7,0.2,1.5-0.3,1.5-1.1V20.5c0-0.5-0.3-0.9-0.8-1.1
		l-1.6-0.5c-0.4,1-0.9,2.1-1.7,3.3C35,23.7,33.6,25.5,32,27.2L32,27.2z M32,27.2"/>
	<path fill="#D1E39B" d="M28.5,27.2c-1.5-1.6-2.9-3.4-3.9-5c-0.8-1.2-1.4-2.4-1.7-3.3l-2.4,0.8v22l9.2-3.1V27.8
		C29.2,27.7,28.8,27.5,28.5,27.2L28.5,27.2z M28.5,27.2"/>
	<path fill="#D1E39B" d="M30.2,8.3L30.2,8.3c-3.7,0-6.8,3-6.9,6.7c0,0.6,0.1,1.3,0.2,1.9c0.1,0.3,0.2,0.7,0.3,1
		c0.6,1.7,1.6,3.3,2.8,4.8c0.7,1,2.3,3.5,3.6,3.5c1.4,0,3.1-2.8,3.8-3.8c1-1.4,2-2.8,2.6-4.4c0.1-0.4,0.2-0.7,0.3-1
		c0.1-0.5,0.2-1.1,0.2-1.7C37.1,11.4,34,8.3,30.2,8.3L30.2,8.3z M30.8,18.6c-0.2,0-0.4,0-0.6,0c-0.2,0-0.5,0-0.7-0.1
		c-1.1-0.2-2-0.9-2.5-1.8c-0.3-0.5-0.5-1.1-0.5-1.8c0-2,1.6-3.6,3.6-3.6c2,0,3.6,1.6,3.6,3.6c0,0.6-0.2,1.3-0.5,1.8
		C32.9,17.8,31.9,18.5,30.8,18.6L30.8,18.6z M30.8,18.6"/>
</g>
</svg>
