<svg xmlns="http://www.w3.org/2000/svg" width="150" height="150" viewBox="0 0 150 150"><path fill="#FFF" d="M70.8 81.7l.7-.7 52.8-53.1c1.6-1.6 4.1-1.6 5.7 0 1.6 1.6 1.6 4.1 0 5.7L73.6 90.3c-1.6 1.6-4.1 1.6-5.6 0L53.9 76.1c-1.6-1.6-1.6-4.1 0-5.7s4.1-1.6 5.6 0l11.3 11.3z"/><path fill="#185A49" d="M65 11.5C30.1 17 6.4 50 11.9 85.1s38.3 59 73.1 53.4c28.6-4.6 50.4-27.8 53.5-56.4.6-5.7.5-11.4-.4-17.2-.3-2.2-2.4-3.7-4.6-3.3-2.2.3-3.7 2.4-3.3 4.6.8 5 .9 10.1.4 15-2.7 25-21.8 45.4-46.8 49.3-30.5 4.9-59.1-16.1-64-46.8C15 53 35.8 24.2 66.3 19.3c11.2-1.8 22.5-.1 32.5 4.6 2 .9 4.4.1 5.3-1.9s.1-4.4-1.9-5.3C90.7 11.4 77.8 9.5 65 11.5z"/></svg>
