<svg xmlns="http://www.w3.org/2000/svg" xmlns:xlink="http://www.w3.org/1999/xlink" width="21.5" height="42.1" viewBox="0 0 21.5 42.1"><defs><path id="a" d="M-1808.4 3408.5c9.9-5.9 17.5-15.3 21-26.5-9.2 5.5-19.5 9.5-30.4 11.6-8.7-9.3-21.1-15.1-34.9-15.1-30.9 0-53.6 28.8-46.6 58.7-39.7-2-75-21-98.6-50-12.5 21.5-6.5 49.6 14.8 63.8-7.8-.2-15.2-2.4-21.7-6-.5 22.2 15.4 42.9 38.4 47.5-6.7 1.8-14.1 2.3-21.6.8 6.1 19 23.7 32.8 44.7 33.2-20.1 15.8-45.4 22.8-70.8 19.8 21.2 13.6 46.3 21.5 73.3 21.5 88.8 0 138.9-75 135.9-142.2 9.3-6.7 17.4-15.2 23.9-24.8-8.5 4-17.7 6.5-27.4 7.7z"/></defs><use xlink:href="#a" overflow="visible" fill-rule="evenodd" clip-rule="evenodd" fill="#FFF"/><defs><path id="b" d="M-1808.4 3408.5c9.9-5.9 17.5-15.3 21-26.5-9.2 5.5-19.5 9.5-30.4 11.6-8.7-9.3-21.1-15.1-34.9-15.1-30.9 0-53.6 28.8-46.6 58.7-39.7-2-75-21-98.6-50-12.5 21.5-6.5 49.6 14.8 63.8-7.8-.2-15.2-2.4-21.7-6-.5 22.2 15.4 42.9 38.4 47.5-6.7 1.8-14.1 2.3-21.6.8 6.1 19 23.7 32.8 44.7 33.2-20.1 15.8-45.4 22.8-70.8 19.8 21.2 13.6 46.3 21.5 73.3 21.5 88.8 0 138.9-75 135.9-142.2 9.3-6.7 17.4-15.2 23.9-24.8-8.5 4-17.7 6.5-27.4 7.7z"/></defs><use xlink:href="#b" overflow="visible" fill-rule="evenodd" clip-rule="evenodd" fill="#FFF"/><path fill-rule="evenodd" clip-rule="evenodd" fill="#FFF" d="M1.9 14.5V21h4v19.3h7.7V20.9H19l.6-6.5h-6v-3.7c0-1.5.3-2.1 1.8-2.1h4.2V1.9h-5.4c-5.8 0-8.3 2.5-8.3 7.4v5.2h-4z"/></svg>
