<?xml version="1.0" encoding="utf-8"?>
<!-- Generator: Adobe Illustrator 18.0.0, SVG Export Plug-In . SVG Version: 6.00 Build 0)  -->
<!DOCTYPE svg PUBLIC "-//W3C//DTD SVG 1.1//EN" "http://www.w3.org/Graphics/SVG/1.1/DTD/svg11.dtd" [
	<!ENTITY ns_flows "http://ns.adobe.com/Flows/1.0/">
	<!ENTITY ns_extend "http://ns.adobe.com/Extensibility/1.0/">
	<!ENTITY ns_ai "http://ns.adobe.com/AdobeIllustrator/10.0/">
	<!ENTITY ns_graphs "http://ns.adobe.com/Graphs/1.0/">
]>
<svg version="1.1" id="Layer_1" xmlns:x="&ns_extend;" xmlns:i="&ns_ai;" xmlns:graph="&ns_graphs;"
	 xmlns="http://www.w3.org/2000/svg" xmlns:xlink="http://www.w3.org/1999/xlink" xmlns:a="http://ns.adobe.com/AdobeSVGViewerExtensions/3.0/"
	 x="0px" y="0px" width="30px" height="30px" viewBox="0 0 30 30" enable-background="new 0 0 30 30" xml:space="preserve">
<g>
	<g>
	</g>
</g>
<path fill="#FFFFFF" d="M10,19.9h13.9c0.4,0,0.8-0.3,1-0.7l3-10.6c0.1-0.5-0.1-1-0.6-1.2c-0.1-0.1-0.3-0.1-0.4-0.1h-6.2H20h-5.6
	h-0.6H7.9L7,4.5C6.8,4.1,6.5,3.8,6,3.8H3.2c-0.5,0-1,0.4-1,1s0.4,1,1,1h2.2l4,12.2c-1.5,0.3-2.6,1.6-2.6,3.2c0,1.7,1.3,3.1,2.9,3.2
	c0.4,1.1,1.4,1.8,2.7,1.8c1.2,0,2.2-0.8,2.7-1.8h3.5c0.4,1.1,1.4,1.8,2.7,1.8c1.2,0,2.2-0.8,2.7-1.8h0.9c0.5,0,1-0.4,1-1s-0.4-1-1-1
	h-0.9c-0.4-1.1-1.4-1.9-2.7-1.9c-1.2,0-2.3,0.8-2.7,1.9H15c-0.4-1.1-1.4-1.9-2.7-1.9c-1.2,0-2.3,0.8-2.7,1.8
	c-0.5-0.1-0.9-0.6-0.9-1.2C8.8,20.5,9.3,19.9,10,19.9z M21.3,9.3h4.2l-0.5,1.6h-3.8V9.3z M21.3,12.9h3.2l-0.4,1.6h-2.8V12.9z
	 M21.3,16.4h2.2l-0.4,1.5h-1.8V16.4z M15.1,9.3h4.2v1.6h-4.2V9.3z M15.1,12.9h4.2v1.6h-4.2V12.9z M15.1,16.4h4.2v1.5h-4.2V16.4z
	 M13.1,17.9h-1.7l-0.5-1.5h2.2V17.9z M13.1,14.4h-2.9l-0.5-1.6h3.4V14.4z M9.1,10.9L8.6,9.3h4.6v1.6H9.1z M21.2,22.5
	c0.5,0,0.9,0.4,0.9,0.9c0,0.5-0.4,0.9-0.9,0.9c-0.5,0-0.9-0.4-0.9-0.9C20.3,22.9,20.7,22.5,21.2,22.5z M12.4,22.5
	c0.5,0,0.9,0.4,0.9,0.9c0,0.5-0.4,0.9-0.9,0.9c-0.5,0-0.9-0.4-0.9-0.9C11.5,22.9,11.9,22.5,12.4,22.5z"/>
</svg>
