<?xml version="1.0" encoding="utf-8"?>
<!-- Generator: Adobe Illustrator 18.0.0, SVG Export Plug-In . SVG Version: 6.00 Build 0)  -->
<!DOCTYPE svg PUBLIC "-//W3C//DTD SVG 1.1//EN" "http://www.w3.org/Graphics/SVG/1.1/DTD/svg11.dtd" [
	<!ENTITY ns_flows "http://ns.adobe.com/Flows/1.0/">
	<!ENTITY ns_extend "http://ns.adobe.com/Extensibility/1.0/">
	<!ENTITY ns_ai "http://ns.adobe.com/AdobeIllustrator/10.0/">
	<!ENTITY ns_graphs "http://ns.adobe.com/Graphs/1.0/">
]>
<svg version="1.1" id="Layer_1" xmlns:x="&ns_extend;" xmlns:i="&ns_ai;" xmlns:graph="&ns_graphs;"
	 xmlns="http://www.w3.org/2000/svg" xmlns:xlink="http://www.w3.org/1999/xlink" xmlns:a="http://ns.adobe.com/AdobeSVGViewerExtensions/3.0/"
	 x="0px" y="0px" width="30px" height="30px" viewBox="7.5 7.5 30 30" enable-background="new 7.5 7.5 30 30" xml:space="preserve">
<g>
	<path id="SVGID_1_" fill="#FFFFFF" d="M18.7,15.6c0-2.1,1.7-3.8,3.8-3.8s3.8,1.7,3.8,3.8s-1.7,3.8-3.8,3.8S18.7,17.8,18.7,15.6z
		 M27.9,15.6c0-3-2.4-5.4-5.4-5.4s-5.4,2.4-5.4,5.4s2.4,5.4,5.4,5.4S27.9,18.6,27.9,15.6z M32.5,31c0-5.5-4.5-10-10-10
		s-10,4.5-10,10v3c0,0.4,0.3,0.7,0.7,0.7c0.4,0,0.7-0.3,0.7-0.7v-3c0-4.6,3.8-8.4,8.4-8.4s8.4,3.8,8.4,8.4v3c0,0.4,0.3,0.7,0.7,0.7
		s0.7-0.3,0.7-0.7v-3H32.5z"/>
</g>
</svg>
