<svg xmlns="http://www.w3.org/2000/svg" width="128" height="128" viewBox="0 0 128 128"><path fill="#B0BEC5" d="M48 40c-17.7 0-32 14.3-32 32s14.3 32 32 32 32-14.3 32-32-14.3-32-32-32zm0 56c-13.2 0-24-10.8-24-24s10.8-24 24-24 24 10.8 24 24-10.8 24-24 24zm56-72H88v-8c0-4.4-3.6-8-8-8H48c-4.4 0-8 3.6-8 8v8H24C10.7 24 0 34.7 0 48v48c0 13.3 10.7 24 24 24h80c13.3 0 24-10.7 24-24V48c0-13.3-10.7-24-24-24zm16 72c0 8.8-7.2 16-16 16H24c-8.8 0-16-7.2-16-16V48c0-8.8 7.2-16 16-16h24V16h32v16h24c8.8 0 16 7.2 16 16v48z"/><path fill="#FFA000" d="M48 56c-8.8 0-16 7.2-16 16s7.2 16 16 16 16-7.2 16-16-7.2-16-16-16zm0 24c-4.4 0-8-3.6-8-8s3.6-8 8-8 8 3.6 8 8-3.6 8-8 8zm8-56h16v8H56v-8zm40 16c-8.8 0-16 7.2-16 16s7.2 16 16 16 16-7.2 16-16-7.2-16-16-16zm0 24c-4.4 0-8-3.6-8-8s3.6-8 8-8 8 3.6 8 8-3.6 8-8 8z"/></svg>
