<svg xmlns="http://www.w3.org/2000/svg" width="50" height="30" viewBox="0 0 50 30"><g fill="#FFF791"><path d="M40.7 30H9.3c-.3 0-.5-.2-.5-.5v-.3c0-.3.2-.5.5-.5h31.5c.3 0 .5.2.5.5v.3c-.1.3-.3.5-.6.5zm-2-15H11.3c-.7 0-1.2.5-1.2 1.2v10.5c0 .7.5 1.2 1.2 1.2h27.3c.7 0 1.2-.5 1.2-1.2V16.2c.1-.7-.5-1.2-1.1-1.2zM17.2 26c0 .5-.4.8-.9.8h-4.1c-.5 0-.9-.4-.9-.8v-9c0-.5.4-.8.9-.8h4.1c.5 0 .9.4.9.8v9zm14.6 0c0 .5-.4.8-.8.8H19c-.5 0-.8-.4-.8-.8v-9c0-.5.4-.8.8-.8h11.9c.5 0 .8.4.8.8v9zm6.9 0c0 .5-.4.8-.9.8h-4.1c-.5 0-.9-.4-.9-.8v-9c0-.5.4-.8.9-.8h4.1c.5 0 .9.4.9.8v9zM30 11h.5l-.3-.6m-12.1.6h.5l-.2-.6m7.2-.1h-.4v.6h.5c.2 0 .3-.1.3-.3-.1-.2-.2-.3-.4-.3z"/><path d="M40.7 13l-2.5-5c-.1-.3-.4-.4-.7-.4h-25c-.3 0-.6.2-.7.4l-2.5 5c-.3.5.1 1.1.7 1.1h30c.6 0 1-.6.7-1.1zm-25.8-1.7c0 .4-.3.6-.7.6-.3 0-.6-.1-.9-.3l.3-.3c.2.2.4.2.6.2.2 0 .3-.1.3-.2s-.1-.2-.4-.3c-.4-.1-.7-.2-.7-.6 0-.4.3-.6.7-.6.3 0 .5.1.8.3l-.2.3c-.2-.1-.4-.2-.5-.2-.2 0-.3.1-.3.2s.1.2.4.3c.3.1.6.2.6.6zm2.1.6h-.4v-.8h-.8v.8h-.4v-2h.4v.8h.8v-.9h.4v2.1zm2 0l-.2-.5h-.9l-.2.5h-.5l.9-2.1h.4l.9 2.1H19zm2.7 0h-.4l-.5-1.3-.5 1.3H20l-.7-2.1h.5l.4 1.4.5-1.4h.4l.5 1.4.4-1.4h.5l-.8 2.1zm2.6 0h-1.6v-2h1.5v.4h-1.1v.4h1v.4h-1v.4h1.1v.4zm1.6 0l-.4-.7h-.4v.7h-.4v-2h.9c.3 0 .5.1.6.2.1.1.2.3.2.5 0 .3-.2.5-.4.6l.5.7h-.6zm2.9 0h-.4v-1.3l-.6.9-.6-.9v1.3h-.4v-2h.5l.5.9.5-.9h.5v2zm2 0l-.2-.5h-.9l-.2.5H29l1-2.1h.4l.9 2.1h-.5zm1.5 0h-.4v-1.6h-.6v-.5H33v.4h-.6v1.7zm2.2 0l-.2-.5h-.9l-.2.5h-.5l.9-2.1h.4l.9 2.1h-.4zm1.6 0c-.6 0-1-.5-1-1 0-.6.4-1.1 1.1-1.1.4 0 .6.1.8.3l-.3.3c-.2-.1-.3-.2-.5-.2-.3 0-.6.3-.6.6s.2.6.6.6c.2 0 .4-.1.5-.2l.3.3c-.3.3-.5.4-.9.4z"/><path d="M33.6 11h.6l-.3-.6"/></g></svg>
