<svg xmlns="http://www.w3.org/2000/svg" width="30" height="30" viewBox="241 241 30 30"><path fill="#FFF" d="M268.8 254h-25.7c-.7 0-1.3.6-1.3 1.3l2.5 12.9c0 .7.6 1.3 1.3 1.3h20.7c.7 0 1.3-.6 1.3-1.3l2.5-12.9c0-.8-.6-1.3-1.3-1.3zm-20.2 11.3c0 .4-.3.7-.7.7-.4 0-.7-.3-.7-.7V258c0-.4.3-.7.7-.7.4 0 .7.3.7.7v7.3zm4.2 0c0 .4-.3.7-.7.7-.4 0-.7-.3-.7-.7V258c0-.4.3-.7.7-.7.4 0 .7.3.7.7v7.3zm3.8 0c0 .4-.3.7-.7.7-.4 0-.7-.3-.7-.7V258c0-.4.3-.7.7-.7.4 0 .7.3.7.7v7.3zm4.1 0c0 .4-.3.7-.7.7s-.7-.3-.7-.7V258c0-.4.3-.7.7-.7s.7.3.7.7v7.3zm4.1 0c0 .4-.3.7-.7.7s-.7-.3-.7-.7V258c0-.4.3-.7.7-.7s.7.3.7.7v7.3zm1.2-17.6c-.2-1.6-1.6-2.9-3.2-3.1h-2.9c-.1-.6-.6-1.1-1.2-1.1h-5.4c-.6 0-1.2.5-1.2 1.1-1.2 0-3.1 0-3.8.2-1.2.4-2.1 1.5-2.3 2.8-.3 1.8-.6 3.6-.9 5.5h1.3c.3-1.7.6-3.5.8-5.2.1-1 1-1.9 2-2h2.9c.1.5.6.9 1.2.9h5.4c.6 0 1.1-.4 1.2-.9h2.5c1.1 0 2.2.9 2.3 2 .3 1.7.6 3.5.8 5.2h1.3c-.2-1.9-.5-3.6-.8-5.4z"/></svg>
