<svg xmlns="http://www.w3.org/2000/svg" width="18.7" height="24" viewBox="0 0 18.7 24"><path d="M16.7 6c-.1-1.4-1.2-2.5-2.6-2.5H4.6C3.2 3.5 2.1 4.7 2 6h14.7zm-5-3.1c0-.6-.5-1-1-1H8c-.6 0-1 .5-1 1h4.7zM3.2 6.6v13.6c0 1.1.9 2 2 2h8.5c1.1 0 2-.9 2-2V6.6H3.2zm3.3 12.8c0 .4-.3.7-.7.7-.4 0-.7-.3-.7-.7V9.3c0-.4.3-.7.7-.7.4 0 .7.3.7.7v10.1zm3.6 0c0 .4-.3.7-.7.7-.4 0-.7-.3-.7-.7V9.3c0-.4.3-.7.7-.7.4 0 .7.3.7.7v10.1zm3.6 0c0 .4-.3.7-.7.7-.4 0-.7-.3-.7-.7V9.3c0-.4.3-.7.7-.7.4 0 .7.3.7.7v10.1z" fill="#FFF"/></svg>
