<svg xmlns="http://www.w3.org/2000/svg" width="12" height="12" viewBox="0 0 12 12"><path fill="#939597" d="M6 11.4c-1.4 0-2.8-.6-3.8-1.6C.5 8.1.1 5.6 1.2 3.5c.1-.2.3-.3.5-.2s.3.4.2.6c-.9 1.8-.6 3.9.8 5.4.9.9 2 1.4 3.3 1.4 1.2 0 2.4-.5 3.3-1.4s1.4-2 1.4-3.3c0-1.2-.5-2.4-1.4-3.3-.9-.8-2.1-1.3-3.3-1.3s-2.4.5-3.3 1.3c-.2.2-.4.2-.5 0-.2-.1-.2-.4 0-.5C3.2 1.2 4.6.6 6 .6s2.8.6 3.8 1.6 1.6 2.4 1.6 3.8-.6 2.8-1.6 3.8-2.4 1.6-3.8 1.6z"/><path fill="#939597" d="M7.9 7.9c-.1 0-.2 0-.2-.1L5.8 6.3c-.1-.1-.2-.2-.2-.3V2.9c0-.2.2-.4.4-.4s.4.2.4.4v2.9l1.8 1.4c.2.1.2.4.1.5-.2.2-.3.2-.4.2z"/></svg>
