<?xml version="1.0" encoding="utf-8"?>
<!-- Generator: Adobe Illustrator 18.0.0, SVG Export Plug-In . SVG Version: 6.00 Build 0)  -->
<!DOCTYPE svg PUBLIC "-//W3C//DTD SVG 1.1//EN" "http://www.w3.org/Graphics/SVG/1.1/DTD/svg11.dtd" [
	<!ENTITY ns_flows "http://ns.adobe.com/Flows/1.0/">
	<!ENTITY ns_extend "http://ns.adobe.com/Extensibility/1.0/">
	<!ENTITY ns_ai "http://ns.adobe.com/AdobeIllustrator/10.0/">
	<!ENTITY ns_graphs "http://ns.adobe.com/Graphs/1.0/">
]>
<svg version="1.1" id="Layer_1" xmlns:x="&ns_extend;" xmlns:i="&ns_ai;" xmlns:graph="&ns_graphs;"
	 xmlns="http://www.w3.org/2000/svg" xmlns:xlink="http://www.w3.org/1999/xlink" xmlns:a="http://ns.adobe.com/AdobeSVGViewerExtensions/3.0/"
	 x="0px" y="0px" width="30px" height="30px" viewBox="7.5 7.5 30 30" enable-background="new 7.5 7.5 30 30" xml:space="preserve">
<path fill="#FFFFFF" d="M23,35.8c-1.9,0-3.7-2.5-5-4.3c-0.2-0.3-0.4-0.6-0.6-0.8c-1.9-2.4-3.1-4.7-4-6.9c-0.2-0.5-0.4-1-0.4-1.5
	c-0.2-0.9-0.3-1.8-0.3-2.8c0.2-5.5,4.8-10,10.3-10c5.7,0,10.3,4.6,10.3,10.3c0,0.8-0.1,1.7-0.3,2.5c-0.1,0.4-0.2,1-0.4,1.5
	c-0.9,2.5-2.4,4.7-3.6,6.4c-0.2,0.2-0.4,0.5-0.6,0.8C27,32.9,25.1,35.8,23,35.8z M23,10.9c-4.8,0-8.8,3.9-9,8.7
	c0,0.8,0.1,1.6,0.2,2.4c0.1,0.4,0.2,0.9,0.4,1.3c0.8,2.1,2,4.2,3.8,6.5c0.2,0.2,0.4,0.5,0.7,0.8c0.9,1.3,2.7,3.8,3.9,3.8
	c1.3,0,3.1-2.7,4.2-4.2c0.2-0.4,0.4-0.7,0.6-0.9c1.2-1.6,2.7-3.8,3.4-6.1c0.2-0.5,0.3-1,0.4-1.3c0.2-0.7,0.3-1.5,0.3-2.2
	C31.9,14.9,27.9,10.9,23,10.9z M23,25.3c-0.4,0-0.7-0.1-1-0.1c-1.7-0.3-3.1-1.3-3.9-2.8c-0.5-0.8-0.7-1.8-0.7-2.8
	c0-3.1,2.6-5.7,5.7-5.7s5.7,2.6,5.7,5.7c0,1-0.2,1.9-0.7,2.8C27.2,24,25.7,25,24,25.3C23.6,25.3,23.3,25.3,23,25.3z M23,15.2
	c-2.4,0-4.4,1.9-4.4,4.4c0,0.7,0.2,1.5,0.5,2.1c0.7,1.1,1.8,1.9,3,2.2c0.5,0.1,1,0.1,1.5,0c1.3-0.2,2.5-1,3.1-2.2
	c0.4-0.7,0.5-1.4,0.5-2.1C27.4,17.2,25.4,15.2,23,15.2z"/>
</svg>
