<svg xmlns="http://www.w3.org/2000/svg" width="512" height="512" viewBox="0 0 512 512"><path fill="#BCBEC0" d="M175.8 112.3c0-44.3 35.9-80.2 80.2-80.2s80.2 35.9 80.2 80.2-35.9 80.2-80.2 80.2-80.2-35.9-80.2-80.2zm192.5 0C368.3 50.3 318 0 256 0S143.7 50.3 143.7 112.3 194 224.6 256 224.6s112.3-50.3 112.3-112.3zm96.2 320.8c0-115.2-93.3-208.5-208.5-208.5C140.9 224.6 47.5 318 47.5 433v63c0 8.9 7.2 16 16 16s16-7.2 16-16v-63c0-97.3 79.1-176.4 176.5-176.4 97.5 0 176.5 79 176.5 176.5v62.8c0 8.9 7.2 16 16 16s16-7.2 16-16v-62.8z"/></svg>
