<svg xmlns="http://www.w3.org/2000/svg" width="50" height="30" viewBox="0 0 50 30"><g fill="#D73648"><path d="M38.6 26.1c0 .7-.6 1.3-1.3 1.3-.7 0-1.3-.6-1.3-1.3 0-.7.5-1.2 1.2-1.2.8 0 1.4.5 1.4 1.2zm-17.2 0c0 .7-.6 1.2-1.3 1.2-.7 0-1.3-.6-1.3-1.3 0-.6.6-1.2 1.3-1.2.7.1 1.3.6 1.3 1.3z"/><path d="M43 24.9c-.4-3.4-3.7-7-7-7.5-1-.2-1.4-.7-1.7-1.6 1.4-.1 1.4-.1 1.4-1.5v-1.9c0-.5-.2-.7-.7-.7-1 0-1.7.3-2.3 1-.3-.2-.6-.6-.9-.6-.7.1-1.5.2-2.2.4-.1 0-.3.3-.3.5.1.2.3.4.4.4.4.1.9 0 1.3.1.3.1.7.3.8.5 1 3.1 1.6 6.2.6 9.4-.2.6-.4.8-1 .8h-5.2c-.3 0-.7-.1-.9-.4-.7-.7-.8-1.6-.4-2.5.5-1 1-1.9 2.2-2.1.7-.1 1-.3 1-1.1 0-.9-.7-.8-1.2-.9V9.6c1-.3 1.2-1.3.5-2.1H12.1c-.6 1.1-.4 1.8.6 2.2v7.5c-.3 0-.5.1-.7 0-.7 0-.9.4-.9 1 0 .7.3.9.9.9h5.2c0 .1 0 .3.1.4-.6.1-1.1.4-1.7.4H8.4v1.3h6.9c0 .4-.2.6-.4.7h-4.7v1.3h4.3c.1.4 0 .6-.2.7H6.9v1.3h7.4c.3.9 1 .9 1.7 1 .4 2.2 1.9 3.7 4 3.7 2 .1 3.6-1.3 4.2-3.8h9.1c.3 2.2 1.8 3.6 3.9 3.8 2 .1 3.5-1.2 4.3-3.8 1.4 0 1.7-.2 1.5-1.2zm-22.9 3.7c-1.4 0-2.5-1.1-2.6-2.4 0-1.4 1.1-2.5 2.5-2.5s2.6 1.1 2.6 2.5c.1 1.2-1.1 2.4-2.5 2.4zm17.2 0c-1.4 0-2.6-1.2-2.5-2.5 0-1.3 1.2-2.4 2.6-2.4 1.4 0 2.6 1.2 2.6 2.5-.1 1.3-1.3 2.4-2.7 2.4z"/></g></svg>
