<svg xmlns="http://www.w3.org/2000/svg" width="512" height="546.1" viewBox="0 0 512 546.1"><path fill="#FFF" d="M34.1 546.1h443.7c18.8 0 34.1-15.3 34.1-34.1V307.2c0-18.8-15.3-34.1-34.1-34.1H375.5c-18.8 0-34.1 15.3-34.1 34.1V34.1C341.3 15.3 326 0 307.2 0H204.8c-18.8 0-34.1 15.3-34.1 34.1v136.5c0-18.8-15.3-34.1-34.1-34.1H34.1C15.3 136.5 0 151.8 0 170.7V512c0 18.8 15.3 34.1 34.1 34.1zm0-34.1v-68.3h34.1V512H34.1zm34.2-204.8v34.1H34.1v-34.1h34.2zm-34.2-34.1V239h34.1v34.1H34.1zm34.2 102.4v34.1H34.1v-34.1h34.2zm34.1-34.2v-34.1h34.1v34.1h-34.1zm34.1 34.2v34.1h-34.1v-34.1h34.1zm-34.1-102.4V239h34.1v34.1h-34.1zm0 238.9v-68.3h34.1V512h-34.1zm34.1-307.2h-34.1v-34.1h34.1v34.1zm-68.2 0H34.1v-34.1h34.1v34.1zM273.1 512v-68.3h34.1V512h-34.1zm-34.2-341.3v34.1h-34.1v-34.1h34.1zm-34.1-34.2v-34.1h34.1v34.1h-34.1zm34.1 102.4V273h-34.1v-34.1h34.1zm0 68.3v34.1h-34.1v-34.1h34.1zm0 68.3v34.1h-34.1v-34.1h34.1zm34.2-34.2v-34.1h34.1v34.1h-34.1zm34.1 34.2v34.1h-34.1v-34.1h34.1zm-34.1-102.4V239h34.1v34.1h-34.1zm0-68.3v-34.1h34.1v34.1h-34.1zm0-68.3v-34.1h34.1v34.1h-34.1zm34.1-68.2h-34.1V34.1h34.1v34.2zm-68.3 0h-34.1V34.1h34.1v34.2zm-34.1 375.4h34.1V512h-34.1v-68.3zm204.8-34.1h-34.1v-34.1h34.1v34.1zm34.1-34.1h34.1v34.1h-34.1v-34.1zm0 68.2h34.1V512h-34.1v-68.3zm34.2-102.4h-34.1v-34.1h34.1v34.1zm-68.3 0h-34.1v-34.1h34.1v34.1zm-34.1 102.4h34.1V512h-34.1v-68.3z"/></svg>
