<svg xmlns="http://www.w3.org/2000/svg" width="512" height="512" viewBox="0 0 512 512"><g fill="#BCBEC0"><path fill-rule="evenodd" clip-rule="evenodd" d="M256 320c-8.8 0-16 7.2-16 15.9v64.3c0 8.8 7.1 15.9 16 15.9 8.8 0 16-7.2 16-15.9v-64.3c0-8.8-7.1-15.9-16-15.9z"/><path d="M256 480c61.9 0 112-50.1 112-112s-50.1-112-112-112-112 50.1-112 112 50.1 112 112 112zm-80-231.8V79.9C176 35.8 211.8 0 256 0c44.1 0 80 35.9 80 80.1v168.2c38.6 25.8 64 69.8 64 119.8 0 79.5-64.5 144-144 144s-144-64.5-144-144c0-50 25.4-94 64-119.9zm128-16V80.1c0-26.5-21.6-48.1-48-48.1-26.5 0-48 21.4-48 47.9v152.3c15-5.3 31.2-8.2 48-8.2s33 2.9 48 8.2z"/></g></svg>
