<svg xmlns="http://www.w3.org/2000/svg" width="937.5" height="1000" viewBox="0 0 937.5 1000"><path fill="#FFF" d="M913.3 547.9c-15.8 15.8-34.7 23.7-56.9 23.7h-344l105.4 104.9c15.6 15.9 23.4 35 23.4 57.1s-7.8 41-23.4 56.6c-15.6 15.6-34.6 23.4-56.9 23.4-22.3 0-41.2-7.8-56.9-23.4L262 547.7c-15.9-15.6-23.9-34.5-23.9-56.6s8-41 23.9-56.6l247-248c15.6-15.6 34.6-23.4 56.9-23.4s41.4 7.8 57.3 23.4c15.6 15.9 23.4 35 23.4 57.1s-7.8 41-23.4 56.6L512.4 411h344c22.1 0 41.1 7.8 56.9 23.4C929.1 450 937 468.9 937 491s-7.9 41.1-23.7 56.9zm-558 340.3c0 22.1-7.9 41.1-23.7 56.9s-34.7 23.7-56.9 23.7H203c-56 0-103.8-19.8-143.5-59.3C19.8 869.9 0 822 0 765.8V233.9c0-56 19.8-103.6 59.3-143 39.5-39.4 87.4-59 143.7-59h71.7c22.1 0 41.1 7.8 56.9 23.4s23.7 34.5 23.7 56.6-7.9 41.1-23.7 56.9c-15.8 15.8-34.7 23.7-56.9 23.7H203c-11.7 0-21.7 4.1-30 12.2s-12.4 17.9-12.4 29.3v531.9c0 11.7 4.1 21.6 12.4 29.8 8.3 8.1 18.3 12.2 30 12.2h71.7c22.1 0 41.1 7.9 56.9 23.7s23.7 34.5 23.7 56.6z"/></svg>
