<svg xmlns="http://www.w3.org/2000/svg" width="200" height="320" viewBox="0 0 200 320"><path fill="#185A49" d="M121.6 97.6l4.8 2.4c8 5.6 16 11.2 23.2 16.8 5.6 4.8 6.4 7.2 2.4 12-5.6 8-8 8.8-13.6 4.8-8-5.6-16.8-11.2-24-17.6-1.6-1.6-4-6.4-3.2-8 2.4-4 4-9.6 10.4-10.4zM88.8 216c-4 1.6-8 2.4-12 4-7.2 2.4-14.4 4-21.6 6.4-3.2.8-4.8 0-4.8-3.2v-32c0-2.4.8-4 4-2.4 11.2 8 22.4 16.8 33.6 24.8 0 0 0 .8.8 2.4zM64 184c-4 0-6.4-3.2-5.6-6.4.8-1.6 1.6-2.4 2.4-3.2 12.8-16.8 25.6-33.6 37.6-51.2l.8-.8c1.6-2.4 4-4.8 7.2-2.4s2.4 4.8 0 8c-3.2 4.8-7.2 9.6-10.4 14.4-9.6 12.8-18.4 24.8-28 37.6-.8 1.6-2.4 3.2-4 4zm15.2 10.4c-4.8 0-7.2-3.2-4.8-7.2.8-1.6 1.6-3.2 3.2-4l36-48c.8-.8 1.6-2.4 2.4-3.2 2.4-.8 4.8-.8 7.2-.8 0 2.4 1.6 4.8 0 6.4-3.2 5.6-7.2 10.4-11.2 15.2l-28.8 38.4c-1.6 1.6-3.2 2.4-4 3.2zm60-49.6c-.8 2.4-1.6 4-3.2 4.8-12.8 17.6-25.6 34.4-38.4 52-2.4 2.4-4 4.8-8 2.4-3.2-2.4-1.6-5.6 0-8 12.8-17.6 25.6-35.2 39.2-52 1.6-1.6 4-2.4 6.4-3.2.8 0 2.4 2.4 4 4z"/></svg>
