<svg height="300" viewBox="0 0 300 300" width="300" xmlns="http://www.w3.org/2000/svg"><path d="M150.755 14.99c-74.78 0-135.402 60.624-135.402 135.41 0 74.78 60.623 135.412 135.402 135.412 74.787 0 135.414-60.632 135.414-135.413 0-74.79-60.63-135.41-135.42-135.41zm0 251.673c-64.204 0-116.262-52.055-116.262-116.264S86.553 34.14 150.755 34.14c64.21 0 116.26 52.05 116.26 116.26s-52.048 116.263-116.26 116.263z" fill="#BD3C27"/><path d="M255.508 150.4c0 57.848-46.897 104.742-104.75 104.742-57.85 0-104.74-46.894-104.74-104.743s46.89-104.75 104.74-104.75c57.852 0 104.75 46.89 104.75 104.74z" fill="#BD3C27"/><path d="M186.26 150.3l-35.657-61.574-35.505 61.67-35.498 61.68 71.164-.1 71.163-.103L186.26 150.3zm-26.46-27.09l-2.5 51.528h-12.965l-2.506-51.527h17.97zm-8.98 77.922h-.117c-6.022 0-10.125-4.44-10.125-10.354 0-6.143 4.208-10.358 10.242-10.358 6.022 0 10.01 4.212 10.12 10.358 0 5.912-3.982 10.354-10.12 10.354z" fill="#FFF"/></svg>
