<svg xmlns="http://www.w3.org/2000/svg" viewBox="0 0 37.5 37.5"><g fill="#FFF"><path d="M31.1 12.8c0 .3-.2.5-.5.5s-.5-.2-.5-.5.2-.5.5-.5.5.2.5.5zm-7.2 0c0 .3-.3.5-.5.5-.3 0-.5-.3-.5-.5 0-.3.3-.5.6-.5.2 0 .4.2.4.5z"/><path d="M33 12.3c-.2-1.4-1.6-2.9-3-3.2-.4-.1-.6-.3-.7-.7.6 0 .6 0 .6-.6V7c0-.2-.1-.3-.3-.3-.4 0-.7.1-1 .4-.1 0-.2-.1-.3-.1-.3 0-.6.1-.9.2-.1 0-.1.1-.1.2s.1.2.2.2h.5c.1 0 .3.1.3.2.4 1.3.7 2.6.3 4-.1.2-.2.3-.4.3H26c-.1 0-.3-.1-.4-.2-.3-.3-.4-.7-.2-1 .2-.4.4-.8.9-.9.3 0 .4-.1.4-.4 0-.4-.3-.3-.5-.4V6c.4-.1.5-.5.2-.9H20c-.2.5-.2.8.3.9v3.1H20c-.3 0-.4.1-.4.4 0 .3.1.4.4.4h2.2v.2c-.2.1-.5.1-.7.2h-3v.5h2.9c0 .2-.1.3-.2.3h-2v.5H21c0 .2 0 .3-.1.3h-3.1v.5h3.1c.1.4.4.4.7.4.2.9.8 1.5 1.7 1.6.9 0 1.5-.6 1.8-1.6h3.8c.1.9.7 1.5 1.6 1.6.8.1 1.5-.5 1.8-1.6.7 0 .8-.1.7-.5zm-9.6 1.6c-.6 0-1.1-.5-1.1-1 0-.6.5-1 1.1-1.1.6 0 1.1.5 1.1 1 0 .6-.6 1.1-1.1 1.1zm7.2 0c-.6 0-1.1-.5-1.1-1.1 0-.5.5-1 1.1-1 .6 0 1.1.5 1.1 1 0 .6-.5 1.1-1.1 1.1z"/></g><path fill="#1993C0" d="M26.1 0h11.4v9.6H26.1z"/><path fill="#44B764" d="M33.5 0H1l36.5 36.5V4c0-2.2-1.8-4-4-4z"/><g fill="#FFF"><path d="M32.7 15H19.3c-.1 0-.2-.1-.2-.2v-.1c0-.1.1-.2.2-.2h13.4c.1 0 .2.1.2.2v.1c0 .1-.1.2-.2.2zm-.9-6.4H20.1c-.3 0-.5.2-.5.5v4.5c0 .3.2.5.5.5h11.7c.3 0 .5-.2.5-.5V9.1c.1-.3-.2-.5-.5-.5zm-9.2 4.7c0 .2-.2.4-.4.4h-1.7c-.2 0-.4-.2-.4-.4V9.4c0-.2.2-.4.4-.4h1.7c.2 0 .4.2.4.4v3.9zm6.3 0c0 .2-.2.4-.4.4h-5.1c-.2 0-.4-.2-.4-.4V9.4c0-.2.2-.4.4-.4h5.1c.2 0 .4.2.4.4v3.9zm3 0c0 .2-.2.4-.4.4h-1.8c-.2 0-.4-.2-.4-.4V9.4c0-.2.2-.4.4-.4h1.8c.2 0 .4.2.4.4v3.9zm-3.8-6.4h.2l-.1-.3m-5.2.3h.2l-.1-.3m3.1-.1H26v.3h.2c.1 0 .1-.1.1-.1.1-.1 0-.2-.1-.2z"/><path d="M32.7 7.7l-1.1-2.1c-.1-.1-.2-.2-.3-.2H20.7c-.1 0-.2.1-.3.2l-1.1 2.1c-.1.2 0 .5.3.5h12.8c.3 0 .4-.3.3-.5zM21.6 7c0 .2-.1.3-.3.3-.1 0-.3 0-.4-.1l.2-.2c.1.1.2.1.3.1.1 0 .1 0 .1-.1 0 0 0-.1-.2-.1s-.3-.1-.3-.3c0-.2.1-.3.3-.3.1 0 .2 0 .3.1l-.1.1c-.1-.1-.2-.1-.2-.1-.1 0-.1 0-.1.1s0 .1.2.1c.1.2.2.2.2.4zm.9.2h-.2v-.3H22v.4h-.2v-.9h.2v.3h.4v-.3h.2v.8zm.9 0l-.1-.2h-.4l-.1.2h-.2l.4-.8h.2l.4.9h-.2zm1.2 0h-.2l-.2-.6-.2.6h-.2l-.3-.9h.2l.2.7.2-.6h.2l.2.6.2-.6h.2l-.3.8zm1.1 0H25v-.8h.7v.2h-.5v.2h.4V7h-.4v.2h.5zm.7 0l-.2-.2H26v.3h-.2v-.9h.4c.1 0 .2 0 .3.1 0 0 .1.1.1.2s-.1.2-.2.3l.2.3h-.2zm1.2 0h-.2v-.5l-.2.3-.2-.4v.6h-.2v-.8h.2l.2.4.2-.4h.2v.8zm.9 0l-.1-.2H28v.2h-.2l.4-.9h.2l.4.9h-.3zm.6 0h-.2v-.7h-.3v-.1h.7v.2H29v.6zm1 0L30 7h-.4l-.1.2h-.2l.4-.9h.2l.4.9h-.2zm.6.1c-.3 0-.4-.2-.4-.4s.2-.5.5-.5c.2 0 .3.1.3.1l-.1.1c-.1-.1-.1-.1-.2-.1s-.3.1-.3.3c0 .1.1.3.3.3.1 0 .2 0 .2-.1l.1.1c-.1.1-.2.2-.4.2z"/><path d="M29.7 6.9h.2l-.1-.3"/></g></svg>
