<svg xmlns="http://www.w3.org/2000/svg" width="500" height="500" viewBox="0 0 500 500"><path fill="#FFF" d="M250 500C112 500 0 388 0 250S112 0 250 0s250 112 250 250-112 250-250 250zm0-480C123.2 20 20 123.2 20 250s103.2 230 230 230 230-103.2 230-230S376.8 20 250 20z"/><circle fill="#FFF" cx="166.4" cy="161.5" r="31.5"/><circle fill="#FFF" cx="166.4" cy="252.1" r="31.5"/><circle fill="#FFF" cx="166.4" cy="342.7" r="31.5"/><path fill="#FFF" d="M226 147.5h176v17H226zm0 95.1h176v17H226zm0 95.1h176v17H226z"/></svg>
