<svg width="29" height="29" viewBox="0 0 29 29" xmlns="http://www.w3.org/2000/svg"><g fill="none" fill-rule="evenodd"><rect fill="#8E8E93" width="29" height="29" rx="6"/><path d="M14.505 7C9.252 7 5 10.455 5 14.715c0 1.535.554 2.965 1.505 4.165.045.045.144.19.178.245 0 0-.05-.08-.054-.095.11.165.17.355.17.56 0 .07-.89 2.9-.89 2.9-.07.22.1.445.37.5.04.01.08.01.12.01.06 0 .12-.01.18-.025l.07-.03 2.5-1.1c.04-.02.44-.175.49-.195l.03-.01-.03.01c.17-.06.36-.09.56-.09.18 0 .35.025.51.075 0 0 .01 0 .01.005.02.01.05.015.07.025 1.14.395 2.4.515 3.72.515 5.25 0 9.45-3.205 9.45-7.465C24.01 10.455 19.75 7 14.5 7z" fill="#FFF"/></g></svg>
