<svg width="29" height="29" viewBox="0 0 29 29" xmlns="http://www.w3.org/2000/svg"><g fill="none" fill-rule="evenodd"><rect fill="#8E8E93" width="29" height="29" rx="6"/><path d="M20.87 20.907c-.765-.274-1.863-.37-2.564-.523-.404-.09-.992-.315-1.188-.546-.196-.238-.077-2.43-.077-2.43s.37-.57.56-1.067c.2-.49.41-1.86.41-1.86s.41 0 .55-.7c.16-.77.39-1.09.37-1.67-.03-.53-.31-.56-.34-.56 0 0 .29-.8.34-2.51C18.96 7 17.41 5 14.5 5s-4.453 1.99-4.412 4.014c.036 1.704.333 2.517.333 2.517-.03 0-.3.03-.33.57-.03.58.22.89.36 1.66.14.71.55.71.55.71s.22 1.37.41 1.87c.2.51.56 1.07.56 1.07s.12 2.19-.08 2.43c-.19.24-.78.46-1.19.55-.71.16-1.8.26-2.56.53C7.37 21.18 5 22.1 5 24h19c0-1.9-2.363-2.82-3.13-3.093z" fill="#FFF"/></g></svg>
