<svg width="29" height="29" viewBox="0 0 29 29" xmlns="http://www.w3.org/2000/svg"><g fill="none" fill-rule="evenodd"><rect fill="#8E8E93" width="29" height="29" rx="6"/><g fill="#FFF"><path d="M14.5 4h-.025C8.685 4.015 4 8.71 4 14.5S8.685 24.985 14.475 25h.025C20.3 25 25 20.3 25 14.5S20.3 4 14.5 4zm0 20.162h-.025c-5.32-.015-9.637-4.336-9.637-9.662 0-5.326 4.31-9.647 9.637-9.657h.025c5.336 0 9.662 4.326 9.662 9.662 0 5.33-4.326 9.657-9.662 9.657z"/><path d="M17.847 10.25c-.944.227-1.918.363-2.923.393v3.438h3.413c-.03-1.41-.207-2.7-.49-3.83zM14.92 5.742v4.134c.933-.03 1.842-.15 2.715-.364-.66-2.09-1.69-3.462-2.716-3.77zm-3.58 3.765c.883.212 1.797.34 2.736.37V5.73c-1.025.3-2.07 1.672-2.736 3.777zm9.45-1.197c-1.14-1.16-2.6-2.008-4.235-2.397.747.773 1.373 1.954 1.822 3.398.843-.25 1.65-.59 2.413-1zm-1.68 5.77h4.204c-.09-1.958-.823-3.755-1.994-5.178-.863.474-1.777.863-2.73 1.15.307 1.212.49 2.58.52 4.03zm-8.472 0h3.443v-3.437c-1.01-.03-1.99-.166-2.94-.4-.29 1.127-.46 2.42-.49 3.838zm7.7.84H14.92v3.432c1.004.03 1.983.16 2.927.393.283-1.12.46-2.413.49-3.826zm-7.205 3.83c.95-.232 1.933-.368 2.948-.398V14.92h-3.44c.03 1.417.21 2.71.5 3.83zm2.947 4.513V19.12c-.938.03-1.857.155-2.74.368.666 2.105 1.71 3.483 2.74 3.775zm2.475-.176c1.635-.394 3.094-1.237 4.24-2.403-.762-.41-1.57-.742-2.413-1-.45 1.45-1.08 2.625-1.827 3.403zm-4.14-17.164c-1.62.394-3.07 1.237-4.205 2.393.757.404 1.555.737 2.388.99.45-1.44 1.075-2.61 1.817-3.383zm6.175 13.024c.958.288 1.872.677 2.735 1.15 1.17-1.422 1.903-3.22 1.994-5.178h-4.21c-.04 1.44-.22 2.81-.53 4.02zm-3.67.173v4.138c1.024-.308 2.054-1.68 2.715-3.776-.873-.212-1.782-.333-2.716-.363zm-4.53-9.072c-.948-.288-1.857-.672-2.71-1.146-1.17 1.423-1.903 3.22-1.994 5.18H9.87c.026-1.455.213-2.823.52-4.034zm-.524 4.872H5.68c.092 1.958.824 3.755 1.995 5.178.853-.47 1.762-.858 2.71-1.146-.302-1.21-.49-2.58-.52-4.033zm-1.66 5.764c1.135 1.156 2.584 2 4.21 2.393-.743-.773-1.37-1.95-1.818-3.388-.833.25-1.636.59-2.393.99z"/></g></g></svg>
