<svg xmlns="http://www.w3.org/2000/svg" viewBox="0 31.5 250 218.5"><path fill="#D73648" d="M246.7 113.8C214.2 49.2 107.7-.8 11 56.9c-18.3 11-8.1 31.3-8.1 31.7l37.4 63 10.6 19.1 8.9 8.1-8.5-18.7-4.9-10.6c-.4-.4-32.1-60.2-32.1-60.2-.4-.8-8.9-13.8 3.7-23.2 7.3-5.3 16.3-8.9 26-13 19.5-7.7 51.6-15 91.9-7.3 27.6 5.3 53.3 16.7 73.2 36.2 13 12.6 19.5 22 25.6 30.5 8.1 12.2 0 21.5-.4 22.4l-89 86.2s-3.3 3.7-9.8 3.3l-26 1.2h-8.9v1.6h8.9l25.6.4c3.7 0 6.1.4 9.3-1.2 6.1-2.8 98.8-88.2 98.8-88.2 2.3-2 11.3-8.5 3.5-24.4z"/><path fill="#0075BF" d="M235 111c-6.1-8.9-12.2-15.9-25.2-28.5-20.3-19.5-44.3-32.1-72.4-37.4-40.7-7.7-73.6-1.6-93.5 6.1-9.8 3.7-20.7 8.1-28 13.8-12.6 9.3-4.5 23.6-4.1 24.4l32.1 59.3 4.9 11.4 55.7 65.4h6.1l26-.8c6.9 0 9.3-3.3 9.3-3.3l47.2-44.7 42.3-41.1c4.8-5.9 2.8-19.3-.4-24.6z"/><path fill="#FFF200" stroke="#C95753" stroke-width=".75" d="M49.6 159.3l-2-4.1c1.6-2.4 3.7-4.9 5.7-7.3 1.6-1.6 3.7-3.7 5.3-4.9 10.6-8.5 26.8-13.8 39-15.9 6.9-3.3 18.7-2.8 18.7-2.8l7.3-22.4c.4-1.6.8-2.8.8-4.1v-.4c-.4-.8-.4-1.6-.4-2.4 0-1.2.4-2.4.8-3.3 1.2-2.4 3.7-4.1 6.5-4.5 3.7-.4 6.9.4 9.3 2.4 2.4 2 3.7 5.3 3.7 8.1v1.2c-.4 2.8-2 4.9-2.8 6.1 0 .4-6.9 13.8-11.4 23.6 0 0 7.3.4 17.1 13.4 25.2 12.6 36.2 48.8-1.6 65.4-11.5 18.6-34.6 17.4-34.6 17.4s-3.7 2-6.1 2h-7.7s-23.2 17.9-25.6 15c-.4-.4-6.9-.8-8.1-2.4-1.2-1.6-1.6-5.3 0-7.7-2-4.1-2.4-8.5-1.2-11.8.4-.4-1.6-3.3-2-7.7-.4-4.9.8-6.1.8-6.1-9.3-5.3-13.4-31.7-13.4-31.7-1.8-4.9 1.9-15.1 1.9-15.1m78.9-26.8c0-.4 0-.4 0 0 0-.4 0 0 0 0z"/><path fill="#D73648" d="M111.4 208.5c-6.1.4-12.2-.4-17.5-1.6-16.3-2.8-34.1-10.6-42.3-23.6-1.2-2-2-4.1-3.3-6.1-1.6-4.1-1.6-9.3-.8-12.6 2.8-12.2 16.7-24 32.5-28.9 1.6-.4 5.3-1.6 7.7-2 2.8-.8-.4 2-5.3 3.7-12.6 3.3-24 11.4-28 20.7-2 4.5-2 12.2.8 17.5 1.6 2.8 3.7 5.3 6.1 7.7 12.6 12.2 31.3 17.1 52.8 17.1 17.5 0 43.9-4.9 52.8-23.2-.2.8-3.5 29.3-55.5 31.3z"/><path fill="#D73648" d="M76 144.3c.4 0-2 2-3.7 4.1-2.8 4.1-4.9 8.9-2.8 15.4 4.1 11 13.4 15.9 23.2 19.9 10.6 4.5 30.9 6.5 45.9.8 6.5-2.4 11-5.7 15.4-9.8 4.1-4.1 6.9-11.8 3.3-19.1-1.2-2.8-3.3-4.5-4.9-6.9 1.2.4 2.4 2 3.7 2.8 4.9 4.9 10.6 13 6.9 22-4.1 9.3-13 13.8-24.8 17.5-3.3 1.2-13 3.3-24.4 2.4-16.7-1.2-31.3-5.3-41.5-15-5.7-5.7-11-14.2-6.5-23.6 1.6-3.3 4.1-6.1 6.9-8.1.9-1.2 2.1-2 3.3-2.4zm-13.8 61.8c4.5 2.4 7.7 4.1 10.2 4.9 8.5 3.3 18.7 4.5 29.7 4.9 9.8.4 19.9-1.2 24-2.4 8.1-2 12.6-4.5 13.8-4.9 0 .4-2 2.4-4.5 4.1-2.4 1.6-5.7 3.3-8.9 4.9-2.4.8-7.7 2.8-13 3.7-1.2 4.1-13 9.8-19.9 10.2 0 3.7-4.5 5.3-7.7 6.1-1.2.4-2 .4-3.3.8-4.5 10.6-17.9 7.7-19.5 1.2 1.2.4 1.6 1.2 3.7 1.6 3.7.8 10.2.8 11.4-2.4-7.7.4-13-2.8-13.4-5.7 4.9 2.4 11.4 2.8 19.1.8 2-.4 3.7-2 3.7-2-2.8 0-5.7-.4-8.1-1.2-5.7-1.2-13.8-4.1-15.4-9.8 2 1.2 2.8 1.6 5.3 2.8 6.9 3.3 18.3 4.9 28.9 1.6 2.8-.8 6.1-1.6 8.1-3.7-14.2-.4-24-2-33.7-7.3-4.4-2.1-8.9-4.5-10.5-8.2z"/><path fill="#D73648" d="M137.4 140.7c.8 1.2-.4 1.6.8 2 3.7 1.2 6.9 5.3 8.1 8.5 1.6 4.5 2.4 9.8-1.2 13.4-6.5 6.1-9.8 4.9-15 9.3-2.4 2-2 4.5-7.7 4.9-4.5.4-6.9-4.1-14.2-4.9-4.9-.4-8.5 1.6-15.9-8.1-3.7-4.9-5.3-1.6-8.9-4.9-5.7-4.5-.8-9.3 0-13.8.4-2 .4-4.1 1.6-6.1 1.2-2 3.3-3.7 5.3-4.9 2.4-1.2 5.3-2 7.7-2.8 1.2-.4 2.4-.4 3.3-.8.4 0 1.2 0 1.6-.4l.8-.8c-4.9 0-10.2-.4-15 1.6-3.3 1.2-6.1 3.3-7.3 6.5-.8 1.6-1.2 4.1-1.2 5.7 0 3.7-1.2 4.5-3.3 7.3-2 2.8-4.1 6.1-1.6 9.3 1.6 2 4.5 2.8 6.5 3.7 3.3 1.2 4.5 2 7.3 5.3 2 2.4.8 5.3 4.1 6.9 2.8 1.2 8.1.4 11 .8 8.9.8 11.4 6.5 18.7 6.5 8.5 0 10.2-8.5 16.3-11.8 5.3-2.8 11.4-4.1 13.8-10.6 2.3-6.4-3.4-21-15.6-21.8z"/><path fill="#D73648" d="M124.4 129.7l-2-.4-2.8 6.5-.4-.4 2-6.5c-.8 0-2.4-.4-3.3-.4-12.6-.8-23.2 6.1-24 15.4-.8 9.3 8.5 17.9 21.1 19.1 12.6.8 23.2-6.1 24-15.4.8-7.8-5.3-15.1-14.6-17.9z"/><path fill="#FFF200" d="M109.3 146.3c-.4.4 1.6.4 2 .4.8 0 2-.4 2.8-.8.4 0 .8-.4 1.2-.8l.8-.8c-.8 1.2-.8 2.4-.8 4.1.4 1.2.8 2.4 1.6 2.8 0 0 .8-1.2.8-1.6.4-.4 1.2-.8 1.2-1.2.8-1.2.4-2.8.4-3.3 0 .4 1.2 1.2 2.4 1.2.4 0 .8 0 2.4.8.8.4 1.2.4 1.6.4v-.8c-.4-.8-.4-1.2-.8-1.6-.8-1.2-2.8-2-3.7-2 .8-.4 1.6 0 2.4 0 .4 0 1.2 0 2-.4s1.2-.8 2-1.6c-.8 0-1.2-.4-1.6-.4-.8-.4-1.6-.8-3.3-.8-.8 0-1.2.4-2 .4 0-.4 0-2.4-.4-3.3-.8-2.4-2-3.3-2-4.1-.4.4-.8.8-.8 1.2-.4.8-.4 1.6-.8 2v2c0 .4.4.8.4.8-.4 0-.4-.4-.4-.4s-.4-.4-.8-.4c-.4-.4-1.2-.4-1.6-.8-.8 0-2 0-2.8.4-.8 0-1.6.4-2 .8h.8c.4 0 .8 0 1.2.4.8 0 1.2.4 1.6.8.4.4 1.2.8 1.6 1.2.4.4.8.4 1.2.8-.8 0-1.6.4-2.4.8-2.1 1.8-3.3 3-4.2 3.8z"/><path fill="#D73648" stroke="#FDE92B" stroke-width=".25" d="M138.2 92.3c-1.6-1.6-4.5-2-6.5-1.6-3.3.4-4.9 3.7-3.7 5.7V98c0 2-.4 3.7-.8 5.3-1.2 3.7-9.8 34.6-10.2 38.2 0 0 10.2-34.1 10.2-33.3-.8 2.4 1.2-4.9 2.8-6.9 1.2-2 3.7-2.8 5.7-3.7 0 0-2.8 0-4.1-.4-1.2-.8-1.6-2-1.2-2.8.4-.8 2-2.4 4.5-1.6s3.3 4.9 2 6.1c-1.2 1.2-2.4 1.6-5.7 9.3-1.2 3.3-2.8 6.9-6.1 13.8-3.3 6.5-7.7 19.9-7.7 19.9.8.4 1.2.4 1.2.4l19.5-39.4s2-2 2.4-4.5c.6-2.1-.7-4.9-2.3-6.1z"/><path fill="#D73648" d="M70.3 242.3l-4.1 6.1S65 250 63.8 250c-.8 0 0-2.8 0-2.8l3.3-5.7 3.2.8zM215.4 115c.4 0 .4-2.4.4-2.8.4-3.7-2.4-6.9-4.9-9.3-2.4-2.4-8.1-8.1-11 .8-2-1.2-4.5 1.2-4.9.8-1.2-1.2-2.4-2.4-4.1-3.7-.4-.4.8-2 1.6-2.8l.8-.8c.4.4 2 1.6 2.4 2 2.4 2 8.1-3.3 5.3-6.5l-2.4-2.4c1.2-1.2.4-.8 1.6-1.6 4.1-5.3-3.3-11-8.1-5.7-.8.4-3.3 4.1-3.7 2.8 0-2-1.2-5.7-4.5-8.1l-4.5-3.3c-1.2-.8-2.4-1.2-3.7-.8-1.2 0-2 .8-2.8 2-.4.8-.8 1.6-.8 2.4v.8c0 .4 0 .4.4.8-.4 0-1.6-.8-3.7.8.8-1.6 2.4-6.5 0-8.9-2.8-2.4-5.7-3.7-9.3-3.7-.8-1.2-2-4.5-8.1-4.5-.8-1.2-1.6-1.6-2.4-2-1.2-.4-4.1-.4-4.1-.8-.8-1.2-2-2-3.7-2.4-1.2-.4-2-.4-3.3 0-.4-.8-1.2-1.2-2.4-1.2-2.8-.8-5.7.8-6.1 3.7v.8c-1.2-3.3-3.7-6.5-8.5-7.7-5.3-.8-9.8 1.2-11.8 5.3v-.4c-.4-5.7-3.7-6.1-5.7-5.7-2 0-3.3 1.2-4.1 2.8-.8-1.2-2-2-4.5-2s-3.7 1.6-4.1 2.8c-.8-1.6-2.4-2-4.5-2-1.6 0-2.4.8-3.3 1.6-1.2 1.6-1.2 3.7-1.2 5.3v.4c-.8-1.2-1.6-2.4-2.8-2.8-2-1.2-4.9-1.2-8.5-.4l-5.3 1.6c-1.2.4-2.4 1.2-3.3 2.4-.4-.4-.8.4-.8 1.2V65c.4 1.2 1.2 2 2 2.8 0 0 .4 0 .8.4-.4.8-.8 1.2-1.2 1.6l-.4-1.6c-.8-2-2.4-3.7-4.1-4.5-2-.8-4.5-.8-6.9 0-.4 0-.8.4-1.2.8-.4-.4-.4-1.2-.4-1.2-.4-1.6-1.6-2.8-2.8-3.3-1.2-.4-2.4-.4-4.1 0-1.2.4-2.4 1.2-2.8 2.4-.8.8-.8 1.2-.8 2s0 1.2.4 2l2.8 7.7c-1.6-.8-3.3-1.2-4.9-1.2 1.2-.8 1.6-2 1.6-3.3 0-.8 0-1.2-.4-2-1.6-2.8-4.5-3.7-7.3-2.4l-6.5 3.3c-2.4 1.2-4.5 3.3-5.3 5.7-.8 2-.4 4.5.4 6.5 3.3 6.5 11 3.7 14.6 2.4 1.2 0 .8.4.4.8-1.6 1.1-6 3.1-6 3.1-2 1.2-3.3 2.8-3.3 4.9 0 .4.4.8.4 1.2.8 1.6 1.6 2.8 3.7 2.8h1.6c.8 0 1.2-.4 2-.8l6.1-2.8c4.1-2 6.1-4.5 6.9-7.7.4.8 1.2 1.2 2 1.6 1.2.4 2.4.4 4.1 0 1.2-.4 2.4-1.6 2.8-2.4.4-.8.4-1.6.4-2 0-.4 0-.8-.4-1.2 1.2 2.4 3.7 3.3 6.5 2.4.8-.4 1.6-.8 2-1.6.4-.4.4-.8.4-1.2V79c0-.4.4 0 .8.4 1.6.8 4.1.8 6.9 0 1.6-.4 3.3-1.2 4.5-2 0 0 2.4.4 3.3 0 2.8-.4 4.1-2 4.5-4.9 1.6 2.4 3.3 3.3 6.1 2.8 2.4 0 4.1-1.6 4.9-3.7 1.2 1.6 3.3 3.3 5.7 2.8 3.3-.4 5.7-2 6.5-5.3v.4c0 7.3 17.9 8.5 18.3 6.1-.4 2 8.1 6.5 9.8-1.2l1.6-6.9c.4 0 1.6.4 2.8.4l-1.6 6.5c-1.6 3.7-.4 5.7 2 7.3 1.6.8 4.5 1.2 6.1-.8.4 6.1 8.9 6.9 10.2 4.1 0 6.1 7.3 5.3 7.7 5.3.4 2 4.5 5.7 8.9 6.5-1.2 1.2 3.3 4.5 5.3 4.5 0 1.2 4.1 5.3 8.1 8.1 2.8 2 4.5 2.4 5.3 1.6-2 2 2.8 7.3 4.1 8.1 1.6 1.6 6.1 6.9 9.3 5.7-.8 1.2-1.2 4.1 1.6 8.5 1.2 2.4 2.8 3.7 4.5 5.7 3.7 3.7 7.7 0 8.1-2 0-2.8-2-4.1-3.3-6.1-.4-.8-1.6-2.4 0-3.3 1.2-.8 2.4.8 2.8 1.6 1.2 2 2.4 4.1 4.9 4.9 2.8.8 5.7-2 5.7-4.9 0-2.8-1.6-5.3-3.3-7.3-2.6-4-5.9-7.7-10.8-6.9z"/><path fill="#FFF200" d="M207.3 128.5c.4 1.6 1.2 3.7 2.4 5.3 2 2.8 4.1 4.9 6.1 3.7 1.6-1.2 1.2-2.4 0-4.5l-1.6-2.4c-1.6-2.4-2.4-4.5.4-6.5 2.4-2 4.9-.4 6.1 2l1.6 2.4c1.2 2 2.4 2.8 4.1 1.6 2-1.2 1.2-4.5-.8-6.9-1.6-2-2.8-3.7-4.9-4.5-6.5-2.8-14.6 4.1-13.4 9.8zM27.6 76c-.4-.8.4-1.2 1.2-1.6l5.3-2.4c1.6-.8 2.4-2 1.6-3.7-.8-1.6-2.4-1.6-4.1-1.2l-6.1 3.3C22 72 19.9 75.6 22 79.7c4.1 8.1 13.8-1.2 15.9 2.8.4.8.4 2.4-1.2 3.3l-7 3.2c-1.6.8-2.4 2-1.6 3.7s2.4 1.6 4.1 1.2l6.5-3.3c4.9-2.4 7.7-6.1 4.9-11.4-4.2-8.1-14.7-.7-16-3.2zm31.7-7.3c-1.2-3.3-4.9-4.5-8.1-2.8-1.2.4-2 1.6-3.3 2.4l-1.6-4.5c-.8-1.6-2-2.4-3.7-2-1.6.8-2 2.4-1.6 4.1l7 17c.8 1.6 2 2.4 3.7 2 1.6-.8 2-2.4 1.6-4.1L50.4 74c-.4-1.2 0-2.4 1.2-2.8 1.2-.4 2.4 0 2.8 1.2l2.8 6.9c.8 1.6 2 2.4 3.7 2 1.6-.8 2-2.4 1.6-4.1.1 0-3.2-8.5-3.2-8.5zm20-5.7c-1.2-4.1-4.9-4.5-8.9-3.3L65 61c-1.2.4-2 1.2-1.6 2.8.4 1.2 1.6 2 2.8 1.6l5.3-1.6c.8-.4 2-.4 2.4.4v.8l-.8.4c-4.1 1.2-10.2 3.3-8.5 8.9.8 3.3 3.7 4.9 7.7 3.7 2-.4 3.7-1.6 4.9-3.3.4.8 1.2 1.6 2.8 1.2 1.6-.4 2.4-1.6 1.6-3.3L79.3 63m-6.9 10.2c-1.2.4-2.4.4-2.8-.8-.4-2 2.8-3.3 5.3-4.1l.4 1.6c.7 2.1-1.7 2.9-2.9 3.3zm30.4-18.7c-1.6 0-2.4.8-2.4 2.8 0 3.3.4 6.1-.4 8.9-1.2-2.4-2-5.3-2.8-8.1-.4-1.6-.8-3.3-3.3-2.8-2.4 0-2.4 1.6-2.4 3.3 0 2.8-.4 5.7-1.2 8.5-1.2-2.8-1.6-5.7-2-8.9-.4-1.6-.8-2.4-2.8-2.4-2 0-2.8 1.6-2.4 4.1.4 3.3 2 13.8 7.3 13.4 3.7-.4 4.5-5.7 4.5-8.1.8 2.4 2.4 7.7 6.1 7.3 5.3-.4 5.3-11 4.9-14.6-.2-2.2-1-3.4-3.1-3.4zm16.3 1.2c-5.3-.4-9.3 2.8-9.8 8.1-.8 6.9 3.3 10.6 9.3 11 1.2 0 3.7.4 4.9-.4 1.2-.4 1.6-2.4 1.2-3.3-.8-1.6-4.5-.8-6.1-.8-2 0-3.7-1.6-3.7-4.1l8.9.8c2 0 2.4 0 2.4-2 1-4.4-1.4-8.9-7.1-9.3m2 7.3l-5.7-.4c0-1.6 1.2-2.8 3.3-2.8 2 0 2.8 1.2 2.4 3.2zm21.6.4c.8-2-.4-2.8-2.4-3.3-1.6-.4-2.8 0-4.1 1.2.4-1.6-.4-2.4-1.6-2.8-1.6-.4-2.8 0-3.3 2l-2.8 11.8c-.4 1.6.4 3.3 2 3.7 2 .4 3.3-.8 3.7-2.4l1.6-6.5c1.2-4.9 6.1.4 6.9-3.7zm21.1 6.9c-1.6-.8-3.7-.8-5.7 0-.8-1.6-1.6-4.1-3.7-4.9-1.6-.8-3.3-.4-4.9.4 0-.8 0-2-1.6-2.8-1.6-.4-2.8-.4-3.7 1.2l-4.5 11.4c-.8 1.6-.4 3.3 1.6 4.1 1.6.8 3.3-.4 3.7-2l2.8-6.9c.4-1.6 1.6-1.6 2.8-1.2 1.2.4 1.6 1.6 1.2 2.8l-2.8 6.9c-.8 1.6-.4 3.3 1.6 4.1 1.6.8 2.8.8 3.3-.8l2.8-6.9c.4-1.2 1.6-1.6 2.8-1.2 1.2.4 1.6 1.6 1.2 2.8l-2.4 6.9c-.8 1.6 0 2.4 2 2.8 1.6.8 2.8.8 3.3-.8l3.3-8.5c2.2-3.7-.2-6.6-3.1-7.4zm18.7 9l-4.1-2.8c-1.2-.8-2.4-.8-3.3.4-.8 1.2-.4 2.4.8 3.3l4.5 3.3c.8.4 1.6 1.2 1.2 2l-.4.4-.8-.8c-3.7-2.4-9.3-4.9-12.6-.4-2 2.8-1.2 4.9 2.4 7.7 1.6 1.2 3.3 2 5.7 1.6-1.2.8-1.2 2 0 2.8 1.2.8 2.4 2 3.3.4l5.7-7.7c2.9-3.3 1.3-7.4-2.4-10.2m-4.9 10.5c-.8 1.2-3.3.4-4.5-.4-1.2-.8-1.6-1.6-.8-2.8 1.2-1.6 4.1 0 6.5 1.6.1 0-1.2 1.6-1.2 1.6zm11.4 9.4c.8-.8 2-2.4 4.5-5.3l2.8 2.8c2 1.6 4.9-1.6 2.8-3.3-.8-.8-2-2-2.8-2.4.8-.8 1.6-1.6 2-2.4 3.3-3.7-1.6-6.9-4.5-3.7l-12.2 13.4c-.8.8-1.6 2-.8 3.3 1.2 1.2 6.1 5.3 6.9 6.1 2.4 2.4 5.7-1.6 4.1-3.3-1.2-1.2-2-2-3.3-2.8-.3-.8.1-1.6.5-2.4z"/><path fill="#FFF200" d="M238.2 115.4c-8.9-14.6-19.1-26.4-33.7-39-39-33.7-88.2-37.4-115-35.8-44.3 3.7-69.1 19.9-74 24C6.9 70.7 4.9 80.1 9.8 89c5.3 9.8 9.8 18.7 15 28.5 4.9 9.3 10.2 19.1 15 28.5 1.2 2 2 4.1 3.3 6.1l4.9 9.3 1.6-3.7-4.5-8.1L13 89.4C6.9 78 11.4 71.5 17.1 67.1c4.1-3.3 15.9-9.8 26-13.4 19.5-6.9 51.2-15.4 91.5-7.7 27.6 6.1 69.5 24 99.2 67.5 8.1 12.2 0 21.1-.8 22l-88.6 85.8s-2.8 3.3-9.8 2.8l-24.8 1.6-1.2.8 25.6-.8c3.7 0 6.1 0 9.3-1.6 1.2-.8 2.4-1.6 3.7-2.8 2.4-2 4.5-4.1 6.9-6.1 3.3-2.8 6.1-5.7 9.3-8.5 3.7-3.7 7.3-6.9 11-10.6 4.1-4.1 8.1-7.7 12.2-11.8 4.1-4.1 8.1-8.1 12.2-11.8 4.1-3.7 7.7-7.7 11.8-11.4 3.7-3.3 6.9-6.9 10.6-10.2l8.5-8.5c2-2 4.5-4.1 6.1-6.1 5.7-7.4 5.7-15.6 2.4-20.9zm-51.2-17c-1.2-4.1-4.9-4.5-8.9-3.3"/><path fill="#FFF200" d="M212.2 115.4c3.3-3.3 1.6-6.5-1.6-9.3l-3.7-3.7c-.8-.8-2.4-1.2-3.3 0-1.2 1.2-.8 2.4.4 3.3l4.1 4.1c.8.8 1.2 1.6.8 2l-.4.4-1.2-1.2c-3.3-3.3-7.7-7.3-11.8-3.3-2.4 2.4-2.4 5.7.8 8.5 1.6 1.6 3.3 2.4 5.3 2.4-.4.8-.8 2 .4 3.3 1.2 1.2 2.4 1.2 4.1 0l6.1-6.5m-12.2-.8c-.8-.8-1.6-2-.4-2.8 1.2-1.6 4.1.8 6.1 2.8l-1.2 1.2c-1.2.9-3.7-.4-4.5-1.2z"/></svg>
