<svg xmlns="http://www.w3.org/2000/svg" xmlns:xlink="http://www.w3.org/1999/xlink" viewBox="0 0 16.3 8.4"><defs><path id="a" d="M2.4 4.1l2.4-2.4c.2-.2.2-.6 0-.8-.2-.3-.6-.3-.8 0L.7 4.2c-.2.2-.2.5 0 .8L4 8.3c.2.2.6.2.8 0 .2-.3.2-.6 0-.9L2.6 5.2h12.9c.3 0 .6-.3.6-.6s-.3-.6-.6-.6H2.4z"/></defs><clipPath id="b"><use xlink:href="#a" overflow="visible"/></clipPath><g clip-path="url(#b)"><defs><path id="c" d="M-15.2-341.4h213V37.4h-213z"/></defs><clipPath id="d"><use xlink:href="#c" overflow="visible"/></clipPath><path transform="rotate(135 8.31 4.602)" clip-path="url(#d)" fill="#FFF" d="M1.2-2.5h14.1v14.2H1.2z"/></g><defs><path id="e" d="M2.4 4.1l2.4-2.4c.2-.2.2-.6 0-.8-.2-.3-.6-.3-.8 0L.7 4.2c-.2.2-.2.5 0 .8L4 8.3c.2.2.6.2.8 0 .2-.3.2-.6 0-.9L2.6 5.2h12.9c.3 0 .6-.3.6-.6s-.3-.6-.6-.6H2.4z"/></defs><clipPath id="f"><use xlink:href="#e" overflow="visible"/></clipPath><g clip-path="url(#f)"><defs><path id="g" d="M-15.2-341.4h213V37.4h-213z"/></defs><clipPath id="h"><use xlink:href="#g" overflow="visible"/></clipPath><path transform="rotate(135 8.31 4.602)" clip-path="url(#h)" fill="#FFF" d="M1.2-2.5h14.1v14.2H1.2z"/></g></svg>
