<svg xmlns="http://www.w3.org/2000/svg" viewBox="0 0 46 39.5"><path fill="#C7C8CA" d="M32.9 25v-1.6c0-1.1-.8-1.9-1.9-1.9-.5 0-1 0-1.4.1-.8.1-1.3.9-1.3 1.7V25H17.8v-1.6c0-1.1-.8-1.9-1.9-1.9-.5 0-.9 0-1.4.1-.9.2-1.4.8-1.4 1.7V25c-1.4-.1-2.7-.3-4-.8-1.4-.6-2.5-1.6-2.8-3.2-.1-.3-.1-.6-.1-.9v-4.4c0-2.2 1.7-4.2 3.9-4.5.2 0 .5-.1.8-.1h24.7c2.1 0 4.1 1.7 4.4 3.8.1.6.1 1.3.1 1.9v3c0 2-.9 3.4-2.7 4.3-1 .5-2 .7-3.1.9-.6-.1-1-.1-1.4 0z"/><path fill="#C7C8CA" d="M39.9 22.1v8.8c0 2.3-1.7 4.2-3.9 4.5-.3 0-.5.1-.8.1H10.6c-2.1 0-4.1-1.7-4.4-3.8 0-.3-.1-.6-.1-.9V22c.5 2 1.9 2.9 3.6 3.5 1.1.4 2.2.5 3.3.6.2 1.7 1.3 2.4 2.3 2.4 1 0 2.1-.6 2.4-2.3h10.4c.1.8.4 1.4 1 1.9.4.3.9.5 1.4.4 1-.1 2.1-.6 2.3-2.4 1.2-.1 2.4-.3 3.5-.7 1.2-.4 2.2-1 2.9-2.1.4-.4.5-.8.7-1.2zM29.4 9.8h-2.9v-1c0-1.1-.8-1.9-1.9-1.9h-3.3c-1.1 0-1.9.8-1.9 1.9v1h-2.8c-.5-2.8 1.1-5.3 3.8-5.7.2 0 .5-.1.7-.1h3.7C27 4 29 5.7 29.3 7.8c.1.7.1 1.3.1 2z"/></svg>
