<svg xmlns="http://www.w3.org/2000/svg" viewBox="0 0 41.3 34.6"><path fill="#C7C8CA" d="M25 34.6v-8.3c0-3-1-4-4.1-4h-2c-1.9.2-3 1.3-3 3.2v9c-2.4 0-4.7.1-6.9 0-1.8-.1-3.1-1.8-3.1-3.7 0-4-.1-8 0-11.9 0-.6.5-1.4 1-1.8 3.9-3.1 7.9-6.1 11.9-9.2 1.3-1 2.5-1 3.8 0 4 3.1 8 6.1 11.9 9.2.6.4 1 1.4 1 2.1.1 3.7.1 7.4 0 11 0 2.9-1.5 4.3-4.4 4.3-1.9.1-3.9.1-6.1.1z"/><path fill="#C7C8CA" d="M29.2 6.2c.9-1.8 3.2-2.2 5.2-1.7.9.2.9 1.7.9 1.7v4.1s5.4 4.3 5.8 4.9c.2.3.2 1 0 1.4-.1.2-.9.2-1.3.1-.5-.2-.9-.6-1.3-.9-5.3-4-10.7-7.9-15.9-12-1.6-1.2-2.5-1.1-4 .1-5.2 4.2-10.6 8.2-16 12.2-.4.3-.8.7-1.2.8-.4.1-1.1 0-1.4-.3-.2-.2 0-.9.2-1.3.2-.3.6-.5 1-.8C6.9 10.2 12.5 6 18.1 1.7c2.1-1.6 3-1.6 5.2 0 2 1.6 4 3 5.9 4.5z"/></svg>
