<svg xmlns="http://www.w3.org/2000/svg" xmlns:xlink="http://www.w3.org/1999/xlink" width="50.1" height="45.7" viewBox="0 0 50.1 45.7"><defs><path id="a" d="M20.6 21.1c-8.3 0-15 6.5-15 14.4v5.2c0 .6.5 1.2 1.2 1.2S8 41.4 8 40.7v-5.2c0-6.7 5.7-12.1 12.7-12.1 1.5 0 3 .3 4.4.8.6.2 1.3-.1 1.5-.7.2-.6-.1-1.3-.7-1.5-1.8-.6-3.5-.9-5.3-.9zm-5.8-8c0-3.2 2.6-5.8 5.8-5.8s5.8 2.6 5.8 5.8-2.6 5.8-5.8 5.8-5.8-2.7-5.8-5.8zm13.8 0c0-4.5-3.6-8.1-8-8.1s-8.1 3.6-8.1 8.1 3.6 8.1 8.1 8.1 8-3.7 8-8.1z"/></defs><clipPath id="b"><use xlink:href="#a" overflow="visible"/></clipPath><g clip-path="url(#b)"><defs><path id="c" d="M-148.8-174.3h345.7v614.8h-345.7z"/></defs><clipPath id="d"><use xlink:href="#c" overflow="visible"/></clipPath><path clip-path="url(#d)" fill="#FFF" d="M3.3 2.7H31v41.5H3.3z"/></g><defs><path id="e" d="M36.1 28.9h8.6c.8 0 1.4.6 1.4 1.4 0 .8-.6 1.4-1.4 1.4h-8.6v8.6c0 .8-.6 1.4-1.4 1.4-.8 0-1.4-.6-1.4-1.4v-8.6h-8.6c-.8 0-1.4-.6-1.4-1.4 0-.8.6-1.4 1.4-1.4h8.6v-8.6c0-.8.6-1.4 1.4-1.4.8 0 1.4.6 1.4 1.4v8.6z"/></defs><clipPath id="f"><use xlink:href="#e" overflow="visible"/></clipPath><g clip-path="url(#f)"><defs><path id="g" d="M-148.8-174.3h345.7v614.8h-345.7z"/></defs><clipPath id="h"><use xlink:href="#g" overflow="visible"/></clipPath><path clip-path="url(#h)" fill="#FFF" d="M20.8 16.5h27.6v27.6H20.8z"/></g></svg>
