<?xml version="1.0" encoding="utf-8"?>
<!-- Generator: Adobe Illustrator 18.0.0, SVG Export Plug-In . SVG Version: 6.00 Build 0)  -->
<!DOCTYPE svg PUBLIC "-//W3C//DTD SVG 1.1//EN" "http://www.w3.org/Graphics/SVG/1.1/DTD/svg11.dtd" [
	<!ENTITY ns_flows "http://ns.adobe.com/Flows/1.0/">
	<!ENTITY ns_extend "http://ns.adobe.com/Extensibility/1.0/">
	<!ENTITY ns_ai "http://ns.adobe.com/AdobeIllustrator/10.0/">
	<!ENTITY ns_graphs "http://ns.adobe.com/Graphs/1.0/">
]>
<svg version="1.1" id="Layer_1" xmlns:x="&ns_extend;" xmlns:i="&ns_ai;" xmlns:graph="&ns_graphs;"
	 xmlns="http://www.w3.org/2000/svg" xmlns:xlink="http://www.w3.org/1999/xlink" xmlns:a="http://ns.adobe.com/AdobeSVGViewerExtensions/3.0/"
	 x="0px" y="0px" width="50px" height="50px" viewBox="0 0 50 50" enable-background="new 0 0 50 50" xml:space="preserve">
<g>
	<g>
		<path fill="#D73648" d="M6,21.4c-0.5,1-2.1,3.1-2.6,3.8c-0.7-2.1,0.3-4.2,1.6-5.6c1.5-1.9,4.2-3.1,5.8-2.6
			c-0.8,0.6-0.9,0.6-1.6,1.2c-0.3,0.3-1.9,1.6-1.6,1.8c2.5,2.2,6.4,4.3,10.2,4.9c3.6,0.6,6.8,0.5,8.1,0c0.7-0.3,1.1-0.4,1.2-1.2
			c0.3-3.2,0.8-6.4,1-9.6c0.2-2.8,2.7-5,6-4.9c2.5,0.1,4.9,1.9,5.6,4.3c0.3,0.8,0.3,1.2,0.5,2.7c1.1-1.8,1.7-3.4,1.7-5.2
			c0-0.3-0.4-0.6-0.7-0.8c-1-0.5-2.8-1.4-3.2-1.5c0.9-1,3.1-1,5.1,0.2c2.5,1.4,4.3,5.1,3.7,7.2c-0.9-1.2-1.3-1.6-2.3-2.9
			C44.4,23.8,20.7,35.2,6,21.4z M29.3,23.4c4.1-1.4,5.2-2.1,5.1-5.9c0-0.6-0.1-2.4,0-2.7c1.5,1.7,1.6,3.7,1.5,5.8
			c0.8-0.5,1.8-1,1.9-1.7c0.4-2.3,0.2-4.7-1.6-6.5c-1.1-1.1-2.6-1.2-4-0.7c-1.7,0.6-2.1,1.4-2.1,3.3c0,0.8-0.1,1.6-0.1,2.4
			C29.8,19.3,29.6,21.3,29.3,23.4z"/>
	</g>
	<g>
		<path fill="#D73648" d="M10.4,33.7c-0.1,0.3-0.3,0.6-0.4,0.8c-0.1,0.2-0.3,0.5-0.4,0.7c-0.1,0.2-0.2,0.4-0.3,0.6
			c-0.1,0.2-0.1,0.4-0.1,0.6v1.1c0,0.4,0,0.7,0,1S9.1,39.1,9,39.3c-0.1,0.2-0.3,0.4-0.5,0.4c-0.2,0.1-0.4,0.1-0.7,0.1
			c-0.4,0-0.7-0.1-0.8-0.2c-0.2-0.1-0.2-0.3-0.2-0.5c0-0.1,0-0.1,0-0.2c0-0.1,0-0.1,0.1-0.2c0-0.1,0-0.2,0.1-0.3c0-0.1,0-0.2,0-0.4
			v-1.8c-0.1-0.2-0.2-0.4-0.3-0.6c-0.1-0.2-0.2-0.4-0.3-0.7c-0.1-0.2-0.2-0.5-0.3-0.7c-0.1-0.2-0.2-0.4-0.3-0.7
			c-0.2-0.4-0.3-0.7-0.3-1c-0.1-0.3-0.1-0.5-0.1-0.6c0-0.1,0.1-0.2,0.2-0.3c0.1-0.1,0.2-0.1,0.4-0.1c0.2,0,0.4,0,0.5,0
			c0.1,0,0.2,0.1,0.3,0.2c0.1,0.1,0.2,0.2,0.3,0.4c0.1,0.2,0.2,0.5,0.4,0.8c0.1,0.3,0.2,0.6,0.2,0.9c0,0.3,0,0.6-0.1,1
			c0.2-0.4,0.2-0.7,0.3-1c0-0.3,0.1-0.5,0.1-0.5c0.2-0.4,0.3-0.8,0.4-1c0.1-0.2,0.2-0.4,0.4-0.6c0.1-0.1,0.3-0.2,0.5-0.2
			c0.2,0,0.5,0,0.9,0c0.2,0,0.4,0,0.6,0.1c0.1,0.1,0.2,0.2,0.2,0.3c0,0.2,0,0.4-0.1,0.6C10.7,33,10.6,33.4,10.4,33.7z"/>
		<path fill="#D73648" d="M16.9,38.3c0.1,0,0.2,0,0.3-0.1c0.1-0.1,0.1-0.2,0.2-0.3c0.1-0.1,0.1-0.3,0.1-0.6c0-0.3,0-0.6,0-1
			c0-0.2,0-0.4,0.1-0.5c0.1-0.1,0.2-0.1,0.3-0.1c0.1,0,0.2,0.1,0.3,0.2c0.1,0.1,0.1,0.2,0.1,0.4c0,1.1-0.2,2-0.5,2.6
			c-0.3,0.6-0.9,0.9-1.7,0.9c-0.5,0-0.8-0.1-1.1-0.2c-0.3-0.1-0.5-0.3-0.6-0.6c-0.2,0.3-0.4,0.5-0.6,0.7c-0.3,0.2-0.5,0.3-0.8,0.3
			c-0.4,0-0.7-0.1-1-0.3c-0.3-0.2-0.5-0.4-0.6-0.7C11.1,38.8,11,38.5,11,38c-0.1-0.4-0.1-0.8-0.1-1.3v-1.5c0-0.1,0-0.2,0-0.2
			c0-0.1-0.1-0.1-0.1-0.2c0-0.1-0.1-0.1-0.1-0.2c0-0.1,0-0.1,0-0.2c0-0.2,0.1-0.4,0.3-0.6c0.2-0.2,0.5-0.3,0.9-0.3
			c0.5,0,0.9,0.1,1.1,0.4c0.2,0.2,0.3,0.6,0.3,1.2v1.6c0,0.3,0,0.5,0,0.7s0,0.4,0.1,0.5c0,0.1,0.1,0.2,0.1,0.3s0.1,0.1,0.2,0.1
			c0.1,0,0.1,0,0.2,0c0.1,0,0.1-0.1,0.1-0.1c0-0.1,0-0.2,0-0.3c0-0.1,0-0.2,0-0.3v-2.8c0-0.2,0-0.3,0-0.4s0.1-0.2,0.1-0.3
			c0.1-0.1,0.2-0.2,0.3-0.2c0.1,0,0.3-0.1,0.6-0.1c0.3,0,0.5,0,0.7,0.1c0.2,0.1,0.3,0.2,0.4,0.3c0.1,0.1,0.2,0.3,0.2,0.5
			c0,0.2,0.1,0.4,0.1,0.6V37c0,0.5,0,0.8,0.1,1C16.6,38.2,16.7,38.3,16.9,38.3z"/>
		<path fill="#D73648" d="M26,38.3c0.1,0,0.2,0,0.3-0.1c0.1-0.1,0.1-0.2,0.2-0.3c0.1-0.1,0.1-0.3,0.1-0.6c0-0.3,0-0.6,0-1
			c0-0.2,0-0.4,0.1-0.5c0.1-0.1,0.2-0.1,0.3-0.1c0.1,0,0.2,0.1,0.3,0.2c0.1,0.1,0.1,0.2,0.1,0.4c0,0.6,0,1.1-0.1,1.5
			c-0.1,0.4-0.2,0.8-0.4,1.1c-0.2,0.3-0.4,0.5-0.7,0.6c-0.3,0.1-0.6,0.2-1.1,0.2c-0.3,0-0.5,0-0.7-0.1c-0.2-0.1-0.4-0.2-0.6-0.4
			c-0.2-0.2-0.3-0.5-0.3-0.9c-0.1-0.4-0.1-0.9,0-1.6c0.1-0.6,0.1-1,0-1.2c0-0.2-0.2-0.3-0.4-0.3c-0.1,0-0.1,0-0.2,0.1
			c-0.1,0-0.1,0.1-0.2,0.1c0,0,0,0.1,0,0.2s0,0.2,0,0.3v3c0,0.1,0,0.2,0,0.3c0,0.1-0.1,0.2-0.1,0.3c-0.1,0.1-0.2,0.2-0.3,0.2
			c-0.1,0.1-0.3,0.1-0.5,0.1c-0.5,0-0.9-0.1-1.1-0.4c-0.2-0.2-0.3-0.6-0.3-1.2v-1.8c0-0.5,0-0.8-0.1-1c0-0.2-0.2-0.3-0.3-0.3
			c-0.1,0-0.1,0-0.2,0.1c0,0-0.1,0.1-0.1,0.2v2c0,0.4,0,0.7,0,1c0,0.3-0.1,0.5-0.2,0.7c-0.1,0.2-0.3,0.4-0.5,0.5
			c-0.2,0.1-0.4,0.1-0.7,0.1c-0.3,0-0.5-0.1-0.7-0.2c-0.2-0.2-0.3-0.5-0.3-0.9v-4.2c0-0.4,0.1-0.6,0.3-0.7c0.2-0.1,0.4-0.2,0.7-0.2
			c0.3,0,0.5,0.1,0.7,0.2c0.2,0.1,0.3,0.2,0.4,0.4c0.2-0.2,0.4-0.4,0.6-0.6c0.2-0.2,0.5-0.2,0.7-0.2c0.4,0,0.8,0.1,1.1,0.3
			c0.3,0.2,0.5,0.5,0.6,0.8c0.1-0.3,0.4-0.6,0.7-0.8c0.3-0.2,0.6-0.3,1-0.3c0.4,0,0.7,0.1,1,0.2c0.2,0.2,0.4,0.4,0.5,0.7
			c0.1,0.3,0.2,0.7,0.1,1.1c0,0.4,0,0.9-0.1,1.4c0,0.3-0.1,0.6-0.1,0.8c0,0.2,0,0.3,0,0.5c0,0.1,0.1,0.2,0.1,0.2
			C25.8,38.3,25.9,38.3,26,38.3z"/>
		<path fill="#D73648" d="M35.1,38.3c0.1,0,0.2,0,0.3-0.1c0.1-0.1,0.1-0.2,0.2-0.3c0.1-0.1,0.1-0.3,0.1-0.6c0-0.3,0-0.6,0-1
			c0-0.2,0-0.4,0.1-0.5c0.1-0.1,0.2-0.1,0.3-0.1c0.1,0,0.2,0.1,0.3,0.2c0.1,0.1,0.1,0.2,0.1,0.4c0,0.6,0,1.1-0.1,1.5
			c-0.1,0.4-0.2,0.8-0.4,1.1c-0.2,0.3-0.4,0.5-0.7,0.6c-0.3,0.1-0.6,0.2-1.1,0.2c-0.3,0-0.5,0-0.7-0.1c-0.2-0.1-0.4-0.2-0.6-0.4
			c-0.2-0.2-0.3-0.5-0.3-0.9c-0.1-0.4-0.1-0.9,0-1.6c0.1-0.6,0.1-1,0-1.2c0-0.2-0.2-0.3-0.4-0.3c-0.1,0-0.1,0-0.2,0.1
			c-0.1,0-0.1,0.1-0.2,0.1c0,0,0,0.1,0,0.2s0,0.2,0,0.3v3c0,0.1,0,0.2,0,0.3c0,0.1-0.1,0.2-0.1,0.3c-0.1,0.1-0.2,0.2-0.3,0.2
			c-0.1,0.1-0.3,0.1-0.5,0.1c-0.5,0-0.9-0.1-1.1-0.4c-0.2-0.2-0.3-0.6-0.3-1.2v-1.8c0-0.5,0-0.8-0.1-1c0-0.2-0.2-0.3-0.3-0.3
			c-0.1,0-0.1,0-0.2,0.1c0,0-0.1,0.1-0.1,0.2v2c0,0.4,0,0.7,0,1c0,0.3-0.1,0.5-0.2,0.7c-0.1,0.2-0.3,0.4-0.5,0.5s-0.4,0.1-0.7,0.1
			c-0.3,0-0.5-0.1-0.7-0.2c-0.2-0.2-0.3-0.5-0.3-0.9v-4.2c0-0.4,0.1-0.6,0.3-0.7c0.2-0.1,0.4-0.2,0.7-0.2c0.3,0,0.5,0.1,0.7,0.2
			c0.2,0.1,0.3,0.2,0.4,0.4c0.2-0.2,0.4-0.4,0.6-0.6c0.2-0.2,0.5-0.2,0.7-0.2c0.4,0,0.8,0.1,1.1,0.3c0.3,0.2,0.5,0.5,0.6,0.8
			c0.1-0.3,0.4-0.6,0.7-0.8c0.3-0.2,0.6-0.3,1-0.3c0.4,0,0.7,0.1,1,0.2c0.2,0.2,0.4,0.4,0.5,0.7c0.1,0.3,0.2,0.7,0.1,1.1
			c0,0.4,0,0.9-0.1,1.4c0,0.3-0.1,0.6-0.1,0.8c0,0.2,0,0.3,0,0.5c0,0.1,0.1,0.2,0.1,0.2C35,38.3,35,38.3,35.1,38.3z"/>
		<path fill="#D73648" d="M41.5,37.8c0.2-0.1,0.3-0.3,0.5-0.5c0.1-0.2,0.2-0.5,0.2-0.9c0-0.2,0-0.4,0.1-0.5c0.1-0.1,0.2-0.1,0.3-0.1
			c0.1,0,0.2,0.1,0.3,0.2c0.1,0.1,0.1,0.2,0.1,0.4c0,0.7-0.1,1.3-0.4,1.7s-0.6,0.7-1.1,0.9c-0.1,0.4-0.2,0.8-0.3,1.1
			c-0.1,0.4-0.3,0.7-0.6,0.9s-0.6,0.5-0.9,0.6c-0.4,0.2-0.8,0.2-1.3,0.2c-0.4,0-0.8-0.1-1.1-0.2c-0.3-0.1-0.5-0.2-0.7-0.4
			c-0.2-0.2-0.3-0.4-0.4-0.6c-0.1-0.2-0.1-0.4-0.1-0.7c0-0.3,0.1-0.6,0.3-0.8c0.2-0.2,0.4-0.3,0.6-0.4c-0.2-0.1-0.3-0.2-0.4-0.3
			c-0.1-0.1-0.2-0.3-0.3-0.5c-0.1-0.2-0.1-0.4-0.2-0.7c0-0.3-0.1-0.6-0.1-1c0-0.2,0-0.4,0-0.6c0-0.2,0-0.4,0-0.7c0-0.1,0-0.2,0-0.2
			c0-0.1-0.1-0.1-0.1-0.2c0-0.1-0.1-0.1-0.1-0.2c0-0.1,0-0.1,0-0.2c0-0.2,0.1-0.4,0.3-0.6c0.2-0.2,0.5-0.3,0.9-0.3
			c0.5,0,0.9,0.1,1.1,0.4c0.2,0.2,0.3,0.6,0.3,1.2v1.3c0,0.4,0,0.8,0.1,1c0.1,0.2,0.2,0.3,0.3,0.3c0.1,0,0.2,0,0.3-0.1
			c0.1-0.1,0.1-0.2,0.1-0.4c0-0.2,0-0.4,0.1-0.7c0-0.3,0-0.7,0-1.1v-0.3c0-0.3,0-0.5,0-0.7c0-0.2,0-0.4,0.1-0.5
			c0.1-0.1,0.2-0.2,0.3-0.3c0.1-0.1,0.3-0.1,0.6-0.1c0.2,0,0.3,0,0.5,0.1s0.3,0.2,0.4,0.3c0.1,0.1,0.2,0.3,0.3,0.6
			c0.1,0.2,0.1,0.5,0.1,0.9V37.8z M38.4,40.1c0.1,0,0.2,0,0.3-0.1c0.1-0.1,0.2-0.1,0.2-0.2c0.1-0.1,0.1-0.2,0.1-0.2
			c0-0.1,0-0.2,0-0.2c-0.1,0-0.2,0-0.3,0c-0.1,0-0.2-0.1-0.3-0.1c-0.1,0-0.2,0-0.3,0c-0.1,0-0.2,0.1-0.2,0.2c-0.1,0.2-0.1,0.3,0,0.5
			C38,40,38.2,40.1,38.4,40.1z"/>
		<path fill="#D73648" d="M43.3,32.6c0-0.4,0.1-0.6,0.2-0.7s0.4-0.2,0.7-0.2c0.5,0,0.9,0.1,1.1,0.4c0.2,0.2,0.4,0.6,0.4,1
			c0,0.2,0,0.5-0.1,0.8c0,0.3-0.1,0.6-0.1,0.9c-0.1,0.3-0.1,0.6-0.2,0.9c-0.1,0.3-0.1,0.5-0.2,0.7c-0.1,0.2-0.2,0.3-0.3,0.4
			S44.6,37,44.5,37c-0.1,0-0.2,0-0.3-0.1c-0.1-0.1-0.2-0.2-0.3-0.4c0-0.1-0.1-0.3-0.2-0.6c-0.1-0.3-0.1-0.6-0.2-0.9
			c-0.1-0.3-0.1-0.7-0.2-1.1C43.3,33.4,43.3,33,43.3,32.6z M45.7,38.7c0,0.3-0.1,0.6-0.3,0.8c-0.2,0.2-0.5,0.3-0.9,0.3
			c-0.4,0-0.7-0.1-0.9-0.3c-0.2-0.2-0.3-0.5-0.3-0.8c0-0.3,0.1-0.6,0.3-0.8c0.2-0.2,0.5-0.3,0.9-0.3c0.4,0,0.7,0.1,0.9,0.3
			C45.6,38.1,45.7,38.4,45.7,38.7z"/>
	</g>
</g>
</svg>
