<svg xmlns="http://www.w3.org/2000/svg" width="48.7" height="47.5" viewBox="0 0 48.7 47.5"><path d="M34 16c-.1-1.8-1.6-3.2-3.4-3.2H18.2c-1.8 0-3.3 1.4-3.4 3.2H34zm-6.4-4.2c0-.7-.6-1.3-1.4-1.3h-3.5c-.7 0-1.3.6-1.4 1.3h6.3zm-11.2 5v17.7c0 1.4 1.2 2.6 2.6 2.6h11.1c1.4 0 2.6-1.2 2.6-2.6V16.8H16.4zm4.3 16.6c0 .5-.4.9-.9.9s-.9-.4-.9-.9V20.2c0-.5.4-.9.9-.9s.9.4.9.9v13.2zm4.7 0c0 .5-.4.9-.9.9s-.9-.4-.9-.9V20.2c0-.5.4-.9.9-.9s.9.4.9.9v13.2zm4.7 0c0 .5-.4.9-.9.9s-.9-.4-.9-.9V20.2c0-.5.4-.9.9-.9s.9.4.9.9v13.2z" fill="#FFF"/><path fill="#FFF" d="M24.4 45.6c-12 0-21.8-9.8-21.8-21.8S12.4 2 24.4 2s21.8 9.8 21.8 21.8-9.7 21.8-21.8 21.8zm0-41.6C13.5 4 4.6 12.9 4.6 23.8s8.9 19.8 19.8 19.8 19.8-8.9 19.8-19.8S35.4 4 24.4 4z"/></svg>
