<svg xmlns="http://www.w3.org/2000/svg" xmlns:xlink="http://www.w3.org/1999/xlink" width="150" height="150" viewBox="0 0 150 150"><defs><path id="a" d="M70.8 81.7l.7-.7 53.1-53.1c1.6-1.6 4.1-1.6 5.7 0 1.6 1.6 1.6 4.1 0 5.7L73.6 90.3c-1.6 1.6-4.1 1.6-5.7 0L53.7 76.1c-1.6-1.6-1.6-4.1 0-5.7 1.6-1.6 4.1-1.6 5.7 0l11.4 11.3z"/></defs><use xlink:href="#a" overflow="visible" fill-rule="evenodd" clip-rule="evenodd" fill="#FFF"/><defs><path id="b" d="M64.9 11.5C29.9 17 5.9 50 11.5 85.1s38.5 59 73.6 53.4c28.8-4.6 50.7-27.8 53.9-56.4.6-5.7.5-11.4-.4-17.2-.3-2.2-2.4-3.7-4.6-3.3-2.2.3-3.7 2.4-3.3 4.6.8 5 .9 10.1.4 15-2.8 25-21.9 45.4-47.1 49.3-30.7 4.9-59.5-16.1-64.4-46.8C14.7 53 35.7 24.2 66.4 19.3c11.3-1.8 22.6-.1 32.7 4.6 2 .9 4.4.1 5.3-1.9s.1-4.4-1.9-5.3c-11.7-5.3-24.7-7.2-37.6-5.2z"/></defs><use xlink:href="#b" overflow="visible" fill="#D73648"/></svg>
