<?xml version="1.0" encoding="utf-8"?>
<!-- Generator: Adobe Illustrator 18.0.0, SVG Export Plug-In . SVG Version: 6.00 Build 0)  -->
<!DOCTYPE svg PUBLIC "-//W3C//DTD SVG 1.1//EN" "http://www.w3.org/Graphics/SVG/1.1/DTD/svg11.dtd" [
	<!ENTITY ns_flows "http://ns.adobe.com/Flows/1.0/">
	<!ENTITY ns_extend "http://ns.adobe.com/Extensibility/1.0/">
	<!ENTITY ns_ai "http://ns.adobe.com/AdobeIllustrator/10.0/">
	<!ENTITY ns_graphs "http://ns.adobe.com/Graphs/1.0/">
]>
<svg version="1.1" id="Layer_1" xmlns:x="&ns_extend;" xmlns:i="&ns_ai;" xmlns:graph="&ns_graphs;"
	 xmlns="http://www.w3.org/2000/svg" xmlns:xlink="http://www.w3.org/1999/xlink" xmlns:a="http://ns.adobe.com/AdobeSVGViewerExtensions/3.0/"
	 x="0px" y="0px" width="50px" height="50px" viewBox="0 0 50 50" enable-background="new 0 0 50 50" xml:space="preserve">
<g>
	<path fill="#F1C418" d="M47,19c-0.5-1.4-1.6-2.2-3-2.2H32L28,5c-0.4-1.3-1.7-2.2-3.1-2.2c-1.4,0-2.6,0.9-3.1,2.2L18,16.8h-12
		c-1.4,0-2.6,0.9-3,2.3c-0.5,1.4-0.1,2.9,1,3.8l8.8,6.8L7.8,42.8c-0.4,1-0.3,2.1,0.3,3c0.6,0.9,1.6,1.4,2.7,1.4
		c0.6,0,1.2-0.2,1.8-0.5L25,38.5l12.4,8.2c0.5,0.3,1.1,0.5,1.8,0.5c1.1,0,2.1-0.5,2.7-1.4c0.6-0.9,0.7-2,0.3-3l-5.1-13.2l8.8-6.8
		C47,21.9,47.4,20.4,47,19z M44.7,21.3L34.8,29l5.6,14.5c0.3,0.9-0.4,1.7-1.2,1.7c-0.2,0-0.5-0.1-0.7-0.2L25,36.1L11.5,45
		c-0.2,0.1-0.5,0.2-0.7,0.2c-0.8,0-1.5-0.8-1.2-1.7L15.2,29l-9.9-7.7c-0.9-0.7-0.4-2.5,0.8-2.5h13.4l4.4-13.1
		C24,5.1,24.5,4.8,25,4.8c0.5,0,1,0.3,1.2,0.9l4.4,13.1H44C45.2,18.7,45.7,20.5,44.7,21.3z"/>
</g>
</svg>
