<?xml version="1.0" encoding="utf-8"?>
<!-- Generator: Adobe Illustrator 18.0.0, SVG Export Plug-In . SVG Version: 6.00 Build 0)  -->
<!DOCTYPE svg PUBLIC "-//W3C//DTD SVG 1.1//EN" "http://www.w3.org/Graphics/SVG/1.1/DTD/svg11.dtd" [
	<!ENTITY ns_flows "http://ns.adobe.com/Flows/1.0/">
	<!ENTITY ns_extend "http://ns.adobe.com/Extensibility/1.0/">
	<!ENTITY ns_ai "http://ns.adobe.com/AdobeIllustrator/10.0/">
	<!ENTITY ns_graphs "http://ns.adobe.com/Graphs/1.0/">
]>
<svg version="1.1" id="Layer_1" xmlns:x="&ns_extend;" xmlns:i="&ns_ai;" xmlns:graph="&ns_graphs;"
	 xmlns="http://www.w3.org/2000/svg" xmlns:xlink="http://www.w3.org/1999/xlink" xmlns:a="http://ns.adobe.com/AdobeSVGViewerExtensions/3.0/"
	 x="0px" y="0px" width="6.3px" height="6.3px" viewBox="0 0 6.3 6.3" enable-background="new 0 0 6.3 6.3" xml:space="preserve">
<path fill="#F1C418" d="M2.3,2.4l0.2-0.2H0.4c-0.2,0-0.3,0.3-0.1,0.4l1.6,1.2L1.8,3.6L0.9,5.9C0.8,6,1,6.2,1.2,6.1l2.1-1.4H3
	l2.1,1.4C5.3,6.2,5.5,6,5.4,5.9L4.5,3.6L4.5,3.8L6,2.6c0.1-0.1,0.1-0.4-0.1-0.4H3.8L4,2.4L3.3,0.3C3.3,0.2,3,0.2,3,0.3L2.3,2.4z"/>
</svg>
