<svg xmlns="http://www.w3.org/2000/svg" width="16.3" height="13.1" viewBox="0 0 16.3 13.1"><g fill="#D73648"><path d="M12 1.2c-1.6 0-2.9 1.3-2.9 2.9C9.1 5.7 10.4 7 12 7s2.9-1.3 2.9-2.9c0-1.6-1.3-2.9-2.9-2.9zm1.6 3.1c0 .1-.1.2-.2.2h-1v1c0 .1-.1.2-.2.2h-.3c-.1 0-.2-.1-.2-.2v-1h-1c-.1 0-.2-.1-.2-.2V4c0-.1.1-.2.2-.2h1v-1c0-.1.1-.2.2-.2h.3c.1 0 .2.1.2.2v1h1c.1 0 .2.1.2.2v.3z"/><path d="M12 10.3h-.4c-.2-.5-.7-.9-1.3-.9s-1.1.4-1.3.9H7.4c-.2-.5-.7-.8-1.3-.8-.6 0-1.1.4-1.3.9-.2-.1-.4-.4-.4-.6 0-.3.3-.6.6-.6h6.5c.2 0 .4-.1.5-.3l.3-1.1H12c-.2 0-.4 0-.7-.1l-.2.5h-.9v-.7h.4c-.5-.2-1-.5-1.4-.9H7.4v-.7h1.4c-.2-.3-.3-.6-.4-1h-1v-.7h.9c0-.3 0-.6.1-.9H4l-.4-1.4c-.1-.2-.3-.3-.5-.3H1.8c-.3 0-.5.2-.5.5s.2.5.5.5h1l1.9 5.7c-.7.1-1.2.7-1.2 1.5s.6 1.4 1.4 1.5c.2.5.7.9 1.3.9.6 0 1.1-.4 1.3-.9H9c.2.5.7.9 1.3.9s1.1-.4 1.3-.9h.4c.3 0 .5-.2.5-.5-.1-.2-.3-.5-.5-.5zM7.4 7.5h2v.7h-2v-.7zm-.9.8h-.8l-.3-.8h1v.8zm0-1.7H5.1l-.2-.7h1.6v.7zM4.6 4.9l-.3-.7h2.2V5H4.6zm1.5 6.3c-.2 0-.4-.2-.4-.4s.2-.4.4-.4.4.2.4.4-.2.4-.4.4zm4.2 0c-.2 0-.4-.2-.4-.4s.2-.4.4-.4.4.2.4.4-.2.4-.4.4z"/></g></svg>
