<svg xmlns="http://www.w3.org/2000/svg" width="50" height="50" viewBox="0 0 50 50"><path fill="#599986" d="M18.3 31.6h18.6c.6 0 1.1-.4 1.3-1l4-14.3c.2-.6-.1-1.3-.7-1.6-.2-.1-.4-.1-.6-.1H15.5l-1.2-3.7c-.3-.5-.8-.9-1.3-.9H9.1c-.7 0-1.3.6-1.3 1.3s.6 1.3 1.3 1.3H12L17.4 29c-2 .4-3.5 2.1-3.5 4.2 0 2.2 1.7 4.1 3.9 4.3.5 1.4 1.9 2.5 3.6 2.5 1.6 0 3-1 3.6-2.5h4.8c.6 1.4 1.9 2.5 3.6 2.5 1.6 0 3-1 3.6-2.5h1.2c.7 0 1.3-.6 1.3-1.3s-.6-1.3-1.3-1.3H37c-.5-1.5-1.9-2.5-3.6-2.5s-3.1 1.1-3.6 2.5H25c-.5-1.5-1.9-2.5-3.6-2.5-1.6 0-3 1-3.6 2.5-.7-.2-1.3-.8-1.3-1.6.1-1 .8-1.7 1.8-1.7zm15.1-14.3h5.7l-.6 2.2h-5.1v-2.2zm0 4.8h4.3l-.6 2.1h-3.7v-2.1zm0 4.8h3l-.6 2h-2.4v-2zm-8.2-9.6h5.6v2.2h-5.6v-2.2zm0 4.8h5.6v2.1h-5.6v-2.1zm0 4.8h5.6v2h-5.6v-2zm-2.7 2h-2.3l-.7-2h3v2zm0-4.7h-3.8l-.7-2.1h4.5v2.1zm-5.4-4.7l-.7-2.2h6.1v2.2h-5.4zM33.3 35c.6 0 1.2.5 1.2 1.2 0 .6-.5 1.2-1.2 1.2-.6 0-1.2-.5-1.2-1.2.1-.7.6-1.2 1.2-1.2zm-11.9 0c.6 0 1.2.5 1.2 1.2 0 .6-.5 1.2-1.2 1.2-.6 0-1.2-.5-1.2-1.2.1-.7.6-1.2 1.2-1.2z"/></svg>
