<?xml version="1.0" encoding="utf-8"?>
<!-- Generator: Adobe Illustrator 18.0.0, SVG Export Plug-In . SVG Version: 6.00 Build 0)  -->
<!DOCTYPE svg PUBLIC "-//W3C//DTD SVG 1.1//EN" "http://www.w3.org/Graphics/SVG/1.1/DTD/svg11.dtd" [
	<!ENTITY ns_flows "http://ns.adobe.com/Flows/1.0/">
	<!ENTITY ns_extend "http://ns.adobe.com/Extensibility/1.0/">
	<!ENTITY ns_ai "http://ns.adobe.com/AdobeIllustrator/10.0/">
	<!ENTITY ns_graphs "http://ns.adobe.com/Graphs/1.0/">
]>
<svg version="1.1" id="Layer_1" xmlns:x="&ns_extend;" xmlns:i="&ns_ai;" xmlns:graph="&ns_graphs;"
	 xmlns="http://www.w3.org/2000/svg" xmlns:xlink="http://www.w3.org/1999/xlink" xmlns:a="http://ns.adobe.com/AdobeSVGViewerExtensions/3.0/"
	 x="0px" y="0px" width="25px" height="25px" viewBox="0 0 25 25" enable-background="new 0 0 25 25" xml:space="preserve">
<path fill="#B3B3B3" d="M12.5,23.6c-1.7,0-3.2-2.1-4.3-3.7c-0.2-0.3-0.4-0.5-0.5-0.7c-1.6-2-2.7-3.9-3.3-5.8C4.2,13,4.1,12.6,4,12.2
	c-0.2-0.7-0.3-1.5-0.2-2.3c0.1-4.7,4-8.5,8.7-8.5h0c4.8,0,8.7,3.9,8.7,8.7c0,0.7-0.1,1.4-0.3,2.1c-0.1,0.4-0.2,0.8-0.4,1.3
	c-0.7,2.1-2,3.9-3.1,5.3c-0.1,0.2-0.3,0.4-0.5,0.7C15.6,21.7,14.1,23.6,12.5,23.6z M12.5,2.9c-3.9,0-7.1,3.2-7.2,7
	c0,0.7,0.1,1.3,0.2,2c0.1,0.4,0.2,0.7,0.3,1.1c0.6,1.7,1.6,3.5,3.1,5.4c0.2,0.2,0.3,0.5,0.5,0.7c0.7,1,2.1,3,3.1,3
	c1,0,2.6-2.3,3.3-3.4c0.2-0.3,0.4-0.6,0.5-0.8c1-1.3,2.2-3.1,2.9-5c0.1-0.4,0.2-0.8,0.3-1.1c0.2-0.6,0.2-1.2,0.2-1.8
	C19.7,6.1,16.5,2.9,12.5,2.9L12.5,2.9z M12.5,14.9c-0.3,0-0.6,0-0.9-0.1c-1.5-0.3-2.7-1.2-3.4-2.5c-0.4-0.7-0.6-1.6-0.6-2.4
	c0-2.7,2.2-5,5-5s5,2.2,5,5c0,0.9-0.2,1.7-0.6,2.4c-0.8,1.3-2,2.2-3.5,2.5l0,0C13,14.9,12.8,14.9,12.5,14.9z M12.5,6.5
	c-1.9,0-3.5,1.6-3.5,3.5c0,0.6,0.1,1.2,0.4,1.7c0.5,0.9,1.4,1.5,2.4,1.7c0.4,0.1,0.8,0.1,1.2,0c1-0.2,1.9-0.8,2.5-1.7
	c0.3-0.5,0.4-1.1,0.4-1.7C16,8,14.4,6.5,12.5,6.5z"/>
</svg>
