<?xml version="1.0" encoding="utf-8"?>
<!-- Generator: Adobe Illustrator 18.0.0, SVG Export Plug-In . SVG Version: 6.00 Build 0)  -->
<!DOCTYPE svg PUBLIC "-//W3C//DTD SVG 1.1//EN" "http://www.w3.org/Graphics/SVG/1.1/DTD/svg11.dtd" [
	<!ENTITY ns_flows "http://ns.adobe.com/Flows/1.0/">
	<!ENTITY ns_extend "http://ns.adobe.com/Extensibility/1.0/">
	<!ENTITY ns_ai "http://ns.adobe.com/AdobeIllustrator/10.0/">
	<!ENTITY ns_graphs "http://ns.adobe.com/Graphs/1.0/">
]>
<svg version="1.1" id="Layer_1" xmlns:x="&ns_extend;" xmlns:i="&ns_ai;" xmlns:graph="&ns_graphs;"
	 xmlns="http://www.w3.org/2000/svg" xmlns:xlink="http://www.w3.org/1999/xlink" xmlns:a="http://ns.adobe.com/AdobeSVGViewerExtensions/3.0/"
	 x="0px" y="0px" width="50px" height="50px" viewBox="0 0 50 50" enable-background="new 0 0 50 50" xml:space="preserve">
<g>
	<g>
		<path fill="#F1C418" d="M4.5,21.1c-0.5,1-2.2,3.3-2.8,4.1C1,23,2,20.7,3.4,19.2c1.7-2.1,4.5-3.3,6.2-2.8c-0.9,0.7-1,0.6-1.7,1.3
			c-0.3,0.3-2,1.7-1.8,2c2.7,2.4,6.9,4.6,11,5.3c3.9,0.7,7.4,0.6,8.8,0c0.7-0.3,1.2-0.5,1.3-1.3c0.3-3.5,0.8-6.9,1-10.4
			c0.2-3,2.9-5.4,6.4-5.3c2.7,0.1,5.2,2.1,6.1,4.7c0.3,0.9,0.3,1.2,0.6,2.9c1.2-2,1.8-3.7,1.8-5.6c0-0.3-0.4-0.7-0.7-0.9
			c-1.1-0.6-3-1.5-3.5-1.6c1-1.1,3.3-1,5.5,0.2c2.7,1.5,4.6,5.5,4,7.7c-1-1.3-1.4-1.7-2.5-3.1C45.9,23.7,20.4,35.9,4.5,21.1z
			 M29.6,23.3c4.4-1.5,5.6-2.2,5.5-6.4c0-0.6-0.1-2.6,0-3c1.6,1.9,1.7,4,1.6,6.3c0.8-0.5,2-1.1,2.1-1.9c0.4-2.5,0.3-5.1-1.7-7
			c-1.2-1.2-2.8-1.3-4.3-0.8c-1.8,0.7-2.3,1.5-2.3,3.5c0,0.9-0.1,1.7-0.1,2.6C30.2,18.8,29.9,21.1,29.6,23.3z"/>
	</g>
	<g>
		<path fill="#F1C418" d="M9.3,34.4c-0.1,0.3-0.3,0.6-0.4,0.9c-0.1,0.3-0.3,0.5-0.4,0.7c-0.1,0.2-0.2,0.4-0.3,0.6
			c-0.1,0.2-0.1,0.4-0.1,0.6v1.2c0,0.4,0,0.8,0,1.1s-0.1,0.6-0.2,0.8c-0.1,0.2-0.3,0.4-0.6,0.5C7,40.9,6.7,41,6.5,41
			c-0.4,0-0.7-0.1-0.9-0.2c-0.2-0.1-0.3-0.3-0.3-0.5c0-0.1,0-0.1,0-0.2c0-0.1,0-0.1,0.1-0.2c0-0.1,0-0.2,0.1-0.3c0-0.1,0-0.3,0-0.5
			v-1.9c-0.1-0.2-0.2-0.4-0.3-0.6c-0.1-0.2-0.2-0.5-0.3-0.7c-0.1-0.2-0.2-0.5-0.3-0.7c-0.1-0.2-0.2-0.5-0.3-0.7
			C4,34,3.9,33.6,3.8,33.3c-0.1-0.3-0.1-0.5-0.1-0.6c0-0.2,0.1-0.3,0.2-0.3c0.1-0.1,0.2-0.1,0.4-0.1c0.2,0,0.4,0,0.5,0
			c0.1,0,0.3,0.1,0.4,0.2c0.1,0.1,0.2,0.3,0.3,0.5c0.1,0.2,0.3,0.5,0.4,0.9c0.1,0.3,0.2,0.6,0.3,0.9c0,0.3,0,0.7-0.1,1.1
			c0.2-0.4,0.3-0.8,0.3-1c0-0.3,0.1-0.5,0.1-0.6c0.2-0.5,0.3-0.8,0.5-1.1c0.1-0.3,0.3-0.5,0.4-0.6c0.2-0.1,0.3-0.2,0.6-0.2
			c0.2,0,0.5,0,0.9,0c0.3,0,0.5,0,0.6,0.1c0.1,0.1,0.2,0.2,0.2,0.4c0,0.2,0,0.4-0.1,0.7C9.6,33.7,9.5,34,9.3,34.4z"/>
		<path fill="#F1C418" d="M16.3,39.3c0.1,0,0.2,0,0.3-0.1c0.1-0.1,0.2-0.2,0.2-0.3c0.1-0.2,0.1-0.4,0.1-0.6c0-0.3,0-0.6,0-1
			c0-0.2,0-0.4,0.1-0.5c0.1-0.1,0.2-0.1,0.3-0.1c0.1,0,0.2,0.1,0.3,0.2c0.1,0.1,0.1,0.3,0.1,0.5c0,1.2-0.2,2.1-0.6,2.8
			c-0.4,0.6-1,0.9-1.9,1c-0.5,0-0.9-0.1-1.2-0.2c-0.3-0.2-0.5-0.4-0.6-0.6c-0.2,0.3-0.4,0.6-0.7,0.8c-0.3,0.2-0.6,0.3-0.9,0.3
			c-0.4,0-0.8-0.1-1.1-0.3c-0.3-0.2-0.5-0.4-0.6-0.8c-0.2-0.3-0.3-0.7-0.3-1.2c-0.1-0.4-0.1-0.9-0.1-1.4V36c0-0.1,0-0.2,0-0.3
			c0-0.1-0.1-0.1-0.1-0.2c0-0.1-0.1-0.1-0.1-0.2c0-0.1,0-0.1,0-0.3c0-0.2,0.1-0.4,0.3-0.6c0.2-0.2,0.5-0.3,1-0.3
			c0.5,0,0.9,0.1,1.2,0.4c0.2,0.3,0.4,0.7,0.4,1.3v1.7c0,0.3,0,0.6,0,0.8c0,0.2,0.1,0.4,0.1,0.5c0,0.1,0.1,0.2,0.2,0.3
			c0.1,0.1,0.1,0.1,0.2,0.1c0.1,0,0.1,0,0.2,0c0.1,0,0.1-0.1,0.2-0.1c0-0.1,0-0.2,0-0.3c0-0.1,0-0.2,0-0.3v-3c0-0.2,0-0.3,0-0.5
			c0-0.1,0.1-0.3,0.1-0.4c0.1-0.1,0.2-0.2,0.3-0.2c0.1-0.1,0.3-0.1,0.6-0.1c0.3,0,0.6,0,0.8,0.1s0.4,0.2,0.5,0.4
			c0.1,0.2,0.2,0.3,0.2,0.6c0,0.2,0.1,0.5,0.1,0.7V38c0,0.5,0,0.9,0.1,1.1C16,39.2,16.1,39.3,16.3,39.3z"/>
		<path fill="#F1C418" d="M26.1,39.3c0.1,0,0.2,0,0.3-0.1c0.1-0.1,0.2-0.2,0.2-0.3c0.1-0.2,0.1-0.4,0.1-0.6c0-0.3,0-0.6,0-1
			c0-0.2,0-0.4,0.1-0.5c0.1-0.1,0.2-0.1,0.3-0.1c0.1,0,0.2,0.1,0.3,0.2c0.1,0.1,0.1,0.3,0.1,0.5c0,0.6,0,1.2-0.1,1.6
			c-0.1,0.5-0.2,0.8-0.4,1.2c-0.2,0.3-0.4,0.5-0.8,0.7C26,40.9,25.6,41,25.2,41c-0.3,0-0.5,0-0.8-0.1c-0.2-0.1-0.5-0.2-0.6-0.5
			c-0.2-0.2-0.3-0.6-0.4-1c-0.1-0.4-0.1-1,0-1.7c0.1-0.6,0.1-1,0-1.3c0-0.2-0.2-0.4-0.4-0.4c-0.1,0-0.2,0-0.2,0.1
			c-0.1,0-0.1,0.1-0.2,0.1c0,0,0,0.1,0,0.2c0,0.1,0,0.2,0,0.3V40c0,0.1,0,0.2,0,0.4c0,0.1-0.1,0.2-0.2,0.3c-0.1,0.1-0.2,0.2-0.3,0.2
			c-0.1,0.1-0.3,0.1-0.5,0.1c-0.5,0-0.9-0.1-1.1-0.4c-0.2-0.3-0.3-0.7-0.3-1.3v-1.9c0-0.5,0-0.9-0.1-1.1c0-0.2-0.2-0.3-0.4-0.3
			c-0.1,0-0.1,0-0.2,0.1c0,0-0.1,0.1-0.1,0.2v2.2c0,0.4,0,0.8,0,1.1c0,0.3-0.1,0.6-0.2,0.8c-0.1,0.2-0.3,0.4-0.6,0.5
			c-0.2,0.1-0.5,0.1-0.8,0.1c-0.3,0-0.5-0.1-0.7-0.3c-0.2-0.2-0.3-0.5-0.3-0.9v-4.5c0-0.4,0.1-0.6,0.3-0.8c0.2-0.1,0.4-0.2,0.8-0.2
			c0.3,0,0.5,0.1,0.7,0.2c0.2,0.1,0.4,0.3,0.5,0.5c0.2-0.3,0.4-0.5,0.6-0.7c0.2-0.2,0.5-0.3,0.8-0.3c0.5,0,0.8,0.1,1.1,0.3
			c0.3,0.2,0.5,0.5,0.6,0.9c0.1-0.3,0.4-0.6,0.7-0.9c0.3-0.2,0.7-0.4,1.1-0.4c0.4,0,0.8,0.1,1,0.3c0.3,0.2,0.4,0.4,0.5,0.7
			c0.1,0.3,0.2,0.7,0.2,1.2c0,0.5,0,1-0.1,1.5c0,0.3-0.1,0.6-0.1,0.8c0,0.2,0,0.4,0,0.5c0,0.1,0.1,0.2,0.1,0.2
			C25.9,39.3,26,39.3,26.1,39.3z"/>
		<path fill="#F1C418" d="M35.9,39.3c0.1,0,0.2,0,0.3-0.1c0.1-0.1,0.2-0.2,0.2-0.3c0.1-0.2,0.1-0.4,0.1-0.6c0-0.3,0-0.6,0-1
			c0-0.2,0-0.4,0.1-0.5c0.1-0.1,0.2-0.1,0.3-0.1c0.1,0,0.2,0.1,0.3,0.2c0.1,0.1,0.1,0.3,0.1,0.5c0,0.6,0,1.2-0.1,1.6
			c-0.1,0.5-0.2,0.8-0.4,1.2c-0.2,0.3-0.4,0.5-0.8,0.7C35.8,40.9,35.4,41,35,41c-0.3,0-0.5,0-0.8-0.1c-0.2-0.1-0.5-0.2-0.6-0.5
			c-0.2-0.2-0.3-0.6-0.4-1c-0.1-0.4-0.1-1,0-1.7c0.1-0.6,0.1-1,0-1.3c0-0.2-0.2-0.4-0.4-0.4c-0.1,0-0.2,0-0.2,0.1
			c-0.1,0-0.1,0.1-0.2,0.1c0,0,0,0.1,0,0.2c0,0.1,0,0.2,0,0.3V40c0,0.1,0,0.2,0,0.4c0,0.1-0.1,0.2-0.2,0.3c-0.1,0.1-0.2,0.2-0.3,0.2
			c-0.1,0.1-0.3,0.1-0.5,0.1c-0.5,0-0.9-0.1-1.1-0.4c-0.2-0.3-0.3-0.7-0.3-1.3v-1.9c0-0.5,0-0.9-0.1-1.1c0-0.2-0.2-0.3-0.4-0.3
			c-0.1,0-0.1,0-0.2,0.1c0,0-0.1,0.1-0.1,0.2v2.2c0,0.4,0,0.8,0,1.1c0,0.3-0.1,0.6-0.2,0.8c-0.1,0.2-0.3,0.4-0.6,0.5
			C28.3,40.9,28,41,27.7,41c-0.3,0-0.5-0.1-0.7-0.3c-0.2-0.2-0.3-0.5-0.3-0.9v-4.5c0-0.4,0.1-0.6,0.3-0.8c0.2-0.1,0.4-0.2,0.8-0.2
			c0.3,0,0.5,0.1,0.7,0.2c0.2,0.1,0.4,0.3,0.5,0.5c0.2-0.3,0.4-0.5,0.6-0.7c0.2-0.2,0.5-0.3,0.8-0.3c0.5,0,0.8,0.1,1.1,0.3
			c0.3,0.2,0.5,0.5,0.6,0.9c0.1-0.3,0.4-0.6,0.7-0.9c0.3-0.2,0.7-0.4,1.1-0.4c0.4,0,0.8,0.1,1,0.3c0.3,0.2,0.4,0.4,0.5,0.7
			c0.1,0.3,0.2,0.7,0.2,1.2c0,0.5,0,1-0.1,1.5c0,0.3-0.1,0.6-0.1,0.8c0,0.2,0,0.4,0,0.5c0,0.1,0.1,0.2,0.1,0.2
			C35.7,39.3,35.8,39.3,35.9,39.3z"/>
		<path fill="#F1C418" d="M42.7,38.8c0.2-0.1,0.4-0.3,0.5-0.5c0.1-0.2,0.2-0.6,0.2-1c0-0.2,0-0.4,0.1-0.5c0.1-0.1,0.2-0.1,0.3-0.1
			c0.1,0,0.2,0.1,0.3,0.2c0.1,0.1,0.1,0.3,0.1,0.5c0,0.8-0.2,1.4-0.5,1.8c-0.3,0.4-0.7,0.8-1.2,1c-0.1,0.4-0.2,0.8-0.3,1.2
			c-0.1,0.4-0.4,0.7-0.6,1c-0.3,0.3-0.6,0.5-1,0.7c-0.4,0.2-0.9,0.3-1.4,0.3c-0.4,0-0.8-0.1-1.2-0.2c-0.3-0.1-0.6-0.3-0.8-0.4
			c-0.2-0.2-0.4-0.4-0.5-0.6c-0.1-0.2-0.1-0.5-0.1-0.7c0-0.3,0.1-0.6,0.3-0.8c0.2-0.2,0.4-0.4,0.6-0.4c-0.2-0.1-0.3-0.2-0.4-0.3
			c-0.1-0.1-0.2-0.3-0.3-0.5c-0.1-0.2-0.2-0.5-0.2-0.8c0-0.3-0.1-0.7-0.1-1.1c0-0.2,0-0.4,0-0.6c0-0.2,0-0.5,0-0.7
			c0-0.1,0-0.2,0-0.3c0-0.1-0.1-0.1-0.1-0.2c0-0.1-0.1-0.1-0.1-0.2c0-0.1,0-0.1,0-0.3c0-0.2,0.1-0.4,0.3-0.6c0.2-0.2,0.5-0.3,1-0.3
			c0.5,0,0.9,0.1,1.2,0.4c0.2,0.3,0.4,0.7,0.4,1.3v1.4c0,0.5,0,0.8,0.1,1.1c0.1,0.2,0.2,0.4,0.4,0.4c0.1,0,0.2,0,0.3-0.1
			c0.1-0.1,0.1-0.2,0.1-0.4c0-0.2,0-0.5,0.1-0.8c0-0.3,0-0.7,0-1.2v-0.3c0-0.3,0-0.6,0-0.8c0-0.2,0.1-0.4,0.1-0.5
			c0.1-0.1,0.2-0.2,0.3-0.3s0.4-0.1,0.6-0.1c0.2,0,0.4,0,0.5,0.1c0.2,0.1,0.3,0.2,0.5,0.3c0.1,0.2,0.3,0.4,0.3,0.6
			c0.1,0.3,0.1,0.6,0.1,0.9V38.8z M39.5,41.2c0.1,0,0.2,0,0.3-0.1c0.1-0.1,0.2-0.1,0.2-0.2c0.1-0.1,0.1-0.2,0.1-0.3
			c0-0.1,0-0.2,0-0.3c-0.1,0-0.2,0-0.3,0c-0.1,0-0.2-0.1-0.4-0.1c-0.1,0-0.2,0-0.3,0c-0.1,0-0.2,0.1-0.2,0.2c-0.1,0.2-0.1,0.4,0,0.5
			C39,41.2,39.2,41.2,39.5,41.2z"/>
		<path fill="#F1C418" d="M44.7,33.2c0-0.4,0.1-0.7,0.3-0.8c0.2-0.1,0.4-0.2,0.8-0.2c0.6,0,1,0.1,1.2,0.4c0.3,0.3,0.4,0.6,0.4,1.1
			c0,0.2,0,0.5-0.1,0.8c0,0.3-0.1,0.7-0.1,1c-0.1,0.3-0.1,0.6-0.2,0.9c-0.1,0.3-0.1,0.5-0.2,0.7c-0.1,0.2-0.2,0.3-0.3,0.5
			c-0.1,0.1-0.3,0.2-0.4,0.2c-0.1,0-0.3-0.1-0.4-0.2c-0.1-0.1-0.2-0.3-0.3-0.5c0-0.1-0.1-0.3-0.2-0.6c-0.1-0.3-0.1-0.6-0.2-1
			c-0.1-0.4-0.1-0.8-0.2-1.2C44.7,34,44.7,33.6,44.7,33.2z M47.3,39.7c0,0.3-0.1,0.6-0.3,0.9c-0.2,0.2-0.5,0.4-1,0.4s-0.8-0.1-1-0.4
			c-0.2-0.2-0.3-0.5-0.3-0.9c0-0.3,0.1-0.6,0.3-0.9c0.2-0.2,0.5-0.4,1-0.4c0.4,0,0.8,0.1,1,0.4C47.2,39.1,47.3,39.4,47.3,39.7z"/>
	</g>
</g>
</svg>
