<svg xmlns="http://www.w3.org/2000/svg" width="367.4" height="412" viewBox="72.3 50 367.4 412"><path fill="#FFF" d="M362.9 50c-42.4 0-76.8 34.4-76.8 76.8s33.6 91.7 76.8 165.7c43.2-74 76.8-123.3 76.8-165.7S405.3 50 362.9 50zm0 102.5c-15.2 0-27.5-12.3-27.5-27.5s12.3-27.6 27.5-27.6 27.6 12.3 27.6 27.6c-.1 15.2-12.4 27.5-27.6 27.5zM233 196.1c.1-.1.4-1.2 0-1.1-.2 0-.4.2-.6.2h-.1s-.1-.1 0-.1v-.1c.1-.2.6-.1.6-.5 0-.1-.1-.2-.1-.2-.1-.1-.1-.2 0-.3.1-.1.2-.1.3-.1.6.2 1.2 0 1.6-.4.4-.4.6-1 .4-1.6 0-.2-.2-.4-.4-.5-.1-.1-.3-.2-.3-.3h-.1c-.5.3-.6.3-.7-.1-.1 0-.3 0-.4-.2-.1-.1 0-.3.1-.4.1-.1.3-.2.5-.4.4-.3.2-.6.2-1 0-.1 0-.1-.1-.2h-.2c-.1.1-.3.1-.4.2-.2.1-.2.1-.4.3-.1.2-.2.3-.3.4-.1.1-.2.1-.3 0-.1-.1-.1-.2-.1-.3l.1-.1c.3-.4.3-1-.1-1.4 0 0 0-.1-.1-.1 0-.2.2-.8.5-.9.1 0 .1 0 .2.1h.2c.1-.2.1-.4.2-.6v-.1c-.1.1-.3 0-.5-.1-.1-.1-.1-.3 0-.5l.3-.3h.2c.1.1.3 0 .4 0h.1c.4-.3.7-.7 1-1.1.1-.2.3-.4.4-.4.2-.1.4-.1.5-.1.5 0 1 .1 1.4.2.2.1.6.3.1.6-.2.1-.5.2-.7.4-.2.1-.2.4-.3.5v.1h.1c.4 0 2.8-.1 2.2.6-.2.3-.4.7-.5 1-.3.9-.4 1.8-.1 2.7.1.2.1.5.1.7 0 .2-.1.5-.1.8 0 .3.3.4.2.7v.1h.8c.1 0 .1 0 .1.1 0 0 .5 1.1.4 1.3-.1.2-.1.4 0 .5.1.2.3.3.3.6 0 .1 0 .1-.5.5-.1 0-.1.1-.1.2.5.2.5.2.7.1.4-.2 1.7.5 1.7.5.7.4.6.9.6 1.1-.1.4-.2.5-.3.6l-.9.6s-.1 0-.3-.1l-.1-.1h-.1s-.1 0-.1.1c.1.5.3.9.7 1.1 0 .5-1.1.7-1.1.7-.4 0-.7.2-1.1.1-.3-.1-.6-.3-.9-.3-.8 0-.8 0-1-.1-.1 0-.6-.2-.8-.2-.5 0-1 .4-1.5.5-.4.1-.8-.3-1.2-.3-.6.1-.8.6-1.2 1h-.1c-.3-.6-.9-.4-1.2-.2-.1.1-.2.1-.3.2-.1.1-.3 0-.3-.1-.1-.1-.1-.2 0-.3l.5-.5c.5-.5 1.2-.8 1.9-.9h.7c.4.1.8-.2 1.1-.4.1-.1.1-.2.1-.2 0-.1-.1-.1-.2-.1s-.2 0-.4.1c0 0-.1 0-.1.1-.1.1-.3.1-.4 0 0 0-.1 0-.1-.1-.3-.3-.7-.5-1.1-.6-.4-.1-.8.3-1.3.1-.3-.1-.2-.6-.2-.6.1-.1.2-.1.4-.1.8-.5 1.8-.8 1.9-1zm-7.8-1.8c.5-.7.4-.7.2-.9-.2-.2-.2-.4 0-.6.2-.3.5-.4.7-.7.2-.2.2-.5.4-.7.3-.2.5-.2.9-.2.3 0 1.2-1.5 2.2-1.7 1-.3 2.6 1.6 2.1 2.3-.1.1-.3.2-.6.2s-.4.1-.7.8c-.1.3.2.6-.1.8-.3.2-.1.5-.2.7-.2.5-.6 1.1-.9 1.4-.3.3-1 .1-1.9.3-.6.2-1.2.5-1.8.8-.7.3-1.7.6-1.9-.1 0-.2 0-.7.1-.9.4-.6 1.1-.9 1.5-1.5zm-7.3 29.2c1.4-3.7 1.4-4.9 1.1-6.1-.1-.5.3-1.1.8-1.1h.9c.6-.7 1.6-.9 2.4-.5 1.1.6 3.3 1.4 7.1 1.5.9 0 1.8.2 2.7.6.8.3 1.5-.4 1.8-.8.7-.9.6-2 .7-3.1.1-.6.4-1 .8-1.4.1-.1.2-.2.2-.4s-.2-1.8-.4-1.8c-1.6-.2-1.1-2.2-2.1-2.8-.9-.6-.8-.9-3-1.2-.3 0 .4-1.5 1.7-1.9h.2c.8.4 1.6.6 2.5.5.3 0 .6-.2.8-.4.2-.3.3-.6.2-.9-.1-.3.2-.8.6-.6.7.5 1.1.8 2.3.6.3 0 .6-.3.6-.6 0-.1.1-.3.3-.3 1.4-.8 2-1.1 2.3-1.5.7-.8 1.4-1.4 2.3-1.9 1.3-.7 1.9-1.2 3.1-2.3.5-.5 1.1-.8 1.8-1 .2-.1.3-.2.3-.5v-.1c.2-.3.6-.5 1-.5.9-.1 1.4-.1 1.8-.1.3-.3.6-.5 1-.4.9 0 2.1.5 1.9-2.1-.3-2.3.5-4.6 2.1-6.2.7.3.6 1 .7 1.8.1.5-.1.9-.4 1.3-3 3.4.9 3.3 1 4.1 0 .1.1.3.2.4.1.1.3.1.4 0 .1 0 3.1-1.3 3.2-1.2.6.4.1.5.6 1 .7.6 1.7.8 2.5.3 1.7-.9 3.7-1.2 5.6-.9.2 0 .5-.1.8-.2 4.3 9.7 9.4 19.7 15.1 30.2h-.3c-1 0-2 .3-2.2 1.3 0 .2-.1.3-.3.5-.1.1-.3.1-.4 0-.3-.1-.5-.1-.7 0-.2.1-.3.4-.3.7.1.9 2.4 1.7.5 2.6 0 0-.8.5-.9.5-.8.4-1.8-.5-2.5-.5-.2 0-.4.1-.7.1-.1 0-.2-.1-.2-.1-.1-.1-.8-.7-.9-.9-.3-.5-.3-.5-.5-.7-.1-.1-.3-.3-.5-.4-.4-.3-.6-.7-.6-1.1 0-.4-.1-.8-.1-1.4-.1-1.2-.8-2.3-1.7-3.1-.2-.2-.6-.3-.9-.3-.2 0-.4 0-.6-.2-.8-.5-1.3-.6-1.3-.6L266 215c-.4-.3-.8-.4-1.2-.4-.4 0-.6-.3-.8-.6-.4-.6-1.2-.9-1.9-.7h-.1c-.4.2-.6.7-.4 1.1.1.2.3.5.4.7l3.6 5.3c.6.9 1.6 1.4 2.7 1.4.4 0 .8.3.9.8 0 .2.1.4.3.5 1.7 1 4 1.1 5.2 3v.1c0 .1-.1.6-.2.7-.1.2-.6.3-.7.2-.1-.1-.1-.3-.1-.5 0-.1 0-.2-.1-.2-.2-.5-.6-.6-1-.8-.7-.3-1.4 0-1.7.7v.1c-.3.8.2 1 .4 1.1.4.2 1 .5.9 1.4-.1.4-.5.2-.7.4 0 0 0 .1-.6 1.3-.3.5 0 .6-.7.9-.5.3-.8-.1-.9-.2-.2-.4.1-.8.1-1.1 0-.2 0-.3.5-.5.7-.3 0-1.5-.5-2.1-.9-1.5-.3-.3-1.3-1.2-.6-.6-2.3-1.6-2.6-2-2.1-2.7-5.7-3.9-7.5-6.9-.4-.6-.9-1.1-1.6-1.4-.4-.2-.9-.3-1.5-.3-.5 0-3.1 1.5-5.1 2.6-1.9 1.1-3.3-1.5-5.2-.8-2 .8-.8 3.4-2.5 4.4-1.9 1.1-4.3 1.5-6 3.1-.1.1-.1.2-.2.3-.5 1.2-1.4 1.7-1.5 2-.1.3-.1.4 0 .7.2.7 0 1.5-.6 2-.4.3-.1 1.4-.4 1.6-.6.3-1.3 0-2 .2-1 .3-1 1.5-2 1.8-1.2.4-2.5-.4-3.7-.1-2.8.6-2.8.6-2.9.9-.1.2-.3.6-.7.6-1.5 0-.9-1.9-1.6-2.6-.7-.9-1-.8-1.3-.6-.5.2-1.2.5-1.4.4-.3-.2-.6-.5-.9-.6-.2-.1-.5-.2-.6-.5-.2-.4.3-2.1.4-2.5.1-.3.1-.6-.1-.9-.1-.3-.4-.5-.8-.6-.1 0-.1 0-.2-.1-.4-.4 1.3-2.1 1.7-3 .5-.2.5-.4.6-.6zM331 340.7c-.7 1.3-.8 1.6-.2 3.2.4 1.2 1.7 6.7 1.9 13.9.2 7.8-1 9-3.5 10.8-4 2.9-6.7 4.8-8.6 6.2-2.2 1.6-3.5 4.2-3.5 6.9 0 1-.2 2.3-.9 3.8.1.3-5.1 2.9-6.9 5.1v.2c1.2 3.8-14.3 15-17.5 15-2.3 0-8.1.9-10.8 2.1-1.8.8-6.8-.9-7.2-2-.1-.2-.1-.4.1-.6 1.2-1-2.9-6.9-3.9-7.6-.6-.4-1.8-3.2-2.3-3.9-1.5-2.1 1.1-5.1-.6-7.2l-.3-.3-4.8-6.8c-.8-1.1-2.9-2.3-2.9-3.6 0-1.4 2.5-8.2 2.7-8.5.7-1.1.5-1.2 1.3-1.6 1.2-.6 3-2.2 1-5.5-.1-.2-.1.7-.8-3.9-.4-3-4.4-9.8-5-10.5 0 0-4.6-2.2-6.7-6.5.1-.2.3-.5.5-.6 1.9-1.5 1.6-3.5 2.2-7.7.2-1.4.8-2.5-.6-4.6-.5-.8-2 .1-2.2-1.4-.9-.4-1.9-.4-2.8-.1-2.1.6-6.4 1.5-6.9-1.3-.7-3.8-3.3-4.6-4.5-4.5-5.5.4-12.1 6.1-16.4 4.4-4.8-1.8-10.1-1.9-15-2.8-1.7-.3-4.1-1.1-5.3-2.3-7.5-7.4-7.4-7.2-8.1-8.2-2.6-4-2.2-9.5-4.5-13.8-1.6-2.1-2.1-4.9-1.3-7.4 2.1-6.9 4.7-12.8 2.4-17.3-.8-1.5-.8-1.5 3.1-6.9 7.1-9.9 8.3-10.4 9.7-11 3.1.4 8.9-3.4 8.8-5.5-.2-4.3 3.1-6 9.1-10.9 1.2-1 2.8-1 4.1-.2.9-.3 1.8-.3 2.6.1 1.1.5 1.8.1 2.1 0 3.9-1.9 8.1-2.4 27.6-3.7.7 0 1.3.2 1.7.8 1.2 1.5.3 1.3 1.6 3.5.5.8 0 1.5-1.6 3.1-.6.6-.5 1.6-.3 1.6 1.9.1 2.4 1.2 8.3 2.9 1.7.5 3.1 1.4 4.2 2.8.7.9 10.4 6.6 10-1.2 0-.5.5-1.5 1.4-2.2 3.1-2.6 5.5.8 6.3 1 1.4.3 1.6.3 2.5.3.9 0 1.3 1 4 .8 1.5-.1 3.8-.1 6.3 0 5.6 9.7 11.6 19.7 17.9 30.3 5.9 9.9 11.9 20.1 18.2 30.8l7.6 13c-2 2.1-4.5 5-6.6 9.2-2 3.3-4.7 6.6-6.7 10.3zm87.5-82.7c1.6 9.6 2.5 19.5 2.5 29.6 0 96.3-78.1 174.4-174.4 174.4-96.3 0-174.4-78.1-174.4-174.4 0-96.3 78.1-174.4 174.4-174.4 3.3 0 6.6.1 9.9.3-.5 4.3-.8 8.8-.8 13.2 0 6.3.5 12.5 1.5 18.8-.9-.1-1.8-.1-2.7-.2-2.9 1.8-5.7 3.7-8.3 5.9-9.4 7.8-24.2 11-23.9 10.1-1.4 0-1.8-.4-1.8-.4-.5.1-.9.4-1.3.1 0-.2-.1-.4-.2-.5-.5-.3-1.5.5-3.8 1.6 0 0-.1 0-.1.1-1 .5-2.1.6-2.9.7-.5 0-1.1.1-1.6.3-.1 0-.2 0-.2-.1-.2-.3.7-.6 1-.7.3-.1.1-.4-1 .2-.3.1-.6.2-.8.1-1.2-.3-2.6.6-3.5 1.4-.1.1-.3.2-.6.1s-.6-.1-.5.4c.1.5-3 1.9-3 1.7-.1-.2-.2-.3-.4-.2-.4.1-.9.4-1.2.9-.5.9-1.8 1.1-2.5 1.6-.7.6-1.7 1.1-1.7 1.1-.4.4-.6.7-1 .7s-.6-.7-.4-.9c.1-.2.8-.9.7-.9-.1 0-.1-.1-.2-.1-.1-.2.5-.5.3-.8-.1-.2-1.2-.3-1.3-.4-.1-.1-.1-.2 0-.3.7-1.4.8-1.5 1.7-2.4-.1-.1-.1-.3 0-.5.5-.8 2.3-3.1 4.3-3.4.5-.1.2-.2.2-.2-.5-.2-1.2-.3-.8-.8.7-.8 1.8-1.8 3.1-2.5.6-.3 1.2-.7 1.7-1.1.5-.4 2.2-1.2 4.1-1.2 1.5-.1 5.6-2.9 5.7-2.9-.1-.1.1-.5 0-.7 0-.1 0-.2.1-.2.4-.2.9-.3 1.3-.5.1 0 .1-.1.1-.1 0-.2-.2-.3-.3-.2-.8.3-1.2.4-1.4.5-.1 0-.2 0-.3-.1-.1-.1 0-.2.1-.3 1-.8 2.3-.8 3.4-1.2.5-.2.5-1.2-.5-1.1-5.2.8-9.8 2.4-14.7 4 0 .1-1 .6-1.1.8-.1.1-.1.2-.1.2.1 0 .1.1 0 .1-.2.1-.6 0-.7.2-.1.2.3.1.4.3.1.1 0 .3-.1.4-.2.2-.9.5-1 .4-.1-.1-.1-.2-.3-.1-.5.4-.9.6-1.2.6-1.1.2-2.5.8-2.5.8.2-.1.7-.6.8-.8.3-.6.6-.8 1-.9.3-.1.3-.4-.9 0-1.1.4-2.1 1-2.9 1.8-.7.7-1.5 1.4-2.1 1.7.1-.2 0-.2-.1-.2s-.6.5-.9.5c-.7-.2.2-.6.2-1.3l.3-.3c-.8.3-1.5.9-2.1 1.5-.5.5-.9 1.1-1.4.6-.2-.2-.6-.3-.9-.2-2 .9-3.9 1.9-5.8 2.9-.2.1-.4.2-.6.4-.1.1-.2.3-.2.4 0 .2-.4.7-.5.9-.1.1-.1.2 0 .3.2.3.8.1 1.1 0 .4-.1.9 0 1.2.4.2.4.2.9-.1 1.2-.3.3-.5.6-.7.9-.5.6-.9 1.3-1.6 1.7l-1.2.9c-3.7 3.3-3.8 9.3-6.5 10.5-2.1.9-2.8.1-5.3 1.1-.5.2-.9.1-1.4-.1-.4-.1-.7-.4-.9-.8-.5-1.4-2.1-2.1-3.5-1.5-.2.1-.5.1-.8.1-.5.1-3.4 1.1-3.2 1.5 0 0 5.1-1.6 4 1.2-.2.1-.4.2-.4.4-.1.3-.3.4-.7.5-.5.1-1 0-1.4-.4-.3 0-.4.7-.3.9.1.2.8.2.1.7-.4.3-1 .4-1.2.8-.2.5-.5 1-.8 1.5-.3.5.4.7-.2 1.1-.7.5-3 0-3.8.2 0 0-1.4.1-2.3.4-.8.3-2.4.7-3.2 1.7-1.4 1.7-1.3 2.1-3 1.6-.1 0-.2 0-.3.1-17.2 18.3-29.7 41.1-35.3 66.5v.1c-.4 1.6-.8 3.6-1.4 7.3v.3c.1.4.2.5.7.5 1.3 0 2.3.9 2.6 2.1.1.4.3.6.6.7.3.1.6.1.9-.1.2-.1 1.3.8 1.3 1.9 0 .6.3 1.3.4 1.9.1.7 0 1.5-.5 2.1-.1.1-.1.2-.1.3.6 2.3 3.3 12.3 3.9 12.8.3-.1.6 0 .8.2 5.5 6.2 11.7 16.3 11.5 19.4-1.2 2.3-1.1 2.2-.1 3.5 1.9 2.3 1.9 2.5 1.1 4.9.4-.7 1.2-1.1 2-1.1s1.6.4 2 1.1c.3.5.6 1 1.1 1.4 1.1 1 1.7 2.5 1.6 4 0 0 1.7 0 4.1 1.8 3 2.3 13.8 14.6 14.2 18 .2 1.5-.4 3-1.2 4.3-.9 1.5-3.8 4.6-4.2 6.3-.2.8-1.6 1.2-1.6 1.7 0 .7.2 2.1 1.2 4.9.3.8 1 7 .6 9.5-.2 1.5-.2 1.7.2 3.3.1.5-1.1 1.9-2 1.3-1.1-.8-2-.7-2.1-.4-1.5 2.4-6.9 2.9-5.7 5.5.4.8.7 1.5 1 2.3.4.9.6 1.9.6 2.9 0 .4 1.5 3.6 2.7 4.8 25.9 27.1 62.5 44 102.9 44 70.7 0 129.3-51.5 140.5-118.9 14-23.9 20.2-34.1 31.2-52.8zm-166.1-81.3c6.1-2.6 7.3-4.7 7.7-6.2.1-.3.3-.6.7-.7.1-.3.2-.6.5-.9.5-.5.9-1 1.3-1.6 1.5 4.8 3.2 9.6 5.1 14.5-.1.9-.3 1.7-.6 2.5-.5 1.3.5 2.7-.2 4-.8 1.5-2.7.3-3.1 2.2-.2.8-1.7-.4-2.2-.9-.1-1.5-.6-2.2-1.1-3.4-.3-1-1.1-1.7-2.1-2-2.6-.8-3.1 1.8-5.5 1.1-1.9-.6-3.2-2.3-3.3-4.2-.2-1.9 1-3.7 2.8-4.4zm16.7 55.3c-.1.5-.5.9-.6 1.4 0 .3.4.5.3.9-.3.9-.5.9-.7 1-.2 0-.4 0-.5-.1-.3-.1-.5-.4-.8-.6-.2-.1-.3-.1-.5-.2-.5-.2-2-1.2-2.4-1.2-.2 0-.3.1-.5.1-.1 0-.2 0-.3-.2-.1-.1.3-1.2.6-1.1.2.1.1.2.4.2.2 0 .4-.3.6-.2.4.1.6.4 1.1.4.3 0 .5-.3.8-.3.2 0 .4.1.6.1l.6-.3c.4-.2.3 0 .8-.1.1 0 .3-.1.4-.1h.1c-.1-.1 0 .1 0 .3z"/></svg>
