<svg xmlns="http://www.w3.org/2000/svg" xmlns:xlink="http://www.w3.org/1999/xlink" width="150" height="150" viewBox="0 0 150 150"><defs><path id="a" d="M70.8 81.7l.7-.7 52.6-52.6c1.6-1.6 4.1-1.6 5.6 0 1.6 1.6 1.6 4.1 0 5.6L73.6 90.1c-1.6 1.6-4.1 1.6-5.6 0l-14-14c-1.6-1.6-1.6-4.1 0-5.6 1.6-1.6 4.1-1.6 5.6 0l11.2 11.2z"/></defs><use xlink:href="#a" overflow="visible" fill-rule="evenodd" clip-rule="evenodd" fill="#FFF"/><defs><path id="b" d="M65 12.2C30.3 17.7 6.7 50.2 12.2 85s38.1 58.4 72.8 52.9c28.5-4.5 50.2-27.6 53.3-55.8.6-5.6.5-11.3-.4-17-.3-2.2-2.4-3.6-4.6-3.3-2.2.3-3.6 2.4-3.3 4.6.8 5 .9 10 .4 14.9-2.7 24.7-21.7 44.9-46.6 48.8-30.4 4.8-58.9-15.9-63.7-46.3-4.9-30.5 15.8-59 46.2-63.8 11.2-1.8 22.4-.1 32.4 4.6 2 .9 4.4.1 5.3-1.9s.1-4.4-1.9-5.3C90.6 12 77.8 10.1 65 12.2z"/></defs><use xlink:href="#b" overflow="visible" fill="#F1C418"/></svg>
