<?xml version="1.0" encoding="utf-8"?>
<!-- Generator: Adobe Illustrator 18.0.0, SVG Export Plug-In . SVG Version: 6.00 Build 0)  -->
<!DOCTYPE svg PUBLIC "-//W3C//DTD SVG 1.1//EN" "http://www.w3.org/Graphics/SVG/1.1/DTD/svg11.dtd" [
	<!ENTITY ns_flows "http://ns.adobe.com/Flows/1.0/">
	<!ENTITY ns_extend "http://ns.adobe.com/Extensibility/1.0/">
	<!ENTITY ns_ai "http://ns.adobe.com/AdobeIllustrator/10.0/">
	<!ENTITY ns_graphs "http://ns.adobe.com/Graphs/1.0/">
]>
<svg version="1.1" id="Layer_1" xmlns:x="&ns_extend;" xmlns:i="&ns_ai;" xmlns:graph="&ns_graphs;"
	 xmlns="http://www.w3.org/2000/svg" xmlns:xlink="http://www.w3.org/1999/xlink" xmlns:a="http://ns.adobe.com/AdobeSVGViewerExtensions/3.0/"
	 x="0px" y="0px" width="30px" height="30px" viewBox="7.5 7.5 30 30" enable-background="new 7.5 7.5 30 30" xml:space="preserve">
<path fill="#FFFFFF" d="M29.2,34.1c-1,0-2-0.7-2.4-1.6l-0.1-0.3h-4.4L22,32.4c-0.4,1-1.4,1.6-2.4,1.6s-2-0.7-2.4-1.7l-0.1-0.3h-0.3
	c-1.5-0.1-2.7-1.4-2.7-2.9c0-1.4,1-2.6,2.4-2.9l0.5-0.1l-4.6-14H9.7c-0.3,0-0.6-0.3-0.6-0.6s0.3-0.6,0.6-0.6h3.1
	c0.3,0,0.5,0.1,0.5,0.4l1.1,3.3h20.8c0.1,0,0.2,0,0.3,0.1c0.3,0.1,0.4,0.4,0.3,0.7l-3.3,11.5c-0.1,0.3-0.3,0.4-0.5,0.4h-15
	c-1,0-1.8,0.8-1.8,1.8c0,0.8,0.6,1.6,1.4,1.8l0.5,0.1l0.1-0.4c0.4-1,1.4-1.7,2.4-1.7s2,0.7,2.4,1.7l0.1,0.3h4.5l0.1-0.3
	c0.4-1,1.4-1.7,2.4-1.7c1,0,2,0.7,2.4,1.7l0.1,0.3h1.3c0.3,0,0.6,0.3,0.6,0.6s-0.3,0.6-0.6,0.6h-1.3l-0.1,0.3
	C31.2,33.4,30.3,34.1,29.2,34.1z M29.2,30.1c-0.8,0-1.4,0.7-1.4,1.4c0,0.8,0.7,1.4,1.4,1.4c0.8,0,1.4-0.7,1.4-1.4
	C30.6,30.7,29.9,30.1,29.2,30.1z M19.6,30.1c-0.8,0-1.4,0.7-1.4,1.4c0,0.8,0.7,1.4,1.4,1.4s1.4-0.7,1.4-1.4
	C21.1,30.7,20.4,30.1,19.6,30.1z M28.8,26.2h2.8l0.7-2.6h-3.6L28.8,26.2L28.8,26.2z M22.1,26.2h5.5v-2.6h-5.5V26.2z M18.3,26.2H21
	v-2.6h-3.6L18.3,26.2z M28.8,22.4h3.9l0.8-2.7h-4.6C28.8,19.7,28.8,22.4,28.8,22.4z M22.1,22.4h5.5v-2.7h-5.5V22.4z M17,22.4h3.9
	v-2.7h-4.8L17,22.4z M28.8,18.5h5l0.8-2.7h-5.8V18.5z M22.1,18.5h5.5v-2.7h-5.5V18.5z M15.8,18.5H21v-2.7h-6.1L15.8,18.5z"/>
</svg>
