<?xml version="1.0" encoding="utf-8"?>
<!-- Generator: Adobe Illustrator 18.0.0, SVG Export Plug-In . SVG Version: 6.00 Build 0)  -->
<!DOCTYPE svg PUBLIC "-//W3C//DTD SVG 1.1//EN" "http://www.w3.org/Graphics/SVG/1.1/DTD/svg11.dtd" [
	<!ENTITY ns_flows "http://ns.adobe.com/Flows/1.0/">
	<!ENTITY ns_extend "http://ns.adobe.com/Extensibility/1.0/">
	<!ENTITY ns_ai "http://ns.adobe.com/AdobeIllustrator/10.0/">
	<!ENTITY ns_graphs "http://ns.adobe.com/Graphs/1.0/">
]>
<svg version="1.1" id="Layer_1" xmlns:x="&ns_extend;" xmlns:i="&ns_ai;" xmlns:graph="&ns_graphs;"
	 xmlns="http://www.w3.org/2000/svg" xmlns:xlink="http://www.w3.org/1999/xlink" xmlns:a="http://ns.adobe.com/AdobeSVGViewerExtensions/3.0/"
	 x="0px" y="0px" width="50px" height="50px" viewBox="0 0 50 50" enable-background="new 0 0 50 50" xml:space="preserve">
<path fill="#8ED8F8" d="M33.2,9.1h-6.9V4.5c0-0.7-0.6-1.3-1.3-1.3c-0.7,0-1.3,0.6-1.3,1.3v4.6h-6.9c-1.7,0-3,1.3-3,3
	c0,0.1,0,0.2,0,0.2l4.5,28.4c0.1,0.6,0.6,1.1,1.3,1.1h4.2v3.7c0,0.7,0.6,1.3,1.3,1.3c0.7,0,1.3-0.6,1.3-1.3v-3.7h4.2
	c0.6,0,1.2-0.5,1.3-1.1l4.5-28.4c0,0,0-0.1,0-0.2h0C36.3,10.4,34.9,9.1,33.2,9.1z M27.9,16H33l-0.5,3.5h-3.3c-0.7,0-1.3,0.6-1.3,1.3
	c0,0.7,0.6,1.3,1.3,1.3h2.8l-0.5,3.5h-5.2c-0.7,0-1.3,0.6-1.3,1.3c0,0.7,0.6,1.3,1.3,1.3h4.8l-0.5,3.5h-2.7c-0.7,0-1.3,0.6-1.3,1.3
	s0.6,1.3,1.3,1.3h2.3l-0.8,5h-8.7l-0.3-2h3.9c0.1,0,0.3,0,0.4-0.1c0,0,0.1,0,0.1,0c0.1,0,0.2-0.1,0.3-0.2c0,0,0.1-0.1,0.1-0.1
	c0.1-0.1,0.2-0.2,0.2-0.3c0,0,0,0,0,0c0.1-0.2,0.2-0.4,0.2-0.7c0,0,0,0,0,0c0,0,0,0,0,0l0-0.5h-0.1c-0.2-0.5-0.7-0.8-1.2-0.8h-4.3
	l-0.5-3.3l0,0l0-0.1h6.6c0.3,0,0.6-0.1,0.8-0.3l0,0l0,0v0l0,0c0,0,0,0,0,0l0,0v0c0.1-0.1,0.1-0.2,0.2-0.3c0,0,0,0,0,0
	c0.1-0.1,0.1-0.3,0.1-0.5l0-0.1l0,0c0,0,0,0,0,0c0,0,0,0,0,0l0-0.5h-0.1c-0.2-0.5-0.7-0.8-1.2-0.8h-7l-0.5-2.9l0,0l-0.1-0.6h5.2
	c0.6,0,1.1-0.4,1.2-0.9l0,0l0-0.1c0-0.1,0-0.1,0-0.2l0,0l0-0.1l0,0c0,0,0,0,0,0c0,0,0,0,0,0l0-0.5h-0.1c-0.2-0.5-0.7-0.8-1.2-0.8H18
	L17.4,19h3.2c0.7,0,1.2-0.5,1.3-1.2l0,0l0-0.1l0-0.1c0-0.7-0.6-1.3-1.3-1.3H17L16.3,12c0-0.2,0.2-0.4,0.4-0.4h16.5
	c0.1,0,0.2,0,0.3,0.1l0,0l0,0c0,0,0.1,0.1,0.1,0.1l0,0l0,0c0,0,0,0.1,0.1,0.2l0,0l0,0l0,0l-0.2,1.3h-5.6c-0.7,0-1.3,0.6-1.3,1.3
	S27.1,16,27.9,16z"/>
</svg>
