<svg xmlns="http://www.w3.org/2000/svg" xmlns:xlink="http://www.w3.org/1999/xlink" width="19" height="12" viewBox="0 0 19 12"><defs><path id="a" d="M3.6 6.5L6 8.9c.2.2.2.6 0 .8-.2.2-.6.2-.8 0L1.9 6.4c-.2-.2-.2-.6 0-.8l3.3-3.3c.2-.2.6-.2.8 0 .2.2.2.6 0 .8L3.8 5.3h12.9c.3 0 .6.3.6.6s-.3.6-.6.6H3.6z"/></defs><use xlink:href="#a" overflow="visible" fill="#44B763"/><clipPath id="b"><use xlink:href="#a" overflow="visible"/></clipPath><g clip-path="url(#b)"><defs><path id="c" d="M-14-26.9h213v378.8H-14z"/></defs><use xlink:href="#c" overflow="visible" fill="#44B763"/><clipPath id="d"><use xlink:href="#c" overflow="visible"/></clipPath><path transform="rotate(-135 9.504 5.96)" clip-path="url(#d)" fill="#44B763" d="M2.4-1.2h14.1V13H2.4z"/></g></svg>
