<svg xmlns="http://www.w3.org/2000/svg" width="512" height="512" viewBox="0 0 512 512"><g fill="#B2B2B2"><path d="M480 32c.1 0 0 448 0 448 0 .1-448 0-448 0-.1 0 0-448 0-448h448zM144 96c-8.8 0-16 7.1-16 16 0 8.8 7.1 16 16 16h224c8.8 0 16-7.1 16-16 0-8.8-7.1-16-16-16H144zM0 32v448c0 17.7 14.2 32 32 32h448c17.7 0 32-14.2 32-32V32c0-17.7-14.2-32-32-32H32C14.3 0 0 14.2 0 32z"/><path d="M336.2 336c-8.9 0-16.2 7.1-16.2 16.2v31.7c0 8.9 7.1 16.2 16.2 16.2h31.7c8.9 0 16.2-7.1 16.2-16.2v-31.7c0-8.9-7.1-16.2-16.2-16.2h-31.7zm-192 0c-8.9 0-16.2 7.1-16.2 16.2v31.7c0 8.9 7.1 16.2 16.2 16.2h31.7c8.9 0 16.2-7.1 16.2-16.2v-31.7c0-8.9-7.1-16.2-16.2-16.2h-31.7zm96 0c-8.9 0-16.2 7.1-16.2 16.2v31.7c0 8.9 7.1 16.2 16.2 16.2h31.7c8.9 0 16.2-7.1 16.2-16.2v-31.7c0-8.9-7.1-16.2-16.2-16.2h-31.7zm96-112c-8.9 0-16.2 7.1-16.2 16.2v31.7c0 8.9 7.1 16.2 16.2 16.2h31.7c8.9 0 16.2-7.1 16.2-16.2v-31.7c0-8.9-7.1-16.2-16.2-16.2h-31.7zm-192 0c-8.9 0-16.2 7.1-16.2 16.2v31.7c0 8.9 7.1 16.2 16.2 16.2h31.7c8.9 0 16.2-7.1 16.2-16.2v-31.7c0-8.9-7.1-16.2-16.2-16.2h-31.7zm96 0c-8.9 0-16.2 7.1-16.2 16.2v31.7c0 8.9 7.1 16.2 16.2 16.2h31.7c8.9 0 16.2-7.1 16.2-16.2v-31.7c0-8.9-7.1-16.2-16.2-16.2h-31.7z"/></g></svg>
