<svg xmlns="http://www.w3.org/2000/svg" width="512" height="512" viewBox="0 0 512 512"><path fill="#BCBEC0" d="M0 416v64c0 17.7 14.2 32 32 32h64c17.7 0 32-14.2 32-32v-64c0-17.7-14.2-32-32-32H32c-17.7 0-32 14.2-32 32zm384-192v64c0 17.7 14.2 32 32 32h64c17.7 0 32-14.2 32-32v-64c0-17.7-14.2-32-32-32h-64c-17.7 0-32 14.2-32 32zm-192 0v64c0 17.7 14.2 32 32 32h64c17.7 0 32-14.2 32-32v-64c0-17.7-14.2-32-32-32h-64c-17.7 0-32 14.2-32 32zM0 224v64c0 17.7 14.2 32 32 32h64c17.7 0 32-14.2 32-32v-64c0-17.7-14.2-32-32-32H32c-17.7 0-32 14.2-32 32zM384 32v64c0 17.7 14.2 32 32 32h64c17.7 0 32-14.2 32-32V32c0-17.7-14.2-32-32-32h-64c-17.7 0-32 14.2-32 32zm-192 0v64c0 17.7 14.2 32 32 32h64c17.7 0 32-14.2 32-32V32c0-17.7-14.2-32-32-32h-64c-17.7 0-32 14.2-32 32zM0 32v64c0 17.7 14.2 32 32 32h64c17.7 0 32-14.2 32-32V32c0-17.7-14.2-32-32-32H32C14.3 0 0 14.2 0 32zm480 384v64h-64v-64c0-.1 64 0 64 0zm-192 0v64h-64v-64c0-.1 64 0 64 0zm-192 0v64H32v-64c0-.1 64 0 64 0zm384-192v64h-64v-64h64zm-192 0v64h-64v-64h64zm-192 0v64H32v-64h64zM480 32v64h-64V32h64zm-192 0v64h-64V32h64zM96 32v64H32V32h64zm288 384v64c0 17.7 14.2 32 32 32h64c17.7 0 32-14.2 32-32v-64c0-17.7-14.2-32-32-32h-64c-17.7 0-32 14.2-32 32z"/></svg>
