<svg xmlns="http://www.w3.org/2000/svg" width="50" height="30" viewBox="0 0 50 30"><g fill="#8ED8F8"><path d="M46.2 23.1c-.1-.6-.9-1.4-.9-1.4-1.6-2.8-8-4-8-4l-7.2-4.4-.4-.2-.5-.2-.5-.2-.5-.1c-3.6-.9-16.3-.8-16.3-.8-2 0-2.7 1.1-2.7 1.1l-3.6 4.5c-1.1 1-.7 4.1-.7 4.1.1.5-.3.6-.3.6-.5 0-.8.7-.8.7 0 4.1 2.1 3.8 2.1 3.8.3-4.6 4.1-4 4.1-4 3.7-.1 3.8 4.7 3.8 4.7h20.9c.5-5.7 4.7-4.9 4.7-4.9 3.7.2 3.2 5 3.2 5l2.1-.2c1.9-.1 1.5-4.1 1.5-4.1zM9.8 17.6C9.5 16 11 14.1 11 14.1c.9-1.5 2.3-1.3 2.3-1.3s4.6-.1 5.3 0c.7 0 .7.5.7.5l.3 4.7-9.8-.4zm22.8.6L22 17.9l-1-4.4c0-.8.7-.6.7-.6 8.9 0 11 4 11 4 .8 1.4-.1 1.3-.1 1.3z"/><path d="M38.7 23.7c-1.7 0-3.2 1.4-3.2 3.2 0 1.7 1.4 3.2 3.2 3.2 1.7 0 3.2-1.4 3.2-3.2 0-1.8-1.5-3.2-3.2-3.2zm0 4.7c-.9 0-1.6-.7-1.6-1.6 0-.9.7-1.6 1.6-1.6.9 0 1.6.7 1.6 1.6 0 .9-.7 1.6-1.6 1.6zM9.9 23.7c-1.7 0-3.2 1.4-3.2 3.2 0 1.7 1.4 3.2 3.2 3.2 1.7 0 3.2-1.4 3.2-3.2-.1-1.8-1.5-3.2-3.2-3.2zm0 4.7c-.9 0-1.6-.7-1.6-1.6 0-.9.7-1.6 1.6-1.6.9 0 1.6.7 1.6 1.6 0 .9-.7 1.6-1.6 1.6z"/></g></svg>
