<?xml version="1.0" encoding="utf-8"?>
<!-- Generator: Adobe Illustrator 18.0.0, SVG Export Plug-In . SVG Version: 6.00 Build 0)  -->
<!DOCTYPE svg PUBLIC "-//W3C//DTD SVG 1.1//EN" "http://www.w3.org/Graphics/SVG/1.1/DTD/svg11.dtd" [
	<!ENTITY ns_flows "http://ns.adobe.com/Flows/1.0/">
	<!ENTITY ns_extend "http://ns.adobe.com/Extensibility/1.0/">
	<!ENTITY ns_ai "http://ns.adobe.com/AdobeIllustrator/10.0/">
	<!ENTITY ns_graphs "http://ns.adobe.com/Graphs/1.0/">
]>
<svg version="1.1" id="Layer_1" xmlns:x="&ns_extend;" xmlns:i="&ns_ai;" xmlns:graph="&ns_graphs;"
	 xmlns="http://www.w3.org/2000/svg" xmlns:xlink="http://www.w3.org/1999/xlink" xmlns:a="http://ns.adobe.com/AdobeSVGViewerExtensions/3.0/"
	 x="0px" y="0px" width="27.6px" height="27.6px" viewBox="0 0 27.6 27.6" enable-background="new 0 0 27.6 27.6"
	 xml:space="preserve">
<g>
	<path fill="#D73648" d="M21,3.7c-3,0-5.4,2.4-5.4,5.4c0,3,2.4,5.4,5.4,5.4s5.4-2.4,5.4-5.4C26.3,6.1,23.9,3.7,21,3.7z M24,9.4
		c0,0.3-0.2,0.5-0.5,0.5h-1.8v1.8c0,0.3-0.2,0.5-0.5,0.5h-0.6c-0.3,0-0.5-0.2-0.5-0.5V9.9h-1.8c-0.3,0-0.5-0.2-0.5-0.5V8.8
		c0-0.3,0.2-0.5,0.5-0.5h1.8V6.5c0-0.3,0.2-0.5,0.5-0.5h0.6c0.3,0,0.5,0.2,0.5,0.5v1.8h1.8c0.3,0,0.5,0.2,0.5,0.5V9.4z"/>
	<path fill="#D73648" d="M20.9,20.6h-0.8c-0.3-1-1.3-1.6-2.3-1.6s-2,0.7-2.3,1.6h-3c-0.3-1-1.3-1.6-2.3-1.6c-1.1,0-2,0.7-2.3,1.6
		C7.3,20.4,7,20,7,19.5c0-0.6,0.5-1.1,1.1-1.1h12.1c0.4,0,0.7-0.3,0.8-0.6l0.6-2c-0.2,0-0.4,0-0.6,0c-0.4,0-0.8,0-1.2-0.1l-0.3,1
		h-1.6v-1.3h0.7c-1-0.4-1.9-1-2.6-1.7h-3.5v-1.4H15c-0.3-0.5-0.5-1.1-0.6-1.7h-1.9V9.2h1.7c0,0,0,0,0-0.1c0-0.6,0.1-1.1,0.2-1.7
		h-2.5h-0.5H6.2L5.4,5C5.3,4.7,5,4.4,4.6,4.4H2.1c-0.5,0-0.9,0.4-0.9,0.9s0.4,0.9,0.9,0.9H4l3.5,10.6c-1.3,0.3-2.3,1.4-2.3,2.7
		c0,1.5,1.1,2.7,2.5,2.8c0.4,0.9,1.3,1.6,2.3,1.6c1.1,0,2-0.7,2.3-1.6h3.1c0.4,0.9,1.3,1.6,2.3,1.6s2-0.7,2.3-1.6h0.8
		c0.5,0,0.9-0.4,0.9-0.9C21.8,20.9,21.4,20.6,20.9,20.6z M12.5,15.4h3.6v1.3h-3.6V15.4z M10.8,16.7H9.3l-0.4-1.3h1.9V16.7z
		 M10.8,13.7H8.3l-0.5-1.4h2.9V13.7z M7.3,10.6L6.8,9.2h4v1.4H7.3z M10.1,22.2c-0.4,0-0.7-0.3-0.7-0.7c0-0.4,0.3-0.7,0.7-0.7
		c0.4,0,0.7,0.3,0.7,0.7C10.9,21.8,10.5,22.2,10.1,22.2z M17.8,22.2c-0.4,0-0.7-0.3-0.7-0.7c0-0.4,0.3-0.7,0.7-0.7
		c0.4,0,0.7,0.3,0.7,0.7C18.6,21.8,18.2,22.2,17.8,22.2z"/>
</g>
</svg>
