<?xml version="1.0" encoding="utf-8"?>
<!-- Generator: Adobe Illustrator 18.0.0, SVG Export Plug-In . SVG Version: 6.00 Build 0)  -->
<!DOCTYPE svg PUBLIC "-//W3C//DTD SVG 1.1//EN" "http://www.w3.org/Graphics/SVG/1.1/DTD/svg11.dtd" [
	<!ENTITY ns_flows "http://ns.adobe.com/Flows/1.0/">
	<!ENTITY ns_extend "http://ns.adobe.com/Extensibility/1.0/">
	<!ENTITY ns_ai "http://ns.adobe.com/AdobeIllustrator/10.0/">
	<!ENTITY ns_graphs "http://ns.adobe.com/Graphs/1.0/">
]>
<svg version="1.1" id="Layer_1" xmlns:x="&ns_extend;" xmlns:i="&ns_ai;" xmlns:graph="&ns_graphs;"
	 xmlns="http://www.w3.org/2000/svg" xmlns:xlink="http://www.w3.org/1999/xlink" xmlns:a="http://ns.adobe.com/AdobeSVGViewerExtensions/3.0/"
	 x="0px" y="0px" width="30px" height="30px" viewBox="7.5 7.5 30 30" enable-background="new 7.5 7.5 30 30" xml:space="preserve">
<path fill="#FFFFFF" d="M22.6,12.1c0.3,0,0.7,0.1,0.9,0.4l4.2,4.2V14h2.1V19l4.5,4.6h-2.7v9.4h-6.2v-4.7c0-0.7-0.6-1.3-1.3-1.3H21
	c-0.7,0-1.3,0.6-1.3,1.3v4.7h-6.2v-9.4h-2.7l10.8-10.9C21.9,12.3,22.2,12.1,22.6,12.1 M22.6,10.5c-0.8,0-1.5,0.3-2.1,0.8l-10.8,11
	c-0.5,0.5-0.6,1.1-0.3,1.7c0.3,0.6,0.8,1,1.5,1h1.1v7.8c0,0.9,0.7,1.6,1.6,1.6h6.2c0.9,0,1.6-0.7,1.6-1.6v-4.4h2.4v4.4
	c0,0.9,0.7,1.6,1.6,1.6h6.2c0.9,0,1.6-0.7,1.6-1.6v-7.8h1.1c0.6,0,1.3-0.4,1.5-1c0.3-0.6,0.1-1.3-0.3-1.7l-4.1-4.1V14
	c0-0.9-0.7-1.6-1.6-1.6h-2.1c-0.6,0-1,0.3-1.4,0.8l-1.7-1.7C24.1,10.9,23.3,10.5,22.6,10.5L22.6,10.5z"/>
</svg>
