<?xml version="1.0" encoding="utf-8"?>
<!-- Generator: Adobe Illustrator 18.0.0, SVG Export Plug-In . SVG Version: 6.00 Build 0)  -->
<!DOCTYPE svg PUBLIC "-//W3C//DTD SVG 1.1//EN" "http://www.w3.org/Graphics/SVG/1.1/DTD/svg11.dtd" [
	<!ENTITY ns_flows "http://ns.adobe.com/Flows/1.0/">
	<!ENTITY ns_extend "http://ns.adobe.com/Extensibility/1.0/">
	<!ENTITY ns_ai "http://ns.adobe.com/AdobeIllustrator/10.0/">
	<!ENTITY ns_graphs "http://ns.adobe.com/Graphs/1.0/">
]>
<svg version="1.1" id="Layer_1" xmlns:x="&ns_extend;" xmlns:i="&ns_ai;" xmlns:graph="&ns_graphs;"
	 xmlns="http://www.w3.org/2000/svg" xmlns:xlink="http://www.w3.org/1999/xlink" xmlns:a="http://ns.adobe.com/AdobeSVGViewerExtensions/3.0/"
	 x="0px" y="0px" width="30px" height="30px" viewBox="7.5 7.5 30 30" enable-background="new 7.5 7.5 30 30" xml:space="preserve">
<g>
	<path fill="#FFFFFF" d="M11.4,17.4L11.4,17.4l-0.1-0.1v-0.1c0-0.1-0.1-0.1-0.1-0.2c-0.1-0.1-0.1-0.3-0.1-0.4c0-0.3,0-0.5,0.1-0.7
		c0-0.1,0.1-0.2,0.1-0.3c0.1-0.1,0.1-0.1,0.1-0.1l0.1-0.1c0,0,0,0,0.1-0.1l0.3-0.2l0,0l0,0l0.6-0.3c0.1-0.1,0.2-0.1,0.3-0.1l0.6-0.3
		c0.1-0.1,0.2-0.1,0.3-0.1l0.4-0.2c0.3-0.1,0.6-0.3,0.9-0.3H15c0.2-0.1,0.4-0.1,0.7-0.3l0.3-0.1c0.1-0.1,0.3-0.1,0.4-0.2l0.5-0.1
		c0.2-0.1,0.4-0.1,0.6-0.1c0.1,0,0.3-0.1,0.3-0.1H18c0.3-0.1,0.5-0.1,0.8-0.1c0.1,0,0.3,0,0.4,0c0.2,0,0.4-0.1,0.6-0.1H20
		c0.3,0,0.5,0,0.8,0h0.5l0.5,0.1c0.7,0.1,1.4,0.2,2,0.3c0.6,0.1,1.3,0.3,1.9,0.5c0.6,0.2,1.3,0.5,1.8,0.7c0.5,0.3,1.1,0.6,1.7,0.9
		c0.2,0.1,0.4,0.3,0.6,0.4c0.1,0.1,0.2,0.1,0.3,0.2l0.2,0.1c0.2,0.1,0.4,0.3,0.6,0.4c0.6,0.4,1.1,0.9,1.5,1.3c0.4,0.5,0.9,1,1.2,1.5
		c0.1,0.1,0.1,0.2,0.2,0.3l0.1,0.1c0.1,0.1,0.2,0.3,0.3,0.4l0.3,0.4c0.1,0.1,0.1,0.3,0.1,0.4c0.1,0.3,0.1,0.5,0,0.7
		c0,0.1-0.1,0.2-0.1,0.3c-0.1,0.1-0.1,0.1-0.3,0.3l-0.1,0.1c-2.1,1.9-3.9,3.6-5.6,5.1c-0.9,0.8-1.8,1.7-2.8,2.5l-0.4,0.4
		c-0.1,0.1-0.2,0.1-0.3,0.2l-0.1,0.1c-0.1,0.1-0.1,0.1-0.3,0.2l-0.1,0.1h-0.1c-0.1,0-0.1,0-0.1,0s-0.2,0-0.3,0h-1.5l0,0
		c-0.3,0-0.4,0.2-0.4,0.4c0,0.1,0.1,0.3,0.1,0.3s0.2,0.1,0.3,0.1l1.5,0.1c0.1,0,0.1,0,0.2,0s0.1,0,0.3,0c0.2,0,0.4-0.1,0.6-0.2
		c0.1-0.1,0.2-0.1,0.3-0.3l0.1-0.1c0.1-0.1,0.2-0.1,0.3-0.3l0.4-0.4c0.9-0.8,2-1.7,2.8-2.5c1.7-1.5,3.5-3.2,5.7-5.1l0.1-0.1
		c0.1-0.1,0.3-0.3,0.3-0.4c0.1-0.2,0.3-0.4,0.3-0.6c0.1-0.4,0.1-0.8,0-1.3l0,0c-0.1-0.2-0.1-0.4-0.2-0.6l-0.3-0.5
		c-0.1-0.3-0.3-0.5-0.4-0.8l-0.2,0c-0.4-0.6-0.8-1.1-1.3-1.6c-0.6-0.6-1.1-1.1-1.5-1.5c-0.2-0.2-0.4-0.3-0.6-0.5l-0.3-0.2
		c-0.1-0.1-0.2-0.1-0.3-0.2c-0.2-0.1-0.4-0.3-0.6-0.4c-0.6-0.4-1.2-0.7-1.8-1c-0.6-0.3-1.2-0.6-2-0.8c-0.7-0.3-1.4-0.4-2-0.6
		c-0.8-0.2-1.5-0.3-2.1-0.3l-0.5-0.1h-0.5c-0.3,0-0.6,0-0.9,0h-0.2c-0.3,0-0.4,0-0.7,0.1c-0.1,0-0.3,0-0.4,0c-0.3,0-0.6,0.1-0.9,0.1
		h-0.2c-0.1,0-0.3,0.1-0.4,0.1c-0.3,0.1-0.4,0.1-0.7,0.1L16,11.9c-0.1,0.1-0.3,0.1-0.4,0.2l-0.3,0.1c-0.3,0.1-0.5,0.1-0.8,0.3h-0.1
		c-0.3,0.1-0.6,0.3-0.9,0.4L13.1,13c-0.1,0-0.3,0.1-0.4,0.1l-0.6,0.3c-0.1,0.1-0.2,0.1-0.3,0.2l-0.6,0.3h-0.1l-0.3,0.3
		c0,0-0.1,0.1-0.1,0.1l-0.1,0.1c-0.1,0.1-0.1,0.1-0.2,0.3l-0.2,0.3c-0.1,0.3-0.3,0.4-0.3,0.6c-0.1,0.4-0.2,0.8-0.1,1.3
		c0,0.2,0.1,0.4,0.1,0.6c0,0.1,0.1,0.2,0.1,0.3c0,0.1,0,0.1,0.1,0.1l0.1,0.1V18V18c0,0,0,0.1,0.1,0.1L14,24c0.1,0.2,0.4,0.3,0.6,0.1
		c0.2-0.1,0.3-0.4,0.2-0.6L11.4,17.4L11.4,17.4z"/>
	<path fill="#FFFFFF" d="M26.7,26.2c-0.1,0-0.2,0-0.2,0.1c-0.9,2-4.1,2.2-5,2.2c-2.3,0-3.9-0.6-5.1-1.6c-0.3-0.2-0.4-0.4-0.6-0.7
		c-0.3-0.5-0.3-1.1-0.1-1.6c0.3-0.7,1-1.3,1.9-1.6c-0.1,0.1-0.3,0.1-0.4,0.3c-0.3,0.3-0.6,0.6-0.7,0.9c-0.5,1.1,0.2,2,0.7,2.5
		c0.9,0.9,2.3,1.4,4.1,1.5c0.2,0,0.3,0,0.4,0c0.9,0,1.6-0.2,2-0.3c1.2-0.4,2.1-0.8,2.5-1.8c0.4-1-0.3-2-0.7-2.3l-0.1-0.1
		c-0.1-0.1-0.2-0.3-0.4-0.3c-0.1,0-0.1,0-0.1,0.1l0,0c-0.3-0.4-0.7-0.8-1.2-0.8c-0.3-0.4-0.6-0.8-1.1-1L24,19
		c0.1-0.1,0.2-0.3,0.3-0.5c0.1-0.3-0.1-0.6-0.3-0.8c-0.2-0.1-0.5-0.3-0.8-0.2c-0.2,0-0.4,0.1-0.4,0.3c-0.1,0.1-0.1,0.3,0,0.4v0.1
		c0,0.1,0,0.3-0.1,0.4c-0.1,0.3-0.4,1.4-0.6,2.3c-0.1,0-0.1,0-0.1,0c-0.6-0.1-1.1,0.1-1.6,0.3h-0.1c-0.4,0-0.9,0-1.3,0.2
		c-0.1,0-0.1,0.1-0.2,0.1c-0.2,0.1-0.4,0.1-0.5,0.1h-0.1c-1.6,0.5-3,1.7-3.3,2.9c-0.1,0.3-0.1,0.9,0.1,1.3c0.1,0.3,0.2,0.4,0.3,0.6
		c0.7,1.1,2.3,2,4.2,2.3c0.4,0.1,0.9,0.1,1.5,0.1c0.1,0,0.2,0,0.3,0c5.1-0.2,5.6-3,5.6-3.1C26.9,26.3,26.8,26.2,26.7,26.2z M25.5,25
		c0.1-0.3,0.1-0.5,0-0.8c0,0.1,0.1,0.1,0.1,0.1c0.3,0.6,0.1,1.3-0.3,1.6c-0.4,0.4-0.8,0.7-1.5,0.9c-0.3,0.1-0.5,0.2-0.8,0.2
		c0.2-0.1,0.4-0.3,0.5-0.5c0.2-0.2,0.3-0.4,0.5-0.5c0.1-0.1,0.3-0.1,0.4-0.2C24.9,25.6,25.3,25.5,25.5,25z M18.5,23.8
		c0.1-0.1,0.1-0.3,0.1-0.4c0-0.2,0.1-0.4,0.1-0.5l0,0c0.1-0.2,0.3-0.3,0.4-0.4c0.1-0.1,0.3-0.1,0.4-0.2c-0.1,0.3-0.3,0.5-0.3,0.8
		c-0.1,0.4,0.1,0.8,0.4,1.2c0.4,0.5,1.1,0.8,1.8,0.9c1.3,0.1,2.5-0.6,2.5-1.6v-0.1c0.1,0.1,0.3,0.3,0.3,0.5c0.2,0.5,0.2,0.9-0.1,1.1
		c-0.3,0.3-0.6,0.4-0.8,0.5c-0.2,0.1-0.4,0.2-0.7,0.4c-0.1,0.1-0.1,0.1-0.2,0.2c-0.1,0.1-0.1,0.2-0.5,0.3c-0.1,0-0.3-0.1-0.4-0.1
		c-0.2-0.1-0.5-0.3-0.9-0.3c-0.1,0-0.2,0-0.3,0l0,0c-0.3,0-0.6,0-1.1-0.7c-0.3-0.3-0.4-0.4-0.6-0.4c-0.1,0-0.2,0-0.3-0.1
		C18.4,24.4,18.4,24.2,18.5,23.8z M18.3,25.3c0.3,0.1,0.4,0.2,0.6,0.4c0.1,0.1,0.1,0.2,0.1,0.3c0.1,0.1,0.1,0.3,0.4,0.4
		c0.3,0.1,0.5,0.1,0.8,0.1c0.1,0,0.3,0,0.4,0c0.4,0.1,0.6,0.2,0.9,0.3c0.1,0.1,0.3,0.1,0.4,0.2c-0.9,0-1.7-0.1-2.3-0.4
		c-1-0.4-1.8-0.9-2.2-1.8c-0.2-0.4-0.1-0.9,0.3-1.3c0.1-0.1,0.3-0.4,0.4-0.4c0,0.1,0,0.1,0,0.1c0,0.3-0.1,0.3-0.2,0.5l-0.1,0.1
		c-0.1,0.2-0.5,0.6-0.2,1.1C17.7,25.2,18,25.3,18.3,25.3L18.3,25.3z"/>
	<path fill="#FFFFFF" d="M22.9,30.3c0.3-0.1,0.6-0.3,0.9-0.5l0,0c0.3-0.2,0.4-0.4,0.4-0.4c0-0.1,0.1-0.1,0-0.1
		c0-0.1-0.1-0.1-0.1-0.1c-0.1,0-0.1,0-0.2,0c-0.2,0.1-0.6,0.3-1.3,0.4c-0.4,0.1-1.4,0.3-2.3,0.3c-1.3,0-2.1-0.2-2.8-0.4l-0.1-0.1
		c-0.2-0.1-0.5-0.2-0.8-0.4c-0.1-0.1-0.1,0-0.2,0c-0.1,0.1-0.1,0.1-0.1,0.2c0.2,0.4,0.6,0.7,1,0.9c0.8,0.4,1.6,0.6,2.7,0.7l-0.1,0.1
		c-1,0.3-2.1,0.1-2.7-0.2c-0.1-0.1-0.2-0.1-0.3-0.2c-0.1,0-0.1-0.1-0.2-0.1c-0.1-0.1-0.1,0-0.2,0c-0.1,0.1-0.1,0.1-0.1,0.2
		c0.2,0.5,0.7,0.8,1.6,1.1c0.1,0,0.1,0,0.1,0c-0.5,0.1-1,0.1-1.4-0.1c-0.1,0-0.1,0-0.2,0c-0.1,0.1-0.1,0.1-0.1,0.2
		c0.1,0.3,0.4,0.5,0.9,0.6c-0.1,0-0.3,0-0.4-0.1c-0.1,0-0.2-0.1-0.3-0.1h-0.1c-0.1-0.1-0.1,0-0.2,0c-0.1,0.1-0.1,0.1-0.1,0.2
		c0.1,0.1,0.1,0.3,0.3,0.4l-0.2,0.5c-0.1,0.3-0.1,0.4,0,0.4c0,0.1,0.1,0.1,0.2,0.1l0,0c0.2,0,0.3-0.2,0.4-0.3l0.2-0.3
		c0.5,0.1,1.1-0.1,1.4-0.7l0.3-0.1c0.3-0.1,0.8-0.3,0.9-0.6c0.6-0.1,1.6-0.6,1.9-1c0.4-0.1,0.8-0.2,1-0.3L22.9,30.3z"/>
</g>
</svg>
