<svg xmlns="http://www.w3.org/2000/svg" width="128" height="128" viewBox="0 0 128 128"><path fill="#B0BEC5" d="M120 8.3H8c-4.4 0-8 4.2-8 9.3v92.8c0 5.1 3.6 9.3 8 9.3h112c4.4 0 8-4.2 8-9.3V17.6c0-5.1-3.6-9.3-8-9.3zm0 102.1H8V17.6h112v92.8z"/><path fill="#FFA000" d="M42.3 32.3c4.4 0 8 3.6 8 8s-3.6 8-8 8-8-3.6-8-8 3.6-8 8-8m0-8c-8.8 0-16 7.2-16 15.9s7.2 15.9 16 15.9 16-7.2 16-15.9-7.1-15.9-16-15.9z"/><path fill="#B0BEC5" d="M24 101.1c-1 0-2-.5-2.8-1.4-1.6-1.8-1.6-4.7 0-6.6l24-27.8c1.2-1.4 3.1-1.8 4.6-.9l13 7.5 22-34c.8-1.2 2.1-1.9 3.3-1.9 1.3 0 2.5.8 3.2 2.1l16 27.8c1.2 2.1.7 5-1.1 6.4-1.8 1.4-4.3.8-5.5-1.3L87.8 48.8 67.2 80.7c-1.2 1.8-3.3 2.4-5 1.4l-13.4-7.8-22 25.5c-.8.9-1.8 1.3-2.8 1.3z"/></svg>
