<svg height="300" viewBox="0 0 300 300" width="300" xmlns="http://www.w3.org/2000/svg"><path d="M150.84 14.798c-74.56 0-134.997 60.44-134.997 135s60.438 135 134.998 135c74.57 0 135.01-60.44 135.01-135 0-74.558-60.44-135-135-135zm0 250.91c-64.015 0-115.913-51.897-115.913-115.91 0-64.014 51.898-115.91 115.914-115.91 64.02 0 115.92 51.896 115.92 115.91 0 64.013-51.89 115.91-115.91 115.91z" fill="#BF3D27"/><path d="M255.27 149.797c0 57.677-46.75 104.433-104.428 104.433-57.677 0-104.427-46.756-104.427-104.433 0-57.674 46.75-104.428 104.427-104.428 57.677 0 104.43 46.75 104.43 104.42z" fill="#BF3D27"/><path d="M166.366 93.402l-.565 68.623h-28.77l-1.7-68.623m29.09 107.238c-3.78 3.702-8.35 5.555-13.69 5.555-5.57 0-10.14-1.793-13.73-5.395-3.59-3.59-5.39-8.165-5.39-13.73 0-5.4 1.86-9.98 5.59-13.735 3.73-3.754 8.24-5.622 13.54-5.622 5.3 0 9.85 1.913 13.65 5.75 3.82 3.835 5.71 8.4 5.71 13.693.01 5.302-1.89 9.785-5.66 13.484z" fill="#FFF"/></svg>
