<svg xmlns="http://www.w3.org/2000/svg" width="512" height="512" viewBox="0 0 512 512"><path fill="#B2B2B2" d="M256 512c-35.6 0-69.8-48.2-94.8-83.4-4.6-6.4-8.7-12.2-12.1-16.7-36.8-47.6-62.4-91.9-78.2-135.3-3.8-10.4-6.7-20.4-8.4-29.7-4.2-17-6.2-35.2-5.7-53.4C59.8 86.8 149.2 0 256 0h.5c109.6.3 198.7 89.7 198.7 199.3 0 16.4-2 32.6-5.9 48.3-1.5 8.6-4.4 18.8-8.3 29.8-17.2 47.8-46 90.1-71.9 125.1-3.4 4.5-7.4 10.4-12 17.1C332 456.4 293.9 512 256 512zm0-493.5c-96.9 0-178 78.8-180.7 175.6-.5 16.6 1.3 33.1 5.2 49 1.7 8.8 4.2 17.8 7.7 27.2 15.1 41.6 39.8 84.3 75.5 130.4 3.6 4.6 7.8 10.6 12.5 17.3 20.1 28.3 53.7 75.6 79.8 75.6 28.2 0 65.8-54.9 86-84.4 4.7-6.9 8.9-13 12.4-17.7 25.1-33.9 52.9-74.7 69.3-120.3 3.6-10 6.2-19.3 7.7-27.4 3.7-14.8 5.5-29.5 5.5-44.4 0-99.4-80.9-180.5-180.3-180.8h-.6v-.1zm0 286c-6.7 0-13.3-.6-20.2-1.9-32-5.9-59.5-25.8-75.5-54.6-8.9-16.1-13.6-34.4-13.6-52.9 0-60.3 49.1-109.4 109.3-109.4s109.3 49.1 109.3 109.4c0 18.8-4.9 37.3-14.1 53.7-16.5 29.1-44.8 48.8-77.6 54.2h-.1c-5.6 1-11.5 1.5-17.5 1.5zm.1-200.2c-50.1 0-90.9 40.8-90.9 90.9 0 15.6 3.8 30.4 11.3 44 13.2 23.9 36.1 40.4 62.7 45.4 10.9 2 21.4 1.9 31.6.4 26.9-4.4 51-21.3 64.5-45.1 7.6-13.5 11.7-28.9 11.7-44.6 0-50.3-40.8-91-90.9-91z"/></svg>
