<svg xmlns="http://www.w3.org/2000/svg" width="512" height="512" viewBox="0 0 512 512"><path fill="#FFF" d="M166.2 512h-41.5c-7.4 0-20.6-8.6-20.9-8.9C37.4 438 0 348.9 0 255.9 0 162.7 37.7 73.4 104.3 8.2c0 0 13-8.2 20.3-8.2h41.5c15.2 0 33.3 11.1 40.1 24.8l2.9 5.8c6.8 13.6 6.2 35.6-1.3 48.8l-27.9 48.8c-7.6 13.2-26.2 24.3-41.4 24.3h-27.7c-36.8 64-36.8 143.1 0 207.1h27.7c15.2 0 33.8 11 41.4 24.3l27.9 48.8c7.5 13.2 8.2 35.1 1.4 48.8l-2.9 5.8c-6.9 13.5-24.9 24.7-40.1 24.7zM512 128v256c0 35.3-28.7 64-64 64H244.7c-1.3-11.2-4-22.2-9.2-31.3l-27.9-48.8c-13.4-23.4-42.5-40.4-69.2-40.4h-8.2c-20.2-45.4-20.2-97.7 0-143.1h8.2c26.7 0 55.8-17 69.2-40.4l27.9-48.8c5.2-9.1 7.9-20.1 9.2-31.3H448c35.3.1 64 28.8 64 64.1zM328 368c0-13.3-10.8-24-24-24s-24 10.8-24 24 10.8 24 24 24 24-10.7 24-24zm0-64c0-13.3-10.8-24-24-24s-24 10.8-24 24 10.8 24 24 24 24-10.7 24-24zm0-64c0-13.3-10.8-24-24-24s-24 10.8-24 24 10.8 24 24 24 24-10.7 24-24zm64 128c0-13.3-10.8-24-24-24s-24 10.8-24 24 10.8 24 24 24 24-10.7 24-24zm0-64c0-13.3-10.8-24-24-24s-24 10.8-24 24 10.8 24 24 24 24-10.7 24-24zm0-64c0-13.3-10.8-24-24-24s-24 10.8-24 24 10.8 24 24 24 24-10.7 24-24zm64 128c0-13.3-10.8-24-24-24s-24 10.8-24 24 10.8 24 24 24 24-10.7 24-24zm0-64c0-13.3-10.8-24-24-24s-24 10.8-24 24 10.8 24 24 24 24-10.7 24-24zm0-64c0-13.3-10.8-24-24-24s-24 10.8-24 24 10.8 24 24 24 24-10.7 24-24zm0-96c0-8.8-7.2-16-16-16H296c-8.8 0-16 7.2-16 16v32c0 8.8 7.2 16 16 16h144c8.8 0 16-7.2 16-16v-32z"/></svg>
