<svg height="300" viewBox="0 0 300 300" width="300" xmlns="http://www.w3.org/2000/svg"><path d="M150.52 14.524c-74.787 0-135.41 60.627-135.41 135.414 0 74.78 60.623 135.406 135.41 135.406 74.782 0 135.41-60.627 135.41-135.406 0-74.787-60.628-135.414-135.41-135.414zm0 251.675c-64.21 0-116.264-52.06-116.264-116.27S86.308 33.67 150.52 33.67c64.207 0 116.26 52.05 116.26 116.26 0 64.205-52.053 116.263-116.26 116.263z" fill="#A3D179"/><path d="M255.264 149.934c0 57.852-46.897 104.744-104.744 104.744-57.852 0-104.747-46.893-104.747-104.744 0-57.85 46.895-104.744 104.747-104.744 57.846 0 104.744 46.893 104.744 104.744z" fill="#A3D179"/><path fill="#FFF" d="M137.202 211.4l-55.224-85.406v-1.074l51.74 23.38 85.34-59.834"/></svg>
